<?xml version="1.0" standalone="no"?>
<!DOCTYPE svg PUBLIC "-//W3C//DTD SVG 1.1//EN" "http://www.w3.org/Graphics/SVG/1.1/DTD/svg11.dtd" >
<svg xmlns="http://www.w3.org/2000/svg">
<metadata></metadata>
<defs>
<font id="myriad_probold" horiz-adv-x="614" >
<font-face units-per-em="2048" ascent="1536" descent="-512" />
<missing-glyph horiz-adv-x="413" />
<glyph unicode="ffj" horiz-adv-x="1814" d="M29 772v229h133v17q0 205 129 323q112 107 299 107q82 0 174 -33l-70 -225q-38 20 -88 20q-53 0 -92 -34q-43 -43 -43 -146v-29h328v41q0 205 143 320t379 115q75 0 152 -15t126 -39l-65 -233q-87 41 -205 41q-116 0 -168.5 -52.5t-52.5 -142.5v-35h608v-880 q0 -162 -34.5 -267t-106.5 -171q-132 -123 -385 -123l-31 243q131 10 184 66q34 36 48 107.5t14 218.5v577h-295v-772h-311v772h-326v-772h-311v772h-133z" />
<glyph unicode="fj" horiz-adv-x="1200" d="M29 772v229h133v41q0 205 143 320t379 115q81 0 165.5 -17.5t129.5 -44.5l-59 -235q-93 51 -228 51q-116 0 -168.5 -52.5t-52.5 -142.5v-35h608v-880q0 -162 -34.5 -267t-106.5 -171q-132 -123 -385 -123l-31 243q132 10 185 66q34 36 47.5 107t13.5 219v577h-295v-772 h-311v772h-133z" />
<glyph unicode="ff" horiz-adv-x="1331" d="M29 772v229h133v15q0 209 114 323q108 111 306 111q68 0 133 -25l-43 -229q-40 14 -78 14q-123 0 -123 -178v-31h322v39q0 98 31.5 188t95.5 148q55 52 128.5 76.5t147.5 24.5q76 0 166 -21l-12 -239q-47 14 -101 14q-73 0 -109 -49.5t-36 -128.5v-52h201v-229h-199v-772 h-313v772h-320v-772h-311v772h-133z" />
<glyph unicode="ffi" horiz-adv-x="1841" d="M29 772v229h133v17q0 205 129 323q112 107 299 107q82 0 174 -33l-70 -225q-38 20 -88 20q-53 0 -92 -34q-43 -43 -43 -146v-29h328v41q0 205 143 320t379 115q75 0 152 -15t126 -39l-65 -233q-87 41 -205 41q-116 0 -168.5 -52.5t-52.5 -142.5v-35h608v-1001h-311v772 h-295v-772h-311v772h-326v-772h-311v772h-133z" />
<glyph unicode="ffl" horiz-adv-x="1841" d="M29 772v229h133v13q0 207 125 323q122 113 325 113q76 0 156 -29l-66 -227q-43 16 -92 16q-65 0 -94 -36q-45 -42 -45 -144v-29h328v43q0 88 40 175.5t111 144.5q142 113 381 113q227 0 385 -84v-1393h-311v1225q-38 20 -119 20q-89 0 -133.5 -56.5t-44.5 -148.5v-39h182 v-229h-180v-772h-311v772h-326v-772h-311v772h-133z" />
<glyph unicode=" "  horiz-adv-x="413" />
<glyph unicode="&#x09;" horiz-adv-x="413" />
<glyph unicode="&#xa0;" horiz-adv-x="413" />
<glyph unicode="!" horiz-adv-x="548" d="M90 164q0 83 51 134.5t133 51.5q81 0 131 -51t52 -135q0 -81 -50.5 -134t-132.5 -53h-4q-79 0 -129.5 53.5t-50.5 133.5zM113 1380h323l-45 -927h-233z" />
<glyph unicode="&#x22;" horiz-adv-x="813" d="M72 1417h276l-47 -555h-182zM465 1417h276l-47 -555h-182z" />
<glyph unicode="#" horiz-adv-x="1126" d="M76 367v188h198l33 231h-172v189h201l53 356h180l-51 -356h189l51 356h182l-51 -356h164v-189h-195l-31 -231h168v-188h-200l-52 -367h-184l53 367h-186l-51 -367h-185l54 367h-168zM457 555h188l31 231h-187z" />
<glyph unicode="$" horiz-adv-x="1136" d="M113 104l61 240q165 -90 340 -90q90 0 144.5 34t54.5 93q0 58 -51 98.5t-168 79.5q-180 61 -274.5 148t-94.5 227q0 138 91.5 236t254.5 128v195h201v-180q161 -5 299 -68l-62 -231q-145 71 -295 71q-92 0 -134 -33.5t-42 -82.5q0 -48 56.5 -87t191.5 -87 q182 -64 261 -154.5t79 -230.5q0 -141 -95 -245t-267 -132v-211h-203v194q-98 4 -192 29t-156 59z" />
<glyph unicode="%" horiz-adv-x="1802" d="M55 936q0 182 103 300t272 118q166 0 261 -110.5t95 -285.5q0 -101 -30 -183.5t-81.5 -134.5t-117.5 -80t-139 -28q-157 0 -260 110t-103 294zM287 942q-2 -107 34.5 -173.5t102.5 -66.5q65 0 98 63t33 179q0 109 -32.5 174.5t-102.5 65.5q-66 0 -99.5 -67.5 t-33.5 -174.5zM432 -23l766 1375h166l-764 -1375h-168zM1016 383q0 181 102.5 299.5t270.5 118.5q166 0 261 -110t95 -285q0 -100 -30.5 -182t-82 -134t-117.5 -80t-139 -28q-155 0 -257.5 109t-102.5 292zM1247 391q-2 -107 34 -173t101 -66t98 62.5t33 176.5 q0 109 -32.5 174.5t-100.5 65.5q-66 0 -99.5 -67t-33.5 -173z" />
<glyph unicode="&#x26;" horiz-adv-x="1388" d="M63 369q0 257 263 397v6q-47 54 -77 125t-30 143q0 67 27 131t77 116.5t132 85t182 32.5q163 0 268 -88.5t105 -235.5q0 -219 -273 -354l-2 -8q25 -28 76 -86.5t88.5 -100.5t67.5 -73q87 139 116 338h279q-59 -339 -229 -525q143 -165 243 -272h-362q-56 60 -90 98 q-156 -121 -379 -121q-121 0 -215.5 33.5t-151.5 90t-86 125t-29 143.5zM358 420q0 -92 64 -154.5t170 -62.5q113 0 186 69q-38 38 -84.5 88.5t-122 134.5t-104.5 117q-109 -82 -109 -192zM500 1069q0 -100 96 -199q79 53 114 99t35 104q0 55 -31 96t-87 41h-4 q-57 0 -90 -41.5t-33 -99.5z" />
<glyph unicode="'" horiz-adv-x="419" d="M72 1417h276l-47 -555h-182z" />
<glyph unicode="(" horiz-adv-x="643" d="M123 586q1 143 21.5 273.5t55.5 233t73 179.5t83 143h217q-206 -337 -206 -829q0 -480 206 -826h-217q-62 91 -110 197.5t-85.5 275.5t-37.5 353z" />
<glyph unicode=")" horiz-adv-x="643" d="M72 -240q207 342 207 830q0 483 -207 825h217q233 -338 233 -827q-2 -485 -233 -828h-217z" />
<glyph unicode="*" horiz-adv-x="929" d="M61 893v207l320 -66v4l-215 260l182 107l113 -318h4l119 318l178 -105l-219 -262v-4l327 66v-207l-329 55v-4l221 -254l-180 -104l-119 315h-4l-117 -315l-176 104l219 256l-2 4z" />
<glyph unicode="+" horiz-adv-x="1220" d="M82 453v190h428v447h201v-447h428v-190h-428v-453h-201v453h-428z" />
<glyph unicode="," horiz-adv-x="532" d="M2 -244q104 287 150 582l317 20q-112 -345 -258 -583z" />
<glyph unicode="-" horiz-adv-x="659" d="M61 434v207h537v-207h-537z" />
<glyph unicode="." horiz-adv-x="532" d="M102 166q0 85 51.5 137.5t133.5 52.5q80 0 130.5 -52t51.5 -138q0 -83 -51 -136t-135 -53q-78 0 -129.5 53.5t-51.5 135.5z" />
<glyph unicode="/" horiz-adv-x="677" d="M33 -80l438 1485h207l-438 -1485h-207z" />
<glyph unicode="0" horiz-adv-x="1136" d="M68 664q0 148 31 271.5t92 218t158.5 147.5t223.5 53q103 0 187 -36t141 -98.5t95 -150t55.5 -186.5t17.5 -211q0 -208 -54.5 -362.5t-169.5 -243.5t-280 -89q-125 0 -221.5 54t-155.5 149t-89 217t-31 267zM379 664q0 -224 50.5 -337.5t141.5 -113.5t139 114.5t48 340.5 q0 450 -189 450q-88 0 -139 -114t-51 -340z" />
<glyph unicode="1" horiz-adv-x="1136" d="M174 1167l354 164h256v-1331h-301v1055h-4l-254 -121z" />
<glyph unicode="2" horiz-adv-x="1136" d="M88 0v188l170 154q120 107 193 178.5t132.5 143t84.5 129.5t26 116q0 87 -53.5 141t-163.5 54q-134 0 -284 -109l-89 222q78 61 193 99t242 38q221 0 344 -115t123 -301q0 -81 -26.5 -159t-79 -150.5t-110.5 -133.5t-139 -133l-123 -102v-4h504v-256h-944z" />
<glyph unicode="3" horiz-adv-x="1136" d="M78 70l63 235q53 -30 139 -56t171 -26q117 0 180 49.5t63 126.5q0 94 -78 143.5t-190 49.5h-127v223h123q57 0 107.5 14t89 50.5t38.5 89.5q0 63 -50 101t-146 38q-74 0 -151.5 -25t-125.5 -55l-63 225q66 42 177 71.5t234 29.5q205 0 323 -95t118 -237 q0 -108 -61.5 -188.5t-182.5 -120.5v-4q125 -23 207 -110.5t82 -215.5q0 -178 -148 -292t-397 -114q-121 0 -225.5 27t-169.5 66z" />
<glyph unicode="4" horiz-adv-x="1136" d="M47 317v203l502 811h383v-780h158v-234h-158v-317h-295v317h-590zM336 551h301v295q0 76 8 248h-6q-110 -220 -125 -248l-176 -291z" />
<glyph unicode="5" horiz-adv-x="1136" d="M86 53l57 234q50 -25 133 -45.5t166 -20.5q68 0 126.5 20.5t99.5 68t41 114.5q0 221 -375 221q-98 0 -178 -12l86 698h733v-256h-516l-29 -205q29 4 86 4q220 0 350 -96q162 -110 162 -334q0 -93 -39.5 -177.5t-111 -149t-180.5 -102.5t-240 -38q-114 0 -212 22t-159 54z " />
<glyph unicode="6" horiz-adv-x="1136" d="M61 559q0 183 63 336.5t175 257.5q195 180 512 195q61 6 125 2v-240q-42 2 -121 -4q-100 -8 -178.5 -37t-129.5 -73.5t-81.5 -96t-44.5 -111.5h6q105 105 283 105q174 0 292.5 -117t118.5 -317q0 -131 -61.5 -241t-174.5 -175.5t-253 -65.5q-130 0 -232.5 46t-167 126.5 t-98 184.5t-33.5 225zM371 475q5 -114 60.5 -191t156.5 -77q81 0 129.5 66t48.5 169q0 98 -52 164t-147 66q-61 0 -110.5 -33t-71.5 -84q-14 -25 -14 -80z" />
<glyph unicode="7" horiz-adv-x="1136" d="M100 1075v256h940v-196l-548 -1135h-330l549 1071v4h-611z" />
<glyph unicode="8" horiz-adv-x="1136" d="M66 348q0 117 62.5 201t174.5 133v4q-95 50 -143.5 126.5t-48.5 166.5q0 167 133.5 271t335.5 104q90 0 165 -20t125 -53.5t84.5 -78t50 -92.5t15.5 -98q0 -90 -49.5 -167.5t-145.5 -125.5v-6q107 -40 176.5 -125t69.5 -205q0 -182 -140.5 -294t-371.5 -112 q-122 0 -219 32.5t-155 86t-88.5 118t-30.5 134.5zM383 379q-2 -75 50.5 -130.5t137.5 -55.5q81 0 132 47t51 118q0 84 -56.5 139t-152.5 81q-76 -22 -119 -74.5t-43 -124.5zM406 989q0 -122 186 -180q56 16 95.5 62.5t39.5 105.5q0 70 -40.5 118t-121.5 48 q-76 0 -117.5 -44.5t-41.5 -109.5z" />
<glyph unicode="9" horiz-adv-x="1136" d="M61 874q0 97 37.5 184.5t103 153t160 104t201.5 38.5q125 0 222.5 -45.5t158 -125t92 -182t31.5 -221.5q0 -397 -233 -614q-190 -172 -510 -184q-60 -5 -142 0v241q34 -3 135 0q160 10 263 82q131 88 168 248l-5 2q-93 -96 -268 -96t-294.5 113t-119.5 302zM371 893 q0 -91 49 -152t139 -61q61 0 106 24t68 62q15 30 15 80q1 75 -17.5 136t-64.5 102.5t-115 41.5q-79 0 -129.5 -65t-50.5 -168z" />
<glyph unicode=":" horiz-adv-x="532" d="M104 164q0 83 51.5 135.5t131.5 52.5q81 0 130.5 -51.5t51.5 -136.5q0 -81 -50.5 -134t-133.5 -53q-79 0 -130 53.5t-51 133.5zM104 825q0 83 51.5 136t131.5 53q81 0 130.5 -52t51.5 -137q0 -81 -50.5 -133.5t-133.5 -52.5q-79 0 -130 53t-51 133z" />
<glyph unicode=";" horiz-adv-x="532" d="M4 -244q104 287 150 582l313 20q-104 -330 -256 -583zM115 825q0 83 51 136t131 53q81 0 130.5 -52t51.5 -137q0 -81 -50.5 -133.5t-133.5 -52.5q-79 0 -129.5 53t-50.5 133z" />
<glyph unicode="&#x3c;" horiz-adv-x="1220" d="M119 457v176l985 457v-218l-746 -325v-4l746 -326v-217z" />
<glyph unicode="=" horiz-adv-x="1220" d="M82 242v190h1057v-190h-1057zM82 666v190h1057v-190h-1057z" />
<glyph unicode="&#x3e;" horiz-adv-x="1220" d="M117 0v217l762 326v4l-762 325v218l985 -451v-188z" />
<glyph unicode="?" horiz-adv-x="911" d="M98 1321q148 84 342 84q192 0 294 -91.5t102 -228.5q0 -45 -12.5 -89.5t-25.5 -72.5t-45 -70.5t-44 -56t-50 -55.5q-107 -121 -104 -256v-36h-272l-2 53q-10 166 120 319q61 74 90 121.5t29 93.5q0 56 -37.5 89t-111.5 34q-51 0 -107.5 -16.5t-95.5 -44.5zM229 164 q0 83 51.5 134.5t131.5 51.5q83 0 132.5 -51t51.5 -135q0 -81 -50.5 -134t-133.5 -53q-81 0 -132 53.5t-51 133.5z" />
<glyph unicode="@" horiz-adv-x="1576" d="M102 432q0 156 55.5 298t154 249t243 170t313.5 63q271 0 446 -166.5t175 -424.5q0 -222 -110 -356t-279 -134q-74 0 -121.5 40.5t-54.5 117.5h-4q-102 -158 -267 -158q-101 0 -165 72.5t-64 195.5q0 127 57.5 235t169 175.5t254.5 67.5q66 0 135.5 -14.5t108.5 -35.5 l-62 -381q-15 -91 -3 -134t55 -44q74 -3 136 88.5t62 257.5q0 208 -129 340.5t-360 132.5q-118 0 -224.5 -45t-187.5 -125t-128.5 -201.5t-47.5 -264.5q0 -253 144 -395t378 -142q173 0 299 63l37 -116q-91 -41 -178 -57.5t-199 -16.5q-128 0 -243.5 45t-203.5 126.5 t-140 204.5t-52 269zM631 424q0 -60 26 -93.5t76 -33.5q57 0 109 63t65 152l29 195q-32 8 -64 8q-101 0 -171 -86t-70 -205z" />
<glyph unicode="A" horiz-adv-x="1343" d="M37 0l420 1380h409l430 -1380h-338l-106 354h-395l-99 -354h-321zM502 588h305l-86 293q-26 84 -70 266h-4q-5 -19 -27.5 -119t-35.5 -147z" />
<glyph unicode="B" horiz-adv-x="1236" d="M135 6v1356q170 29 404 29q146 0 240 -17.5t169 -60.5q75 -40 119.5 -110.5t44.5 -162.5q0 -95 -57 -172t-170 -120v-5q123 -32 198.5 -120.5t75.5 -216.5q0 -179 -143 -295q-156 -125 -543 -125q-198 0 -338 20zM444 221q31 -4 121 -4q116 0 191 49.5t75 151.5 q0 66 -38.5 110t-99.5 63t-142 19h-107v-389zM444 834h103q122 0 187 46t65 124t-57.5 118.5t-163.5 40.5q-84 0 -134 -8v-321z" />
<glyph unicode="C" horiz-adv-x="1218" d="M72 670q0 138 38 256.5t106.5 205t162.5 147.5t207 91.5t239 30.5q114 0 204 -18t136 -44l-65 -245q-115 51 -262 51q-194 0 -316.5 -118t-122.5 -339q0 -208 117.5 -329t323.5 -121q157 0 262 45l45 -246q-48 -23 -143 -41.5t-209 -18.5q-175 0 -313.5 53t-227.5 146.5 t-135.5 219t-46.5 274.5z" />
<glyph unicode="D" horiz-adv-x="1425" d="M135 6v1354q198 31 420 31q194 0 330.5 -36.5t236.5 -111.5q234 -173 234 -520q0 -362 -228 -559q-213 -178 -639 -178q-202 0 -354 20zM446 236q31 -7 109 -7h7q214 1 338 121q126 122 126 363q0 212 -116 325t-322 113q-88 0 -142 -12v-903z" />
<glyph unicode="E" horiz-adv-x="1093" d="M137 0v1380h850v-256h-538v-286h507v-254h-507v-328h567v-256h-879z" />
<glyph unicode="F" horiz-adv-x="1079" d="M137 0v1380h842v-256h-530v-315h495v-254h-495v-555h-312z" />
<glyph unicode="G" horiz-adv-x="1396" d="M72 674q1 224 104 389t279.5 248.5t404.5 83.5q123 0 223.5 -19.5t159.5 -46.5l-65 -252q-130 60 -320 60q-204 0 -331.5 -115t-127.5 -332q0 -211 120.5 -331.5t316.5 -120.5q106 0 151 18v291h-213v244h514v-728q-87 -30 -212 -53.5t-249 -23.5q-368 0 -561 184 q-94 91 -144 221.5t-50 282.5z" />
<glyph unicode="H" horiz-adv-x="1411" d="M137 0v1380h312v-530h514v530h311v-1380h-311v578h-514v-578h-312z" />
<glyph unicode="I" horiz-adv-x="583" d="M137 0v1380h312v-1380h-312z" />
<glyph unicode="J" horiz-adv-x="841" d="M-2 10l35 252q74 -24 160 -24q106 0 159.5 60.5t53.5 211.5v870h311v-872q0 -283 -126 -407t-364 -124q-128 0 -229 33z" />
<glyph unicode="K" horiz-adv-x="1257" d="M135 0v1380h309v-610h5q42 72 96 152l311 458h385l-457 -587l480 -793h-363l-340 596l-117 -145v-451h-309z" />
<glyph unicode="L" horiz-adv-x="1046" d="M137 0v1380h312v-1118h548v-262h-860z" />
<glyph unicode="M" horiz-adv-x="1732" d="M104 0l89 1380h415l135 -460q70 -250 117 -494h8q64 276 131 496l146 458h409l74 -1380h-303l-22 528q-13 360 -13 568h-4q-68 -266 -156 -535l-167 -538h-244l-148 532q-68 248 -125 541h-4q-10 -323 -22 -572l-27 -524h-289z" />
<glyph unicode="N" horiz-adv-x="1413" d="M135 0v1380h365l286 -506q122 -216 226 -473h4q-25 253 -25 578v401h287v-1380h-328l-295 532q-149 267 -239 488h-8q14 -258 14 -604v-416h-287z" />
<glyph unicode="O" horiz-adv-x="1468" d="M72 682q0 206 82 370t236 258.5t353 94.5q155 0 281 -55.5t207 -151t124.5 -222t43.5 -271.5q0 -338 -185 -533t-493 -195q-199 0 -348 94.5t-225 253t-76 357.5zM401 688q0 -207 90.5 -335t245.5 -128q103 0 179 61.5t114.5 167t38.5 240.5q0 127 -37.5 231t-114 168 t-180.5 64q-156 0 -246 -131.5t-90 -337.5z" />
<glyph unicode="P" horiz-adv-x="1189" d="M135 0v1362q174 29 422 29q284 0 422 -111q69 -54 108 -136.5t39 -182.5q0 -213 -127 -328q-158 -146 -448 -146q-63 0 -107 9v-496h-309zM444 735q36 -8 105 -8q125 0 196.5 59.5t71.5 163.5q0 96 -64 149.5t-182 53.5q-89 0 -127 -10v-408z" />
<glyph unicode="Q" horiz-adv-x="1468" d="M72 680q0 155 48 288.5t134.5 230t214 151.5t279.5 55q153 0 278 -55.5t205.5 -151.5t124 -222t43.5 -269q0 -225 -92 -388.5t-234 -228.5v-8q149 -44 332 -78l-88 -242q-239 69 -547 195q-43 17 -94 20q-120 8 -227 55.5t-192 132.5t-135 218t-50 297zM401 688 q0 -132 39.5 -236t116.5 -165.5t180 -61.5q155 0 243.5 130.5t88.5 338.5q0 198 -89 330.5t-243 132.5q-155 0 -245.5 -133.5t-90.5 -335.5z" />
<glyph unicode="R" horiz-adv-x="1214" d="M135 0v1362q181 29 416 29q309 0 446 -109q129 -101 129 -291q0 -122 -72 -212t-171 -126v-6q128 -52 184 -256q12 -43 39 -149.5t43.5 -162t28.5 -79.5h-320q-38 78 -94 322q-19 87 -48 134.5t-70.5 66.5t-108.5 20h-93v-543h-309zM444 768h123q116 0 182 53.5t66 145.5 q0 93 -60 141.5t-169 48.5q-104 0 -142 -10v-379z" />
<glyph unicode="S" horiz-adv-x="1105" d="M82 66l63 256q69 -36 161.5 -61t185.5 -25q105 0 162 40t57 109q0 64 -52.5 107t-179.5 86q-381 136 -381 409q0 181 142.5 297.5t380.5 116.5q205 0 352 -70l-70 -250q-130 66 -287 66q-96 0 -148 -38.5t-52 -94.5q0 -62 55 -101t201 -94q184 -68 270 -166.5t86 -244.5 q0 -88 -34 -164.5t-100.5 -136t-174.5 -93.5t-246 -34q-112 0 -219.5 25.5t-171.5 60.5z" />
<glyph unicode="T" horiz-adv-x="1122" d="M31 1118v262h1061v-262h-377v-1118h-312v1118h-372z" />
<glyph unicode="U" horiz-adv-x="1396" d="M135 610v770h311v-792q0 -178 65 -269.5t185 -91.5q254 0 254 361v792h312v-774q0 -314 -150 -471.5t-426 -157.5q-267 0 -409 155.5t-142 477.5z" />
<glyph unicode="V" horiz-adv-x="1302" d="M18 1380h342l168 -583q88 -309 123 -494h6q49 233 125 488l176 589h332l-465 -1380h-364z" />
<glyph unicode="W" horiz-adv-x="1818" d="M31 1380h334l104 -567q18 -98 82 -483h4q28 181 90 487l117 563h332l110 -581q43 -226 74 -463h4q12 90 80 481l113 563h317l-356 -1380h-338l-117 594q-48 246 -66 426h-4q-44 -274 -80 -426l-131 -594h-342z" />
<glyph unicode="X" horiz-adv-x="1255" d="M33 0l399 698l-385 682h359l120 -252q61 -125 105 -229h4q37 99 94 229l117 252h356l-389 -673l410 -707h-361l-125 250q-25 48 -123 248h-4q-28 -78 -108 -248l-113 -250h-356z" />
<glyph unicode="Y" horiz-adv-x="1234" d="M18 1380h359l139 -331q67 -155 107 -265h4q43 119 104 265l139 331h351l-455 -805v-575h-311v565z" />
<glyph unicode="Z" horiz-adv-x="1181" d="M49 0v168l658 946v8h-598v258h1001v-180l-643 -934v-8h653v-258h-1071z" />
<glyph unicode="[" horiz-adv-x="643" d="M139 -229v1634h418v-172h-195v-1290h195v-172h-418z" />
<glyph unicode="\" horiz-adv-x="675" d="M25 1405h206l412 -1485h-207z" />
<glyph unicode="]" horiz-adv-x="643" d="M86 -57h195v1290h-195v172h418v-1634h-418v172z" />
<glyph unicode="^" horiz-adv-x="1220" d="M88 362l428 969h191l428 -969h-224l-299 730h-6l-299 -730h-219z" />
<glyph unicode="_" horiz-adv-x="1024" d="M0 -154h1024v-102h-1024v102z" />
<glyph unicode="`" d="M8 1438h287l176 -312h-213z" />
<glyph unicode="a" horiz-adv-x="1081" d="M59 285q0 190 157 286.5t431 96.5v12q0 53 -39.5 92t-142.5 39q-73 0 -149 -22t-128 -54l-57 201q162 90 389 90q121 0 208.5 -33.5t136.5 -95t71 -136.5t22 -169v-350q0 -164 17 -242h-281l-18 100h-6q-101 -123 -287 -123q-146 0 -235 91t-89 217zM367 315 q0 -58 33.5 -88t88.5 -30q56 0 101.5 33t60.5 81q6 24 6 54v108q-290 0 -290 -158z" />
<glyph unicode="b" horiz-adv-x="1224" d="M117 0q8 132 8 299v1155h311v-571h4q45 66 123 103.5t180 37.5q181 0 297 -139q115 -138 115 -363q0 -134 -39 -239.5t-104 -171t-145.5 -100t-168.5 -34.5q-206 0 -301 162h-4l-12 -139h-264zM436 426q0 -31 6 -55q15 -63 66 -105.5t117 -42.5q100 0 157.5 74.5 t57.5 208.5q0 123 -55 200.5t-160 77.5q-64 0 -116 -43t-67 -110q-6 -27 -6 -58v-147z" />
<glyph unicode="c" horiz-adv-x="923" d="M68 492q0 111 37.5 207t108.5 168.5t181 114.5t246 42q135 0 238 -39l-50 -231q-69 30 -174 30q-122 0 -196 -78q-72 -76 -72 -196v-6q0 -132 78 -206.5t197 -74.5q100 0 178 33l37 -229q-96 -47 -279 -47q-243 0 -386.5 138.5t-143.5 373.5z" />
<glyph unicode="d" horiz-adv-x="1220" d="M68 496q0 241 130 385q130 145 318 145q92 0 160.5 -30.5t103.5 -82.5h4v541h312v-1155q0 -163 8 -299h-277l-12 145h-6q-45 -81 -129 -124.5t-184 -43.5q-182 0 -305 143t-123 376zM383 502q0 -127 58 -202t155 -75q67 0 117.5 42t64.5 108q6 35 6 71v132q0 39 -4 57 q-14 64 -63.5 107.5t-118.5 43.5q-103 0 -159 -80t-56 -204z" />
<glyph unicode="e" horiz-adv-x="1081" d="M68 489q0 98 31 191t90.5 171t159 125.5t224.5 47.5q94 0 170.5 -28.5t127 -76t85 -112.5t49.5 -135.5t15 -147.5q0 -66 -10 -123h-645q6 -92 86 -141t196 -49q152 0 277 43l41 -211q-149 -63 -363 -63q-253 0 -393.5 136t-140.5 373zM362 614h369q0 32 -8 64t-26 65 t-54.5 53.5t-87.5 20.5q-47 0 -84 -19.5t-59 -51.5t-34.5 -65.5t-15.5 -66.5z" />
<glyph unicode="f" horiz-adv-x="698" d="M29 772v229h133v39q0 97 31 187.5t94 148.5q109 101 278 101q74 0 164 -21l-12 -239q-47 14 -101 14q-73 0 -109 -49.5t-36 -128.5v-52h201v-229h-199v-772h-311v772h-133z" />
<glyph unicode="g" horiz-adv-x="1198" d="M68 496q0 119 36 219t98 167t144.5 104.5t175.5 37.5q188 0 275 -143h4l10 120h270q-8 -132 -8 -299v-557q0 -317 -153 -450q-143 -123 -406 -123q-220 0 -360 76l61 237q53 -31 130.5 -53t160.5 -22q117 0 188.5 65.5t71.5 198.5v63h-4q-44 -62 -114 -95.5t-156 -33.5 q-186 0 -305 136.5t-119 351.5zM383 504q0 -116 54.5 -191t148.5 -75q61 0 106 34.5t60 89.5q10 31 10 84v148q0 30 -6 57q-18 63 -61.5 100t-106.5 37q-89 0 -147 -75.5t-58 -208.5z" />
<glyph unicode="h" horiz-adv-x="1200" d="M125 0v1454h311v-573h4q48 66 123 104q73 39 162 39q157 0 253.5 -111t96.5 -329v-584h-311v551q0 221 -162 221q-57 0 -97 -31.5t-59 -78.5q-10 -22 -10 -68v-594h-311z" />
<glyph unicode="i" horiz-adv-x="561" d="M117 1280q0 67 46 111.5t120 44.5q73 0 117 -44t46 -112q0 -67 -45.5 -111.5t-121.5 -44.5q-72 0 -117 45t-45 111zM125 0v1001h311v-1001h-311z" />
<glyph unicode="j" horiz-adv-x="595" d="M-80 -197q131 10 184 66q34 36 48 107.5t14 218.5v806h311v-882q0 -160 -34.5 -265t-106.5 -171q-132 -123 -385 -123zM156 1280q0 67 46 111.5t120 44.5q73 0 117 -44t46 -112q0 -66 -46 -111t-122 -45q-72 0 -116.5 45t-44.5 111z" />
<glyph unicode="k" horiz-adv-x="1110" d="M125 0v1454h311v-874h4q34 64 72 120l203 301h375l-359 -405l410 -596h-383l-244 412l-78 -99v-313h-311z" />
<glyph unicode="l" horiz-adv-x="563" d="M125 0v1454h311v-1454h-311z" />
<glyph unicode="m" horiz-adv-x="1761" d="M117 1001h264l12 -135h6q104 160 303 160q97 0 169.5 -46.5t105.5 -125.5h4q59 81 131 123q87 49 191 49q152 0 244.5 -109.5t92.5 -326.5v-590h-303v545q0 229 -147 229q-53 0 -90 -30t-56 -78q-10 -38 -10 -80v-586h-303v563q0 98 -36.5 154.5t-108.5 56.5 q-55 0 -92.5 -33t-53.5 -77q-12 -30 -12 -80v-584h-303v682q0 139 -8 319z" />
<glyph unicode="n" horiz-adv-x="1200" d="M117 1001h270l14 -139h7q39 63 117.5 112.5t191.5 49.5q161 0 259.5 -109.5t98.5 -322.5v-592h-311v555q0 217 -158 217q-59 0 -99.5 -34t-60.5 -83q-10 -25 -10 -77v-578h-311v682q0 139 -8 319z" />
<glyph unicode="o" horiz-adv-x="1181" d="M68 494q0 244 146 388t390 144q228 0 369 -143t141 -371q0 -133 -44.5 -237.5t-119.5 -168t-168 -96.5t-196 -33q-226 0 -372 140t-146 377zM389 502q0 -133 54 -217t151 -84q92 0 145.5 83t53.5 220q0 78 -19.5 143.5t-66 110.5t-113.5 45q-70 0 -118 -46t-67.5 -111.5 t-19.5 -143.5z" />
<glyph unicode="p" horiz-adv-x="1224" d="M117 1001h270l14 -139h5q115 162 333 162q82 0 157 -35.5t133 -99.5t92 -161.5t34 -213.5q0 -132 -39.5 -237t-105 -169t-145 -97.5t-165.5 -33.5q-88 0 -156.5 32t-103.5 83h-4v-498h-311v1072q0 147 -8 335zM436 430q0 -35 6 -65q15 -64 66 -106t117 -42 q100 0 157.5 77t57.5 206q0 125 -55 202.5t-156 77.5q-66 0 -119 -44t-68 -113q-6 -24 -6 -56v-137z" />
<glyph unicode="q" horiz-adv-x="1218" d="M68 487q0 105 25.5 194t68.5 151.5t99.5 107t120 65.5t128.5 21q196 0 281 -141l4 -2l8 118h299q-6 -294 -6 -301v-1106h-312v533h-4q-98 -150 -299 -150q-170 0 -291.5 140.5t-121.5 369.5zM383 500q0 -125 57.5 -201t155.5 -76q65 0 115 40t65 102q8 27 8 67v150 q0 27 -6 51q-13 63 -62 106t-118 43q-103 0 -159 -78t-56 -204z" />
<glyph unicode="r" horiz-adv-x="778" d="M117 1001h266l12 -184h8q36 103 112.5 156t158.5 53q30 0 65 -6v-293q-50 8 -84 8q-85 0 -141.5 -42t-71.5 -115q-6 -30 -6 -70v-508h-311v672q0 214 -8 329z" />
<glyph unicode="s" horiz-adv-x="888" d="M68 49l55 221q46 -28 124 -50.5t144 -22.5q133 0 133 82q0 40 -29.5 63.5t-115.5 52.5q-149 50 -219 128q-68 76 -68 168v5q0 143 112.5 236.5t295.5 93.5q164 0 280 -59l-53 -215q-40 22 -99.5 39.5t-117.5 17.5q-56 0 -87.5 -21.5t-31.5 -58.5q0 -36 34 -60t128 -57 q140 -49 204 -124t66 -185q0 -146 -111.5 -236t-320.5 -90q-190 0 -323 72z" />
<glyph unicode="t" horiz-adv-x="751" d="M35 772v229h133v187l305 84v-271h223v-229h-223v-362q0 -93 28 -135t95 -42q48 0 92 9l2 -236q-72 -26 -201 -26q-149 0 -235 86q-86 89 -86 296v410h-133z" />
<glyph unicode="u" horiz-adv-x="1193" d="M121 414v587h311v-538q0 -234 158 -234q59 0 99 33t56 76q13 29 13 68v595h311v-679q0 -154 8 -322h-270l-14 141h-7q-17 -27 -41 -52t-61.5 -52t-92 -43.5t-118.5 -16.5q-162 0 -257 107.5t-95 329.5z" />
<glyph unicode="v" horiz-adv-x="1085" d="M18 1001h338l136 -464q26 -90 57 -244h6q28 142 55 244l129 464h328l-373 -1001h-311z" />
<glyph unicode="w" horiz-adv-x="1554" d="M23 1001h317l82 -411q44 -251 55 -328h6q8 52 19 103.5t30.5 130t22.5 92.5l107 413h245l101 -399q52 -207 73 -340h4q19 153 60 342l84 397h305l-307 -1001h-291l-94 350q-38 136 -66 314h-4q-25 -171 -63 -312l-101 -352h-293z" />
<glyph unicode="x" horiz-adv-x="1062" d="M6 0l340 510l-332 491h348l99 -167q17 -30 45.5 -83t36.5 -67h4q56 114 78 154l88 163h338l-330 -477l334 -524h-353l-100 180q-20 34 -78 152h-6q-19 -40 -76 -152l-94 -180h-342z" />
<glyph unicode="y" horiz-adv-x="1071" d="M12 1001h346l150 -493q36 -127 49 -186h8q18 84 43 188l125 491h332l-234 -659q-103 -287 -183 -432.5t-169 -224.5q-137 -121 -299 -138l-67 263q66 14 135 53q35 19 71 53.5t58 71.5q16 26 16 45q0 21 -12 51z" />
<glyph unicode="z" horiz-adv-x="960" d="M45 0v178l315 395q88 102 158 177v4h-438v247h819v-188l-301 -379q-13 -14 -40 -45.5t-42.5 -49.5t-38.5 -43t-43 -44v-4h481v-248h-870z" />
<glyph unicode="{" horiz-adv-x="643" d="M61 510v156q49 2 82 15t48 35.5t20 42.5t6 48q0 23 -10 160q-12 110 -12 161q0 140 81.5 208.5t229.5 68.5h72v-174h-37q-67 -1 -96 -38t-29 -108q0 -44 10 -116q10 -103 10 -142q1 -111 -42 -164t-134 -73v-4q91 -18 134 -72t42 -166q0 -36 -10 -143q-10 -68 -10 -115 q0 -71 28.5 -108.5t96.5 -38.5h37v-172h-74q-309 0 -309 278q0 52 12 162q10 137 10 160q0 26 -5 46t-19.5 42t-48 35.5t-83.5 15.5z" />
<glyph unicode="|" horiz-adv-x="579" d="M180 -512v2048h217v-2048h-217z" />
<glyph unicode="}" horiz-adv-x="643" d="M66 -57h36q68 1 96.5 38.5t28.5 108.5q0 47 -10 115q-10 107 -10 143q-1 112 42 166t134 72v4q-91 20 -134 73t-42 164q0 40 10 142q10 72 10 116q0 71 -29 108t-96 38h-36v174h71q148 0 230 -68.5t82 -208.5q0 -10 -11 -161q-12 -110 -12 -160q0 -27 5 -47.5t19.5 -43 t48 -35.5t83.5 -15v-156q-49 -2 -82 -15.5t-48 -36t-20 -42t-6 -45.5q0 -50 12 -160q11 -151 11 -162q0 -278 -310 -278h-73v172z" />
<glyph unicode="~" horiz-adv-x="1220" d="M88 393q-1 196 76 289.5t209 93.5q70 0 128.5 -21.5t157.5 -74.5q80 -45 121 -63.5t76 -18.5q77 0 82 166h195q8 -204 -67.5 -294.5t-205.5 -90.5q-69 0 -132 22.5t-155 73.5q-58 34 -82.5 47.5t-56.5 26t-55 12.5q-42 0 -66 -37t-30 -131h-195z" />
<glyph unicode="&#xa1;" horiz-adv-x="548" d="M92 825q0 82 51 134.5t131 52.5h5q79 0 129.5 -52.5t50.5 -134.5q-2 -83 -51.5 -134.5t-131.5 -51.5q-83 0 -133.5 52t-50.5 134zM113 -391l45 926h233l45 -926h-323z" />
<glyph unicode="&#xa2;" horiz-adv-x="1136" d="M154 672q0 124 47 229.5t142.5 180.5t227.5 100v196h201v-186q105 -3 195 -41l-49 -229q-67 36 -183 36q-121 0 -192.5 -75.5t-71.5 -200.5q0 -131 76 -202.5t190 -71.5q108 0 203 36l37 -225q-81 -38 -205 -47v-197h-201v203q-187 26 -305 156q-112 131 -112 338z" />
<glyph unicode="&#xa3;" horiz-adv-x="1136" d="M104 0v166q90 37 159 120t69 181q0 55 -4 82h-201v213h164q-17 87 -17 166q0 192 128 309t335 117q152 0 240 -49l-49 -236q-66 37 -174 37q-101 0 -146 -54.5t-45 -138.5q0 -62 21 -151h280v-213h-254q3 -75 -18 -146q-29 -83 -100 -145v-4h546v-254h-934z" />
<glyph unicode="&#xa4;" horiz-adv-x="1136" d="M37 1083l137 142l158 -174q93 75 237 75q143 0 238 -73l156 172l137 -140l-178 -159q65 -111 65 -238q0 -147 -72 -246l175 -166l-136 -137l-149 180q-46 -39 -111 -60t-129 -21q-66 0 -130 20t-107 57l-148 -176l-133 137l170 162q-74 102 -74 244q0 135 72 244z M377 684q0 -113 58 -175.5t130 -62.5q76 0 132.5 62t56.5 178q0 101 -53.5 166.5t-137.5 65.5q-79 0 -132.5 -65t-53.5 -169z" />
<glyph unicode="&#xa5;" horiz-adv-x="1136" d="M4 1331h334l143 -327q17 -37 31 -73.5t31 -84t24 -66.5h4q6 14 36.5 96.5t51.5 129.5l146 325h328l-351 -581h244v-146h-321v-131h321v-145h-321v-328h-293v328h-320v145h320v131h-320v146h246z" />
<glyph unicode="&#xa6;" horiz-adv-x="579" d="M180 356h217v-716h-217v716zM180 664v716h217v-716h-217z" />
<glyph unicode="&#xa7;" horiz-adv-x="1148" d="M92 647q0 72 44 141.5t126 108.5q-34 28 -58 79.5t-24 106.5q0 150 126.5 234t322.5 84q185 0 321 -62l-49 -188q-120 57 -270 57q-88 0 -135 -26.5t-47 -71.5q0 -44 51.5 -75.5t167.5 -67.5q92 -28 155.5 -55.5t120.5 -69t85 -100t28 -134.5q0 -153 -148 -248 q36 -28 63 -77.5t27 -112.5q0 -72 -29.5 -130t-75.5 -94t-107.5 -60t-121 -34t-120.5 -10q-240 0 -383 90l59 189q56 -32 141 -58t170 -26t135 26.5t50 77.5q0 50 -48.5 83t-168.5 71q-93 28 -157 55t-126 68.5t-93.5 98.5t-31.5 130zM334 700q0 -49 43 -87t135 -70 q34 -13 89.5 -31.5t93 -32t57.5 -24.5q28 17 44.5 46t16.5 60q0 93 -141 148q-30 12 -88.5 32.5t-103.5 37.5t-72 30q-74 -40 -74 -109z" />
<glyph unicode="&#xa8;" d="M-53 1284q0 61 42.5 102t104.5 41q59 0 99 -41t40 -102t-40 -103t-101 -42t-103 42.5t-42 102.5zM379 1284q0 62 41 102.5t104 40.5q60 0 101 -41t41 -102t-40.5 -103t-101.5 -42h-4q-60 0 -100.5 42.5t-40.5 102.5z" />
<glyph unicode="&#xa9;" horiz-adv-x="1386" d="M66 696q0 171 84 316.5t229.5 230t318.5 84.5q170 0 313.5 -84.5t226.5 -230t83 -316.5q0 -130 -49 -247.5t-132.5 -202.5t-199.5 -135t-244 -50q-129 0 -245.5 50t-201 135t-134 202.5t-49.5 247.5zM201 694q0 -106 39 -202t104.5 -164.5t157 -109t192.5 -40.5 q134 -1 247 67.5t179 187.5t66 261q0 141 -66 260t-179.5 187.5t-248.5 68.5q-134 0 -247 -68.5t-178.5 -187.5t-65.5 -260zM348 684q0 171 117 276t280 105q72 0 138.5 -17.5t87.5 -39.5l-31 -109q-27 15 -81.5 30t-113.5 15q-119 0 -186 -67t-67 -187q0 -113 69 -184.5 t182 -71.5q129 0 205 49l31 -104q-101 -66 -254 -66q-175 0 -276 104.5t-101 266.5z" />
<glyph unicode="&#xaa;" horiz-adv-x="774" d="M66 735q0 116 108.5 177t298.5 61v14q0 9 -4.5 20t-16.5 25t-39.5 23.5t-66.5 9.5q-107 0 -190 -51l-41 131q111 65 272 65q81 0 141 -23t94 -63.5t50 -90t16 -109.5v-219q0 -95 10 -160h-190l-14 67h-5q-83 -80 -204 -77q-99 0 -159 56.5t-60 143.5zM276 754 q0 -35 26 -57.5t65 -22.5q33 0 62.5 17.5t39.5 43.5q10 20 10 47v70q-90 2 -146.5 -22.5t-56.5 -75.5z" />
<glyph unicode="&#xab;" horiz-adv-x="952" d="M55 516l236 391h217l-244 -391l244 -389h-215zM453 516l235 391h217l-243 -391l243 -389h-217z" />
<glyph unicode="&#xac;" horiz-adv-x="1220" d="M82 674v190h1057v-647h-199v457h-858z" />
<glyph unicode="&#xad;" horiz-adv-x="595" d="M61 434v207h537v-207h-537z" />
<glyph unicode="&#xae;" horiz-adv-x="940" d="M106 1051q0 146 107.5 250t259.5 104t256.5 -103.5t104.5 -250.5q0 -148 -105 -251.5t-258 -103.5q-151 0 -258 104t-107 251zM215 1049q0 -110 73.5 -187.5t182.5 -77.5q109 -1 182.5 77t73.5 190q0 110 -73.5 188t-184.5 78q-108 0 -181 -78.5t-73 -189.5zM326 885v321 q75 13 143 13q89 0 131 -27q35 -21 35 -70q0 -24 -20.5 -44t-53.5 -29v-5q51 -15 66 -81q14 -64 22 -78h-110q-10 13 -25 69q-5 25 -17.5 36t-37.5 11h-33v-116h-100zM430 1069h29q61 0 61 39q0 41 -57 41q-7 0 -18.5 -1t-14.5 -1v-78z" />
<glyph unicode="&#xaf;" d="M53 1192v172h512v-172h-512z" />
<glyph unicode="&#xb0;" horiz-adv-x="729" d="M55 1100q-1 127 90.5 216t223.5 89q135 0 222 -87.5t87 -211.5q0 -131 -92 -218t-221 -87q-134 0 -222 86.5t-88 212.5zM219 1100q0 -66 42.5 -111t105.5 -45q64 0 105.5 45t41.5 113q0 66 -39.5 113t-109.5 47q-64 0 -105 -47.5t-41 -114.5z" />
<glyph unicode="&#xb1;" horiz-adv-x="1220" d="M82 0v190h1057v-190h-1057zM82 641v190h428v355h201v-355h428v-190h-428v-360h-201v360h-428z" />
<glyph unicode="&#xb2;" horiz-adv-x="720" d="M31 905v117l127 113q138 125 170 160q67 74 67 137q0 44 -32 71t-89 27q-93 0 -176 -57l-61 155q122 88 299 88q147 0 229 -70t82 -178q0 -43 -14 -83.5t-32 -70t-54.5 -66.5t-62 -59t-72.5 -61l-50 -41v-4h300v-178h-631z" />
<glyph unicode="&#xb3;" horiz-adv-x="710" d="M18 952l48 160q36 -20 92.5 -36.5t107.5 -16.5q63 0 104.5 26.5t41.5 67.5q0 48 -52 74t-127 28h-61v140h59q61 0 109.5 20.5t48.5 63.5q0 73 -108 73q-99 0 -185 -51l-45 150q47 28 124.5 46.5t162.5 18.5q142 0 218.5 -57t76.5 -146q0 -64 -46 -111.5t-122 -70.5v-4 q87 -9 143 -60.5t56 -127.5q0 -108 -101 -176t-268 -68q-82 0 -157 16t-120 41z" />
<glyph unicode="&#xb4;" d="M156 1126l176 312h286l-249 -312h-213z" />
<glyph unicode="&#xb5;" horiz-adv-x="1198" d="M125 -43v1044h311v-559q0 -103 38.5 -159t113.5 -56q56 0 100.5 34t61.5 77q10 20 10 65v598h311v-675q0 -63 20 -88t64 -27l-16 -215q-40 -19 -113 -19q-177 0 -225 160h-6q-28 -61 -93 -106t-155 -45q-88 0 -141 59v-86q0 -258 22 -365h-274q-29 71 -29 363z" />
<glyph unicode="&#xb6;" horiz-adv-x="1110" d="M66 924q-1 70 13.5 132t55.5 125t107 107.5t175.5 72.5t252.5 28q190 0 293 -23v-1462h-197v1292h-148v-1292h-196v637h-12q-47 0 -103.5 24t-111 68.5t-91.5 121t-38 169.5z" />
<glyph unicode="&#xb7;" horiz-adv-x="532" d="M84 530q0 85 51 138t133 53q80 0 131 -53t52 -138q0 -83 -51.5 -135.5t-135.5 -52.5q-78 0 -129 53t-51 135z" />
<glyph unicode="&#xb8;" d="M94 -377l41 115q58 -33 113 -33q30 0 50.5 13t20.5 40q0 63 -159 74l88 176h168l-56 -98q61 -8 104.5 -49t43.5 -101q0 -93 -70.5 -135.5t-179.5 -42.5q-97 0 -164 41z" />
<glyph unicode="&#xb9;" d="M45 1606l227 100h209v-799h-239v602h-2l-164 -71z" />
<glyph unicode="&#xba;" horiz-adv-x="790" d="M49 866q0 155 97 249.5t253 94.5q155 0 248.5 -93t93.5 -238q0 -164 -102.5 -254t-247.5 -90q-146 0 -244 91t-98 240zM268 870q0 -78 34.5 -131t92.5 -53q59 0 92 51.5t33 136.5q0 72 -34.5 128.5t-94.5 56.5q-42 0 -71 -31t-40.5 -72t-11.5 -86z" />
<glyph unicode="&#xbb;" horiz-adv-x="952" d="M47 127l244 389l-244 391h213l240 -391l-238 -389h-215zM438 907h215l240 -391l-240 -389h-213l244 389z" />
<glyph unicode="&#xbc;" horiz-adv-x="1701" d="M74 1245l227 98h209v-798h-240v604h-2l-164 -72zM354 -23l756 1377h170l-756 -1377h-170zM899 184v129l350 494h273v-471h108v-152h-108v-184h-222v184h-401zM1116 338l4 -2h180v151q0 30 4 82.5t5 69.5h-4q-69 -125 -74 -133z" />
<glyph unicode="&#xbd;" horiz-adv-x="1701" d="M49 1245l227 98h209v-798h-239v604h-2l-164 -72zM307 -23l754 1377h170l-754 -1377h-170zM993 0v115l127 114q140 125 176 164q62 71 62 131q0 44 -32 71.5t-89 27.5q-92 0 -176 -58l-62 156q122 88 299 88q147 0 229.5 -70t82.5 -178q0 -52 -17.5 -98t-56.5 -91t-71 -74 t-91 -77l-49 -39v-4h299v-178h-631z" />
<glyph unicode="&#xbe;" horiz-adv-x="1701" d="M55 592l47 160q36 -20 93 -37t108 -17q64 0 105 27t41 68q0 48 -52 74t-127 26h-61v139h59q61 0 109.5 20.5t48.5 63.5q0 34 -27 54t-82 20q-98 0 -184 -51l-45 149q47 28 124.5 47t162.5 19q142 0 218.5 -57t76.5 -146q0 -64 -46 -110.5t-122 -69.5v-4q86 -9 142 -60.5 t56 -128.5q0 -108 -100.5 -175.5t-267.5 -67.5q-82 0 -157 16t-120 41zM422 -23l752 1377h169l-753 -1377h-168zM920 184v129l348 494h272v-471h109v-152h-109v-184h-221v184h-399zM1135 338l4 -2h180v151q0 31 3.5 84t4.5 68h-4q-9 -16 -24.5 -45.5t-27 -50t-22.5 -37.5z " />
<glyph unicode="&#xbf;" horiz-adv-x="911" d="M86 -96q0 45 12.5 90t25.5 74t44 70t44.5 56.5t49.5 55.5q106 120 103 256v37h274l2 -54q9 -164 -121 -321q-60 -71 -89.5 -119t-29.5 -96q0 -54 37.5 -87t110.5 -34q54 0 110 16.5t95 45.5l67 -224q-145 -84 -342 -84q-191 0 -292 91.5t-101 226.5zM324 825 q0 82 51.5 134.5t134.5 52.5q79 0 129.5 -52.5t50.5 -134.5q0 -83 -50 -134.5t-132 -51.5t-132 51.5t-52 134.5z" />
<glyph unicode="&#xc0;" horiz-adv-x="1343" d="M37 0l420 1380h409l430 -1380h-338l-106 354h-395l-99 -354h-321zM313 1708h328l172 -250h-250zM502 588h305l-86 293q-26 84 -70 266h-4q-5 -19 -27.5 -119t-35.5 -147z" />
<glyph unicode="&#xc1;" horiz-adv-x="1343" d="M37 0l420 1380h409l430 -1380h-338l-106 354h-395l-99 -354h-321zM502 588h305l-86 293q-26 84 -70 266h-4q-5 -19 -27.5 -119t-35.5 -147zM518 1454l172 252h328l-250 -252h-250z" />
<glyph unicode="&#xc2;" horiz-adv-x="1343" d="M37 0l420 1380h409l430 -1380h-338l-106 354h-395l-99 -354h-321zM350 1454l205 252h233l207 -252h-219l-102 127h-4l-103 -127h-217zM502 588h305l-86 293q-26 84 -70 266h-4q-5 -19 -27.5 -119t-35.5 -147z" />
<glyph unicode="&#xc3;" horiz-adv-x="1343" d="M37 0l420 1380h409l428 -1380h-336l-106 354h-395l-99 -354h-321zM391 1464q-3 126 40 193t118 67q65 0 131 -41q66 -38 90 -38q26 0 37.5 18t17.5 70h140q3 -134 -37.5 -195t-122.5 -61q-61 0 -133 39q-7 4 -20 11.5t-19 10.5t-15.5 7t-17.5 5.5t-16 1.5q-43 0 -49 -88 h-144zM502 588h305l-86 293q-26 84 -70 266h-4q-5 -19 -27.5 -119t-35.5 -147z" />
<glyph unicode="&#xc4;" horiz-adv-x="1343" d="M37 0l420 1380h409l430 -1380h-338l-106 354h-395l-99 -354h-321zM326 1597q0 60 40.5 101t100.5 41q57 0 96 -40.5t39 -101.5q0 -58 -39 -98.5t-98 -40.5q-58 0 -98.5 41t-40.5 98zM502 588h305l-86 293q-26 84 -70 266h-4q-5 -19 -27.5 -119t-35.5 -147zM752 1597 q0 60 39.5 101t99.5 41q59 0 98 -40.5t39 -101.5q0 -58 -39.5 -98.5t-99.5 -40.5q-59 0 -98 40.5t-39 98.5z" />
<glyph unicode="&#xc5;" horiz-adv-x="1343" d="M37 0l420 1380h409l430 -1380h-338l-106 354h-395l-99 -354h-321zM430 1634q0 88 63 146.5t175 58.5q111 0 171 -57t60 -146q0 -85 -63.5 -141.5t-169.5 -56.5q-108 0 -172 56t-64 140zM502 588h305l-86 293q-26 84 -70 266h-4q-5 -19 -27.5 -119t-35.5 -147zM573 1636 q0 -39 25 -66.5t66 -27.5q42 0 66 26.5t24 67.5t-25 70t-67 29q-41 0 -65 -30t-24 -69z" />
<glyph unicode="&#xc6;" horiz-adv-x="1777" d="M6 0l588 1380h1051v-256h-568l37 -293h522v-253h-483l43 -322h524l-2 -256h-790l-49 377h-402l-151 -377h-320zM569 627h275l-41 334q-14 109 -25 200h-6q-12 -36 -36.5 -105.5t-33.5 -97.5z" />
<glyph unicode="&#xc7;" horiz-adv-x="1222" d="M72 670q0 138 38 256.5t106.5 205t162.5 147.5t207 91.5t239 30.5q114 0 204 -18t134 -44l-63 -245q-115 51 -260 51q-127 0 -224.5 -49t-157 -154t-59.5 -254q0 -208 117.5 -329t323.5 -121q157 0 262 45l45 -246q-115 -54 -324 -57l-39 -70q64 -15 107 -57.5t43 -110.5 q0 -67 -38 -111t-90 -60.5t-116 -16.5q-110 0 -176 38l41 127q54 -28 115 -28q73 0 73 51q0 31 -37.5 49t-123.5 27l80 170q-190 25 -324.5 119.5t-200 238t-65.5 324.5z" />
<glyph unicode="&#xc8;" horiz-adv-x="1093" d="M137 0v1380h850v-256h-538v-286h507v-254h-507v-328h567v-256h-879zM227 1708h328l172 -250h-250z" />
<glyph unicode="&#xc9;" horiz-adv-x="1093" d="M137 0v1380h850v-256h-538v-286h507v-254h-507v-328h567v-256h-879zM420 1454l172 252h328l-250 -252h-250z" />
<glyph unicode="&#xca;" horiz-adv-x="1093" d="M137 0v1380h850v-256h-538v-286h507v-254h-507v-328h567v-256h-879zM248 1454l205 252h233l207 -252h-219l-103 127h-4l-102 -127h-217z" />
<glyph unicode="&#xcb;" horiz-adv-x="1093" d="M137 0v1380h848v-256h-536v-286h505v-254h-505v-328h565v-256h-877zM203 1599q0 60 40.5 101t100.5 41q57 0 96 -40.5t39 -101.5q0 -58 -38.5 -98.5t-94.5 -40.5h-4q-58 0 -98.5 41t-40.5 98zM629 1599q0 60 40 101t101 41q58 0 96.5 -40t38.5 -102q0 -58 -39.5 -98.5 t-99.5 -40.5q-58 0 -97.5 40.5t-39.5 98.5z" />
<glyph unicode="&#xcc;" horiz-adv-x="583" d="M-55 1708h327l172 -250h-249zM137 0v1380h312v-1380h-312z" />
<glyph unicode="&#xcd;" horiz-adv-x="583" d="M137 0v1380h312v-1380h-312zM141 1454l172 252h328l-250 -252h-250z" />
<glyph unicode="&#xce;" horiz-adv-x="583" d="M-31 1454l205 252h234l206 -252h-219l-102 127h-4l-103 -127h-217zM137 0v1380h312v-1380h-312z" />
<glyph unicode="&#xcf;" horiz-adv-x="583" d="M-59 1599q0 60 40.5 101t100.5 41q57 0 96 -40.5t39 -101.5q0 -58 -39 -98.5t-98 -40.5q-58 0 -98.5 41t-40.5 98zM137 0v1380h312v-1380h-312zM367 1599q0 60 39.5 101t99.5 41q59 0 98 -40.5t39 -101.5q0 -58 -39.5 -98.5t-99.5 -40.5q-59 0 -98 40.5t-39 98.5z" />
<glyph unicode="&#xd0;" horiz-adv-x="1441" d="M6 582v243h146v541q198 31 419 31q197 0 332.5 -35t233.5 -111q111 -82 172 -215t61 -311q0 -190 -61 -331.5t-166 -231.5q-212 -180 -637 -180q-183 0 -354 18v582h-146zM463 231q27 -6 108 -6q222 0 345.5 121.5t123.5 368.5q0 221 -114 331.5t-322 110.5 q-87 0 -141 -12v-320h274v-243h-274v-351z" />
<glyph unicode="&#xd1;" horiz-adv-x="1413" d="M135 0v1380h365l286 -506q122 -216 226 -473h4q-25 253 -25 578v401h287v-1380h-328l-295 532q-149 267 -239 488h-8q14 -258 14 -604v-416h-287zM424 1464q-3 126 40 193t118 67q63 0 133 -41q63 -38 90 -38q26 0 37.5 18t17.5 70h139q3 -135 -37 -195.5t-124 -60.5 q-61 0 -133 39q-6 3 -17 9.5t-16.5 9t-14 6.5t-14 6t-13 3.5t-14.5 1.5q-43 0 -49 -88h-143z" />
<glyph unicode="&#xd2;" horiz-adv-x="1468" d="M72 682q0 206 82 370t236 258.5t353 94.5q155 0 281 -55.5t207 -151t124.5 -222t43.5 -271.5q0 -338 -185 -533t-493 -195q-199 0 -348 94.5t-225 253t-76 357.5zM385 1708h328l172 -250h-250zM401 688q0 -207 90.5 -335t245.5 -128q103 0 179 61.5t114.5 167t38.5 240.5 q0 127 -37.5 231t-114 168t-180.5 64q-156 0 -246 -131.5t-90 -337.5z" />
<glyph unicode="&#xd3;" horiz-adv-x="1468" d="M72 682q0 206 82 370t236 258.5t353 94.5q155 0 281 -55.5t207 -151t124.5 -222t43.5 -271.5q0 -338 -185 -533t-493 -195q-199 0 -348 94.5t-225 253t-76 357.5zM401 688q0 -207 90.5 -335t245.5 -128q103 0 179 61.5t114.5 167t38.5 240.5q0 127 -37.5 231t-114 168 t-180.5 64q-156 0 -246 -131.5t-90 -337.5zM592 1456l172 252h328l-250 -252h-250z" />
<glyph unicode="&#xd4;" horiz-adv-x="1468" d="M72 682q0 206 82 370t236 258.5t353 94.5q155 0 281 -55.5t207 -151t124.5 -222t43.5 -271.5q0 -338 -185 -533t-493 -195q-199 0 -348 94.5t-225 253t-76 357.5zM401 688q0 -207 90.5 -335t245.5 -128q103 0 179 61.5t114.5 167t38.5 240.5q0 127 -37.5 231t-114 168 t-180.5 64q-156 0 -246 -131.5t-90 -337.5zM414 1456l204 252h234l207 -252h-219l-103 127h-4l-102 -127h-217z" />
<glyph unicode="&#xd5;" horiz-adv-x="1468" d="M72 682q0 206 82 370t236 258.5t353 94.5q155 0 281 -55.5t207 -151t124.5 -222t43.5 -271.5q0 -338 -185 -533t-493 -195q-199 0 -348 94.5t-225 253t-76 357.5zM401 688q0 -207 90.5 -335t245.5 -128q103 0 179 61.5t114.5 167t38.5 240.5q0 127 -37.5 231t-114 168 t-180.5 64q-156 0 -246 -131.5t-90 -337.5zM449 1464q-3 125 39.5 191.5t117.5 66.5q59 0 131 -39q66 -38 90 -38q27 0 38.5 18t17.5 70h139q3 -134 -37.5 -195t-122.5 -61q-59 0 -133 36q-7 4 -24 13.5t-24 13t-18.5 7t-21.5 3.5q-43 0 -49 -86h-143z" />
<glyph unicode="&#xd6;" horiz-adv-x="1468" d="M72 682q0 206 82 370t236 258.5t353 94.5q155 0 281 -55.5t207 -151t124.5 -222t43.5 -271.5q0 -338 -185 -533t-493 -195q-199 0 -348 94.5t-225 253t-76 357.5zM383 1599q0 60 40.5 101t100.5 41q57 0 96 -40.5t39 -101.5q0 -58 -39 -98.5t-98 -40.5q-58 0 -98.5 41 t-40.5 98zM401 688q0 -207 90.5 -335t245.5 -128q103 0 179 61.5t114.5 167t38.5 240.5q0 127 -37.5 231t-114 168t-180.5 64q-156 0 -246 -131.5t-90 -337.5zM809 1599q0 60 39.5 101t99.5 41q59 0 98 -40.5t39 -101.5q0 -58 -39.5 -98.5t-99.5 -40.5q-59 0 -98 40.5 t-39 98.5z" />
<glyph unicode="&#xd7;" horiz-adv-x="1220" d="M82 137l393 402l-393 403l133 135l395 -403l396 403l133 -135l-394 -403l394 -402l-135 -137l-394 401l-393 -401z" />
<glyph unicode="&#xd8;" horiz-adv-x="1468" d="M72 690q0 150 48.5 281.5t134 227.5t210.5 151t272 55q172 0 305 -74l113 166l178 -119l-114 -172q88 -95 134 -227t46 -279q0 -167 -50 -303.5t-138 -228t-209.5 -141.5t-264.5 -50q-160 0 -297 70l-125 -182l-168 131l115 176q-92 95 -141 229.5t-49 288.5zM385 692 q0 -137 53 -254h2l459 672q-70 51 -162 51q-163 0 -257.5 -130.5t-94.5 -338.5zM586 270q58 -49 149 -49q161 0 255.5 130t94.5 343q0 127 -45 236h-4z" />
<glyph unicode="&#xd9;" horiz-adv-x="1396" d="M135 610v770h311v-792q0 -178 65 -269.5t185 -91.5q254 0 254 361v792h312v-774q0 -314 -150 -471.5t-426 -157.5q-267 0 -409 155.5t-142 477.5zM356 1708h328l172 -250h-250z" />
<glyph unicode="&#xda;" horiz-adv-x="1396" d="M135 610v770h311v-792q0 -178 65 -269.5t185 -91.5q254 0 254 361v792h312v-774q0 -314 -150 -471.5t-426 -157.5q-267 0 -409 155.5t-142 477.5zM541 1454l172 252h327l-249 -252h-250z" />
<glyph unicode="&#xdb;" horiz-adv-x="1396" d="M135 610v770h311v-792q0 -178 65 -269.5t185 -91.5q254 0 254 361v792h312v-774q0 -314 -150 -471.5t-426 -157.5q-267 0 -409 155.5t-142 477.5zM397 1454l205 252h234l206 -252h-219l-102 127h-4l-103 -127h-217z" />
<glyph unicode="&#xdc;" horiz-adv-x="1396" d="M135 610v770h311v-792q0 -178 65 -269.5t185 -91.5q254 0 254 361v792h312v-774q0 -314 -150 -471.5t-426 -157.5q-267 0 -409 155.5t-142 477.5zM358 1599q0 60 41 101t101 41q57 0 96 -40.5t39 -101.5q0 -58 -39 -98.5t-98 -40.5q-58 0 -99 41t-41 98zM784 1599 q0 60 40 101t100 41q59 0 98 -40.5t39 -101.5q0 -58 -39.5 -98.5t-99.5 -40.5q-59 0 -98.5 40.5t-39.5 98.5z" />
<glyph unicode="&#xdd;" horiz-adv-x="1234" d="M18 1380h359l139 -331q67 -155 107 -265h4q43 119 104 265l139 331h351l-455 -805v-575h-311v565zM481 1452l172 252h328l-250 -252h-250z" />
<glyph unicode="&#xde;" horiz-adv-x="1187" d="M135 0v1380h307v-247q78 8 170 8q248 0 379 -111q133 -114 133 -299q0 -123 -42.5 -215.5t-117.5 -146.5t-170.5 -80.5t-209.5 -26.5q-70 0 -142 10v-272h-307zM442 516q46 -12 129 -12q122 0 184 55t62 148q0 95 -62 145.5t-177 50.5q-94 0 -136 -10v-377z" />
<glyph unicode="&#xdf;" horiz-adv-x="1228" d="M125 0v883q0 320 158 465q135 129 368 129q190 0 315.5 -104.5t125.5 -274.5q0 -103 -48 -168q-59 -28 -88.5 -66t-29.5 -78q0 -34 16 -64.5t53 -70.5q33 -35 45 -48t40.5 -50.5t41 -65t24 -70t11.5 -87.5q0 -160 -109.5 -256.5t-302.5 -96.5q-139 0 -221 33l39 230 q60 -29 144 -29q64 0 100.5 29t36.5 75q0 36 -17.5 68t-56.5 74q-75 79 -100 117q-58 84 -58 174q0 78 43 144.5t123 108.5q15 35 15 74q0 71 -44 117.5t-116 46.5q-197 0 -197 -330v-909h-311z" />
<glyph unicode="&#xe0;" horiz-adv-x="1081" d="M59 285q0 190 157 286.5t431 96.5v12q0 53 -39.5 92t-142.5 39q-73 0 -149 -22t-128 -54l-57 201q162 90 389 90q121 0 208.5 -33.5t136.5 -95t71 -136.5t22 -169v-350q0 -164 17 -242h-281l-18 100h-6q-101 -123 -287 -123q-146 0 -235 91t-89 217zM207 1438h287 l176 -312h-213zM367 315q0 -58 33.5 -88t88.5 -30q56 0 101.5 33t60.5 81q6 24 6 54v108q-290 0 -290 -158z" />
<glyph unicode="&#xe1;" horiz-adv-x="1081" d="M59 285q0 190 157 286.5t431 96.5v12q0 53 -39.5 92t-142.5 39q-73 0 -149 -22t-128 -54l-57 201q162 90 389 90q121 0 208.5 -33.5t136.5 -95t71 -136.5t22 -169v-350q0 -164 17 -242h-281l-18 100h-6q-101 -123 -287 -123q-146 0 -235 91t-89 217zM367 315 q0 -58 33.5 -88t88.5 -30q56 0 101.5 33t60.5 81q6 24 6 54v108q-290 0 -290 -158zM399 1126l176 312h287l-250 -312h-213z" />
<glyph unicode="&#xe2;" horiz-adv-x="1081" d="M59 285q0 190 157 286.5t431 96.5v12q0 53 -39.5 92t-142.5 39q-73 0 -149 -22t-128 -54l-57 201q162 90 389 90q121 0 208.5 -33.5t136.5 -95t71 -136.5t22 -169v-350q0 -164 17 -242h-281l-18 100h-6q-101 -123 -287 -123q-146 0 -235 91t-89 217zM225 1126l203 312 h211l203 -312h-203l-104 179h-5l-102 -179h-203zM367 315q0 -58 33.5 -88t88.5 -30q56 0 101.5 33t60.5 81q6 24 6 54v108q-290 0 -290 -158z" />
<glyph unicode="&#xe3;" horiz-adv-x="1081" d="M59 285q0 190 157 286.5t431 96.5v12q0 53 -39.5 92t-142.5 39q-73 0 -149 -22t-128 -54l-57 201q162 90 389 90q121 0 208.5 -33.5t136.5 -95t71 -136.5t22 -169v-350q0 -164 17 -242h-281l-18 100h-6q-101 -123 -287 -123q-146 0 -235 91t-89 217zM231 1143 q-4 126 42 197t126 71q49 0 133 -41q8 -4 23.5 -13t23.5 -13.5t19 -8.5t20 -4q26 0 38 19t16 71h143q8 -262 -168 -262q-12 0 -23 1t-22.5 4t-19.5 5.5t-20.5 7.5t-18 7.5t-19.5 9t-18 8.5q-9 5 -23.5 13.5t-20 11t-15 5.5t-19.5 3q-43 0 -49 -92h-148zM367 315 q0 -58 33.5 -88t88.5 -30q56 0 101.5 33t60.5 81q6 24 6 54v108q-290 0 -290 -158z" />
<glyph unicode="&#xe4;" horiz-adv-x="1081" d="M59 285q0 190 157 286.5t431 96.5v12q0 53 -39.5 92t-142.5 39q-73 0 -149 -22t-128 -54l-57 201q162 90 389 90q121 0 208.5 -33.5t136.5 -95t71 -136.5t22 -169v-350q0 -164 17 -242h-281l-18 100h-6q-101 -123 -287 -123q-146 0 -235 91t-89 217zM180 1284 q0 61 43 102t105 41q59 0 99 -41t40 -102t-40 -103t-101 -42t-103.5 42.5t-42.5 102.5zM367 315q0 -58 33.5 -88t88.5 -30q56 0 101.5 33t60.5 81q6 24 6 54v108q-290 0 -290 -158zM612 1284q0 62 41.5 102.5t104.5 40.5q60 0 100.5 -41t40.5 -102t-40 -103t-101 -42h-4 q-60 0 -101 42.5t-41 102.5z" />
<glyph unicode="&#xe5;" horiz-adv-x="1081" d="M59 285q0 190 157 286.5t431 96.5v12q0 53 -39.5 92t-142.5 39q-73 0 -149 -22t-128 -54l-57 201q162 90 389 90q121 0 208.5 -33.5t136.5 -95t71 -136.5t22 -169v-350q0 -164 17 -242h-281l-18 100h-6q-101 -123 -287 -123q-146 0 -235 91t-89 217zM307 1303 q0 90 63.5 147t176.5 57q107 0 168 -56.5t61 -145.5q0 -88 -63.5 -144.5t-167.5 -56.5q-108 0 -173 56t-65 143zM367 315q0 -58 33.5 -88t88.5 -30q57 0 102 32.5t60 81.5q6 24 6 54v108q-290 0 -290 -158zM451 1303q0 -38 25.5 -67.5t66.5 -29.5q43 0 68.5 29t25.5 70 t-25.5 70.5t-70.5 29.5q-42 0 -66 -30t-24 -72z" />
<glyph unicode="&#xe6;" horiz-adv-x="1644" d="M59 291q0 180 159.5 275.5t432.5 95.5v26q0 14 -8 31.5t-27 39t-60 36t-97 14.5q-71 0 -142.5 -22.5t-123.5 -53.5l-62 197q170 94 354 94q236 0 330 -162h6q124 162 342 162q107 0 190 -43t132 -115t73.5 -158t24.5 -180q0 -12 -8 -112h-633q3 -95 77 -151t193 -56 q156 0 281 53l43 -209q-148 -76 -369 -76q-126 0 -228.5 47t-154.5 132h-6q-132 -179 -372 -179q-159 0 -253 90.5t-94 223.5zM365 313q0 -56 36 -86t91 -30q56 0 97.5 29.5t61.5 74.5q8 24 8 64v104q-135 2 -214.5 -36t-79.5 -120zM940 627h356q1 28 -6 58t-24 62t-53.5 53 t-86.5 21q-88 0 -136 -63.5t-50 -130.5z" />
<glyph unicode="&#xe7;" horiz-adv-x="923" d="M68 492q0 111 37.5 207t108.5 168.5t181 114.5t246 42q135 0 238 -39l-50 -231q-69 30 -174 30q-122 0 -196 -78t-72 -202q0 -133 77.5 -208t194.5 -75q103 0 181 33l37 -229q-76 -39 -230 -45l-39 -72q65 -15 107.5 -56.5t42.5 -107.5q0 -68 -38 -112.5t-90.5 -61 t-117.5 -16.5q-106 0 -172 38l39 127q54 -28 115 -28q73 0 73 51q0 31 -37.5 49t-123.5 27l81 172q-196 29 -307.5 162.5t-111.5 339.5z" />
<glyph unicode="&#xe8;" horiz-adv-x="1081" d="M68 489q0 98 31 191t90.5 171t159 125.5t224.5 47.5q94 0 170.5 -28.5t127 -76t85 -112.5t49.5 -135.5t15 -147.5q0 -66 -10 -123h-645q6 -92 86 -141t196 -49q152 0 277 43l41 -211q-149 -63 -363 -63q-253 0 -393.5 136t-140.5 373zM246 1438h286l177 -312h-213z M362 614h369q0 32 -8 64t-26 65t-54.5 53.5t-87.5 20.5q-47 0 -84 -19.5t-59 -51.5t-34.5 -65.5t-15.5 -66.5z" />
<glyph unicode="&#xe9;" horiz-adv-x="1081" d="M68 489q0 98 31 191t90.5 171t159 125.5t224.5 47.5q94 0 170.5 -28.5t127 -76t85 -112.5t49.5 -135.5t15 -147.5q0 -66 -10 -123h-645q6 -92 86 -141t196 -49q152 0 277 43l41 -211q-149 -63 -363 -63q-253 0 -393.5 136t-140.5 373zM362 614h369q0 32 -8 64t-26 65 t-54.5 53.5t-87.5 20.5q-47 0 -84 -19.5t-59 -51.5t-34.5 -65.5t-15.5 -66.5zM438 1126l176 312h287l-250 -312h-213z" />
<glyph unicode="&#xea;" horiz-adv-x="1081" d="M68 489q0 98 31 191t90.5 171t159 125.5t224.5 47.5q94 0 170.5 -28.5t127 -76t85 -112.5t49.5 -135.5t15 -147.5q0 -66 -10 -123h-645q6 -92 86 -141t196 -49q152 0 277 43l41 -211q-149 -63 -363 -63q-253 0 -393.5 136t-140.5 373zM254 1126l205 312h209l202 -312 h-202l-103 179h-4l-104 -179h-203zM362 614h369q0 32 -8 64t-26 65t-54.5 53.5t-87.5 20.5q-47 0 -84 -19.5t-59 -51.5t-34.5 -65.5t-15.5 -66.5z" />
<glyph unicode="&#xeb;" horiz-adv-x="1081" d="M68 489q0 98 31 191t90.5 171t159 125.5t224.5 47.5q94 0 170.5 -28.5t127 -76t85 -112.5t49.5 -135.5t15 -147.5q0 -66 -10 -123h-645q6 -92 86 -141t196 -49q152 0 277 43l41 -211q-149 -63 -363 -63q-253 0 -393.5 136t-140.5 373zM213 1284q0 61 42.5 102t104.5 41 q59 0 99.5 -41t40.5 -102t-40.5 -103t-101.5 -42t-103 42.5t-42 102.5zM362 614h369q0 32 -8 64t-26 65t-54.5 53.5t-87.5 20.5q-47 0 -84 -19.5t-59 -51.5t-34.5 -65.5t-15.5 -66.5zM645 1284q0 62 41.5 102.5t104.5 40.5q60 0 100.5 -41t40.5 -102t-40 -103t-101 -42h-5 q-60 0 -100.5 42.5t-40.5 102.5z" />
<glyph unicode="&#xec;" horiz-adv-x="561" d="M-61 1438h286l176 -312h-213zM125 0v1001h311v-1001h-311z" />
<glyph unicode="&#xed;" horiz-adv-x="561" d="M125 0v1001h311v-1001h-311zM150 1126l176 312h286l-250 -312h-212z" />
<glyph unicode="&#xee;" horiz-adv-x="561" d="M-27 1126l203 312h211l203 -312h-203l-104 179h-4l-103 -179h-203zM125 0v1001h311v-1001h-311z" />
<glyph unicode="&#xef;" horiz-adv-x="561" d="M-80 1284q0 61 43 102t105 41q59 0 99 -41t40 -102t-40 -103t-101 -42t-103.5 42.5t-42.5 102.5zM125 0v1001h311v-1001h-311zM352 1284q0 62 41.5 102.5t104.5 40.5q60 0 100.5 -41t40.5 -102t-40 -103t-101 -42h-4q-60 0 -101 42.5t-41 102.5z" />
<glyph unicode="&#xf0;" horiz-adv-x="1175" d="M68 485q0 107 38 198t103 152t151 96.5t183 37.5q83 3 145 -41l4 6q-78 105 -178 172l-295 -127l-55 123l215 96q-64 42 -191 98l134 174q173 -62 323 -161l283 121l61 -119l-215 -94q161 -130 250 -310q84 -164 84 -381q0 -110 -29 -202t-78.5 -155.5t-116.5 -107 t-142 -64t-156 -20.5q-224 0 -371 139.5t-147 368.5zM389 487q0 -123 53 -204.5t148 -81.5q94 0 145 80.5t51 214.5q0 155 -49 215q-54 67 -145 67q-55 0 -96.5 -27.5t-63.5 -72t-32.5 -92.5t-10.5 -99z" />
<glyph unicode="&#xf1;" horiz-adv-x="1200" d="M117 1001h270l14 -139h7q39 63 117.5 112.5t191.5 49.5q161 0 259.5 -109.5t98.5 -322.5v-592h-311v555q0 217 -158 217q-59 0 -99.5 -34t-60.5 -83q-10 -25 -10 -77v-578h-311v682q0 139 -8 319zM309 1141q-4 128 42 199t126 71q53 0 133 -41q9 -5 24.5 -13.5t24 -13 t19.5 -8.5t20 -4q26 0 38 19t16 71h143q8 -262 -168 -262q-12 0 -23 1t-22.5 4t-19.5 5.5t-20.5 7.5t-18 7.5t-19.5 9t-18 8.5q-8 4 -19.5 11t-17 9.5t-14 6t-15 5t-14.5 1.5q-43 0 -49 -94h-148z" />
<glyph unicode="&#xf2;" horiz-adv-x="1181" d="M68 494q0 244 146 388t390 144q228 0 369 -143t141 -371q0 -133 -44.5 -237.5t-119.5 -168t-168 -96.5t-196 -33q-226 0 -372 140t-146 377zM272 1438h287l176 -312h-213zM389 502q0 -133 54 -217t151 -84q92 0 145.5 83t53.5 220q0 78 -19.5 143.5t-66 110.5t-113.5 45 q-70 0 -118 -46t-67.5 -111.5t-19.5 -143.5z" />
<glyph unicode="&#xf3;" horiz-adv-x="1181" d="M68 494q0 244 146 388t390 144q228 0 369 -143t141 -371q0 -133 -44.5 -237.5t-119.5 -168t-168 -96.5t-196 -33q-226 0 -372 140t-146 377zM389 502q0 -133 54 -217t151 -84q92 0 145.5 83t53.5 220q0 78 -19.5 143.5t-66 110.5t-113.5 45q-70 0 -118 -46t-67.5 -111.5 t-19.5 -143.5zM453 1126l176 312h286l-249 -312h-213z" />
<glyph unicode="&#xf4;" horiz-adv-x="1181" d="M68 494q0 244 146 388t390 144q228 0 369 -143t141 -371q0 -133 -44.5 -237.5t-119.5 -168t-168 -96.5t-196 -33q-226 0 -372 140t-146 377zM283 1126l204 312h209l203 -312h-203l-102 179h-4l-105 -179h-202zM389 502q0 -133 54 -217t151 -84q92 0 145.5 83t53.5 220 q0 78 -19.5 143.5t-66 110.5t-113.5 45q-70 0 -118 -46t-67.5 -111.5t-19.5 -143.5z" />
<glyph unicode="&#xf5;" horiz-adv-x="1181" d="M68 494q0 244 146 388t390 144q228 0 369 -143t141 -371q0 -133 -44.5 -237.5t-119.5 -168t-168 -96.5t-196 -33q-226 0 -372 140t-146 377zM299 1143q-4 126 42 197t126 71q53 0 133 -41q8 -4 23.5 -13t23.5 -13.5t19 -8.5t20 -4q25 0 37 18.5t16 71.5h144 q8 -262 -168 -262q-9 0 -18 0.5t-18.5 2.5t-15.5 3.5t-16.5 5t-14.5 5t-15.5 6.5t-13.5 6t-14.5 7.5t-13.5 6.5q-8 4 -19.5 10.5t-17 9.5t-13.5 6.5t-14.5 5t-14.5 1.5q-44 0 -50 -92h-147zM389 502q0 -133 54 -217t151 -84q92 0 145.5 83t53.5 220q0 78 -19.5 143.5 t-66 110.5t-113.5 45q-70 0 -118 -46t-67.5 -111.5t-19.5 -143.5z" />
<glyph unicode="&#xf6;" horiz-adv-x="1181" d="M68 494q0 244 146 388t390 144q228 0 369 -143t141 -371q0 -133 -44.5 -237.5t-119.5 -168t-168 -96.5t-196 -33q-226 0 -372 140t-146 377zM229 1284q0 61 43 102t105 41q59 0 99 -41t40 -102t-40 -103t-101 -42t-103.5 42.5t-42.5 102.5zM389 502q0 -133 54 -217 t151 -84q92 0 145.5 83t53.5 220q0 78 -19.5 143.5t-66 110.5t-113.5 45q-70 0 -118 -46t-67.5 -111.5t-19.5 -143.5zM662 1284q0 62 41 102.5t104 40.5q60 0 100.5 -41t40.5 -102t-40 -103t-101 -42h-4q-60 0 -100.5 42.5t-40.5 102.5z" />
<glyph unicode="&#xf7;" horiz-adv-x="1220" d="M82 451v190h1057v-190h-1057zM461 186q0 69 41.5 110.5t107.5 41.5q67 0 107.5 -41.5t42.5 -110.5q0 -68 -41.5 -109.5t-110.5 -41.5q-66 0 -106.5 41.5t-40.5 109.5zM461 905q0 69 41.5 110.5t107.5 41.5q67 0 107.5 -41.5t42.5 -110.5q0 -68 -41.5 -109.5t-110.5 -41.5 q-66 0 -106.5 41.5t-40.5 109.5z" />
<glyph unicode="&#xf8;" horiz-adv-x="1181" d="M68 500q0 236 145 381t379 145q133 0 242 -53l96 139l108 -76l-94 -137q81 -68 124.5 -169t43.5 -224q0 -129 -44.5 -232.5t-118.5 -167t-165.5 -96.5t-191.5 -33q-136 0 -238 54l-100 -146l-102 82l90 133q-174 144 -174 400zM367 502q0 -99 34 -160l7 -2l292 426 q-46 37 -112 37q-58 0 -102.5 -27t-69.5 -72t-37 -96t-12 -106zM485 238q40 -37 105 -37q103 0 163 81t60 216q0 90 -33 155h-4z" />
<glyph unicode="&#xf9;" horiz-adv-x="1193" d="M121 414v587h311v-538q0 -234 158 -234q59 0 99 33t56 76q13 29 13 68v595h311v-679q0 -154 8 -322h-270l-14 141h-7q-17 -27 -41 -52t-61.5 -52t-92 -43.5t-118.5 -16.5q-162 0 -257 107.5t-95 329.5zM270 1438h287l176 -312h-213z" />
<glyph unicode="&#xfa;" horiz-adv-x="1193" d="M121 414v587h311v-538q0 -234 158 -234q59 0 99 33t56 76q13 29 13 68v595h311v-679q0 -154 8 -322h-270l-14 141h-7q-17 -27 -41 -52t-61.5 -52t-92 -43.5t-118.5 -16.5q-162 0 -257 107.5t-95 329.5zM471 1126l176 312h287l-250 -312h-213z" />
<glyph unicode="&#xfb;" horiz-adv-x="1193" d="M121 414v587h311v-538q0 -234 158 -234q59 0 99 33t56 76q13 29 13 68v595h311v-679q0 -154 8 -322h-270l-14 141h-7q-17 -27 -41 -52t-61.5 -52t-92 -43.5t-118.5 -16.5q-162 0 -257 107.5t-95 329.5zM291 1126l203 312h211l202 -312h-202l-105 179h-4l-102 -179h-203z " />
<glyph unicode="&#xfc;" horiz-adv-x="1193" d="M121 414v587h311v-538q0 -234 158 -234q59 0 99 33t56 76q13 29 13 68v595h311v-679q0 -154 8 -322h-270l-14 141h-7q-17 -27 -41 -52t-61.5 -52t-92 -43.5t-118.5 -16.5q-162 0 -257 107.5t-95 329.5zM244 1284q0 61 42.5 102t104.5 41q59 0 99 -41t40 -102t-40 -103 t-101 -42t-103 42.5t-42 102.5zM676 1284q0 62 41 102.5t104 40.5q60 0 101 -41t41 -102t-40.5 -103t-101.5 -42h-4q-60 0 -100.5 42.5t-40.5 102.5z" />
<glyph unicode="&#xfd;" horiz-adv-x="1071" d="M12 1001h346l150 -493q36 -127 49 -186h8q18 84 43 188l125 491h332l-234 -659q-103 -287 -183 -432.5t-169 -224.5q-137 -121 -299 -138l-67 263q66 14 135 53q35 19 71 53.5t58 71.5q16 26 16 45q0 21 -12 51zM432 1126l176 312h287l-250 -312h-213z" />
<glyph unicode="&#xfe;" horiz-adv-x="1224" d="M125 -406v1790h311v-505h4q97 145 299 145q81 2 155 -32.5t132.5 -98t93.5 -163t35 -220.5q0 -107 -27 -197t-71.5 -151t-103.5 -103.5t-121.5 -62t-126.5 -19.5q-89 0 -157 31.5t-108 85.5h-4v-500h-311zM436 410q0 -52 29 -97q25 -44 68 -70t94 -26q97 0 155 78t58 211 q0 119 -55.5 196.5t-149.5 77.5q-59 0 -106 -30t-72 -84q-21 -48 -21 -84v-172z" />
<glyph unicode="&#xff;" horiz-adv-x="1071" d="M12 1001h346l150 -493q36 -127 49 -186h8q18 84 43 188l125 491h332l-234 -659q-103 -287 -183 -432.5t-169 -224.5q-137 -121 -299 -138l-67 263q66 14 135 53q35 19 71 53.5t58 71.5q16 26 16 45q0 21 -12 51zM199 1284q0 61 42.5 102t104.5 41q59 0 99 -41t40 -102 t-40 -103t-101 -42t-103 42.5t-42 102.5zM631 1284q0 62 41 102.5t104 40.5q60 0 101 -41t41 -102t-40.5 -103t-101.5 -42h-4q-60 0 -100.5 42.5t-40.5 102.5z" />
<glyph unicode="&#x100;" horiz-adv-x="1343" d="M37 0l420 1380h409l430 -1380h-338l-106 354h-395l-99 -354h-321zM397 1503v166h531v-166h-531zM502 588h305l-86 293q-26 84 -70 266h-4q-5 -19 -27.5 -119t-35.5 -147z" />
<glyph unicode="&#x101;" horiz-adv-x="1081" d="M59 285q0 190 157 286.5t431 96.5v12q0 53 -39.5 92t-142.5 39q-73 0 -149 -22t-128 -54l-57 201q162 90 389 90q121 0 208.5 -33.5t136.5 -95t71 -136.5t22 -169v-350q0 -164 17 -242h-281l-18 100h-6q-101 -123 -287 -123q-146 0 -235 91t-89 217zM287 1192v172h512 v-172h-512zM367 315q0 -58 33.5 -88t88.5 -30q56 0 101.5 33t60.5 81q6 24 6 54v108q-290 0 -290 -158z" />
<glyph unicode="&#x102;" horiz-adv-x="1343" d="M37 0l420 1380h409l430 -1380h-338l-106 354h-395l-99 -354h-321zM379 1708h166q13 -94 121 -94q110 0 129 94h159q-3 -118 -74.5 -188t-213.5 -70q-144 0 -214 69.5t-73 188.5zM502 588h305l-86 293q-26 84 -70 266h-4q-5 -19 -27.5 -119t-35.5 -147z" />
<glyph unicode="&#x103;" horiz-adv-x="1081" d="M59 285q0 190 157 286.5t431 96.5v12q0 53 -39.5 92t-142.5 39q-73 0 -149 -22t-128 -54l-57 201q162 90 389 90q121 0 208.5 -33.5t136.5 -95t71 -136.5t22 -169v-350q0 -164 17 -242h-281l-18 100h-6q-101 -123 -287 -123q-146 0 -235 91t-89 217zM256 1417h162 q17 -125 121 -125q59 0 90.5 35.5t34.5 89.5h161q-2 -133 -76 -212t-210 -79q-137 0 -209 81t-74 210zM367 315q0 -58 33.5 -88t88.5 -30q56 0 101.5 33t60.5 81q6 24 6 54v108q-290 0 -290 -158z" />
<glyph unicode="&#x104;" horiz-adv-x="1343" d="M35 0l422 1380h409l428 -1380l-166 -2q-51 -84 -51 -139q0 -51 31.5 -83t79.5 -32q43 0 90 14l43 -143q-39 -31 -97 -47.5t-112 -16.5q-108 0 -168.5 55.5t-60.5 162.5q0 106 75 233l-106 352h-395l-99 -354h-323zM502 588h305l-86 293q-26 84 -70 266h-4 q-5 -19 -27.5 -119t-35.5 -147z" />
<glyph unicode="&#x105;" horiz-adv-x="1081" d="M59 285q0 190 157 286.5t431 96.5v12q0 53 -39.5 92t-142.5 39q-73 0 -149 -22t-128 -54l-57 201q162 90 389 90q121 0 208.5 -33.5t136.5 -95t71 -136.5t22 -169v-348q0 -166 17 -244h-111q-43 -80 -43 -145q0 -51 27.5 -79t71.5 -28q43 0 90 21l43 -148 q-93 -70 -215 -70q-95 0 -153 54.5t-58 154.5q0 19 2.5 39t5 36t8.5 35.5t10 32t11.5 31t10.5 26t10.5 24t8.5 18.5l-18 98h-6q-101 -123 -287 -123q-146 0 -235 91t-89 217zM367 315q0 -58 33.5 -88t88.5 -30q56 0 101.5 33t60.5 81q6 24 6 54v108q-290 0 -290 -158z" />
<glyph unicode="&#x106;" horiz-adv-x="1218" d="M72 670q0 138 38 256.5t106.5 205t162.5 147.5t207 91.5t239 30.5q114 0 204 -18t136 -44l-65 -245q-115 51 -262 51q-194 0 -316.5 -118t-122.5 -339q0 -208 117.5 -329t323.5 -121q157 0 262 45l45 -246q-48 -23 -143 -41.5t-209 -18.5q-175 0 -313.5 53t-227.5 146.5 t-135.5 219t-46.5 274.5zM600 1456l172 252h328l-250 -252h-250z" />
<glyph unicode="&#x107;" horiz-adv-x="923" d="M68 492q0 111 37.5 207t108.5 168.5t181 114.5t246 42q135 0 238 -39l-50 -231q-69 30 -174 30q-122 0 -196 -78t-72 -202q0 -132 78 -206.5t197 -74.5q100 0 178 33l37 -229q-96 -47 -279 -47q-243 0 -386.5 138.5t-143.5 373.5zM420 1126l176 312h287l-250 -312h-213z " />
<glyph unicode="&#x108;" horiz-adv-x="1218" d="M72 670q0 138 38 256.5t106.5 205t162.5 147.5t207 91.5t239 30.5q114 0 204 -18t136 -44l-65 -245q-115 51 -262 51q-194 0 -316.5 -118t-122.5 -339q0 -208 117.5 -329t323.5 -121q157 0 262 45l45 -246q-48 -23 -143 -41.5t-209 -18.5q-175 0 -313.5 53t-227.5 146.5 t-135.5 219t-46.5 274.5zM412 1462l204 252h234l207 -252h-219l-103 127h-4l-102 -127h-217z" />
<glyph unicode="&#x109;" horiz-adv-x="923" d="M68 492q0 111 37.5 207t108.5 168.5t181 114.5t246 42q135 0 238 -39l-50 -231q-69 30 -174 30q-122 0 -196 -78t-72 -202q0 -132 78 -206.5t197 -74.5q100 0 178 33l37 -229q-96 -47 -279 -47q-243 0 -386.5 138.5t-143.5 373.5zM233 1126l205 312h209l203 -312h-203 l-102 179h-4l-105 -179h-203z" />
<glyph unicode="&#x10a;" horiz-adv-x="1218" d="M72 670q0 138 38 256.5t106.5 205t162.5 147.5t207 91.5t239 30.5q114 0 204 -18t136 -44l-65 -245q-115 51 -262 51q-194 0 -316.5 -118t-122.5 -339q0 -208 117.5 -329t323.5 -121q157 0 262 45l45 -246q-48 -23 -143 -41.5t-209 -18.5q-175 0 -313.5 53t-227.5 146.5 t-135.5 219t-46.5 274.5zM594 1597q0 60 41.5 101t101.5 41q58 0 97.5 -41t39.5 -101q0 -57 -40 -98t-99 -41t-100 41.5t-41 97.5z" />
<glyph unicode="&#x10b;" horiz-adv-x="923" d="M68 492q0 111 37.5 207t108.5 168.5t181 114.5t246 42q135 0 238 -39l-50 -231q-69 30 -174 30q-122 0 -196 -78t-72 -202q0 -132 78 -206.5t197 -74.5q100 0 178 33l37 -229q-96 -47 -279 -47q-243 0 -386.5 138.5t-143.5 373.5zM424 1284q0 63 41.5 104.5t103.5 41.5 q60 0 100 -41.5t40 -104.5q0 -59 -40.5 -101t-101.5 -42t-102 42t-41 101z" />
<glyph unicode="&#x10c;" horiz-adv-x="1218" d="M72 670q0 138 38 256.5t106.5 205t162.5 147.5t207 91.5t239 30.5q114 0 204 -18t136 -44l-65 -245q-115 51 -262 51q-194 0 -316.5 -118t-122.5 -339q0 -208 117.5 -329t323.5 -121q157 0 262 45l45 -246q-48 -23 -143 -41.5t-209 -18.5q-175 0 -313.5 53t-227.5 146.5 t-135.5 219t-46.5 274.5zM418 1708h219l102 -127h4l103 127h217l-205 -252h-233z" />
<glyph unicode="&#x10d;" horiz-adv-x="923" d="M68 492q0 111 37.5 207t108.5 168.5t181 114.5t246 42q135 0 238 -39l-50 -231q-69 30 -174 30q-122 0 -196 -78t-72 -202q0 -132 78 -206.5t197 -74.5q100 0 178 33l37 -229q-96 -47 -279 -47q-243 0 -386.5 138.5t-143.5 373.5zM242 1438h202l105 -178h4l102 178h205 l-203 -312h-213z" />
<glyph unicode="&#x10e;" horiz-adv-x="1425" d="M135 6v1354q198 31 420 31q194 0 330.5 -36.5t236.5 -111.5q234 -173 234 -520q0 -362 -228 -559q-213 -178 -639 -178q-202 0 -354 20zM336 1706h219l102 -127h5l102 127h217l-205 -252h-233zM446 236q31 -7 109 -7q220 -2 345.5 120.5t125.5 363.5q0 212 -116 325 t-322 113q-88 0 -142 -12v-903z" />
<glyph unicode="&#x10f;" horiz-adv-x="1241" d="M68 492q-1 244 129.5 389t318.5 145q92 0 160.5 -30.5t103.5 -82.5h4v541h312v-1155q0 -163 8 -299h-277l-12 145h-6q-45 -81 -129 -124.5t-184 -43.5q-182 0 -305 143t-123 372zM383 502q0 -127 58 -202t155 -75q67 0 117.5 42t64.5 108q6 35 6 71v132q0 39 -4 57 q-14 64 -63.5 107.5t-118.5 43.5q-103 0 -159 -80t-56 -204zM1178 1100q57 90 57 207q0 77 -41 139l195 33q27 -19 46 -62.5t19 -91.5q0 -183 -143 -309z" />
<glyph unicode="&#x110;" horiz-adv-x="1441" d="M6 582v243h146v541q198 31 419 31q197 0 332.5 -35t233.5 -111q111 -82 172 -215t61 -311q0 -190 -61 -331.5t-166 -231.5q-212 -180 -637 -180q-183 0 -354 18v582h-146zM463 231q27 -6 108 -6q222 0 345.5 121.5t123.5 368.5q0 221 -114 331.5t-322 110.5 q-87 0 -141 -12v-320h274v-243h-274v-351z" />
<glyph unicode="&#x111;" horiz-adv-x="1220" d="M68 492q-1 244 129.5 389t318.5 145q92 0 160.5 -30.5t103.5 -82.5h4v193h-372v170h372v178h312v-178h166v-170h-166v-807q0 -163 8 -299h-277l-12 145h-6q-45 -81 -129 -124.5t-184 -43.5q-182 0 -305 143t-123 372zM383 502q0 -127 58 -202t155 -75q67 0 117.5 42 t64.5 108q6 35 6 71v132q0 39 -4 57q-14 64 -63.5 107.5t-118.5 43.5q-103 0 -159 -80t-56 -204z" />
<glyph unicode="&#x112;" horiz-adv-x="1093" d="M137 0v1380h850v-256h-538v-286h507v-254h-507v-328h567v-256h-879zM291 1503v166h530v-166h-530z" />
<glyph unicode="&#x113;" horiz-adv-x="1081" d="M68 489q0 98 31 191t90.5 171t159 125.5t224.5 47.5q94 0 170.5 -28.5t127 -76t85 -112.5t49.5 -135.5t15 -147.5q0 -66 -10 -123h-645q6 -92 86 -141t196 -49q152 0 277 43l41 -211q-149 -63 -363 -63q-253 0 -393.5 136t-140.5 373zM291 1192v172h512v-172h-512z M362 614h369q0 32 -8 64t-26 65t-54.5 53.5t-87.5 20.5q-47 0 -84 -19.5t-59 -51.5t-34.5 -65.5t-15.5 -66.5z" />
<glyph unicode="&#x114;" horiz-adv-x="1093" d="M137 0v1380h850v-256h-538v-286h507v-254h-507v-328h567v-256h-879zM279 1714h165q13 -94 121 -94t127 94h160q-3 -118 -74.5 -188t-212.5 -70q-144 0 -213.5 69.5t-72.5 188.5z" />
<glyph unicode="&#x115;" horiz-adv-x="1081" d="M68 489q0 98 31 191t90.5 171t159 125.5t224.5 47.5q94 0 170.5 -28.5t127 -76t85 -112.5t49.5 -135.5t15 -147.5q0 -66 -10 -123h-645q6 -92 86 -141t196 -49q152 0 277 43l41 -211q-149 -63 -363 -63q-253 0 -393.5 136t-140.5 373zM264 1417h162q17 -125 121 -125 q59 0 90.5 35.5t34.5 89.5h162q-2 -133 -76.5 -212t-210.5 -79q-137 0 -209 81t-74 210zM362 614h369q0 32 -8 64t-26 65t-54.5 53.5t-87.5 20.5q-47 0 -84 -19.5t-59 -51.5t-34.5 -65.5t-15.5 -66.5z" />
<glyph unicode="&#x116;" horiz-adv-x="1093" d="M137 0v1380h850v-256h-538v-286h507v-254h-507v-328h567v-256h-879zM410 1599q0 60 41.5 101t101.5 41q58 0 97.5 -41t39.5 -101q0 -57 -40 -98t-99 -41t-100 41.5t-41 97.5z" />
<glyph unicode="&#x117;" horiz-adv-x="1081" d="M68 489q0 98 31 191t90.5 171t159 125.5t224.5 47.5q94 0 170.5 -28.5t127 -76t85 -112.5t49.5 -135.5t15 -147.5q0 -66 -10 -123h-645q6 -92 86 -141t196 -49q152 0 277 43l41 -211q-149 -63 -363 -63q-253 0 -393.5 136t-140.5 373zM362 614h369q0 32 -8 64t-26 65 t-54.5 53.5t-87.5 20.5q-47 0 -84 -19.5t-59 -51.5t-34.5 -65.5t-15.5 -66.5zM410 1284q0 63 41.5 104.5t103.5 41.5q60 0 99.5 -41.5t39.5 -104.5q0 -59 -40 -101t-101 -42t-102 42t-41 101z" />
<glyph unicode="&#x118;" horiz-adv-x="1093" d="M137 0v1380h850v-256h-538v-286h507v-254h-507v-328h567v-256h-51q-57 -38 -98.5 -89.5t-41.5 -98.5q0 -31 21 -48.5t57 -17.5q47 0 86 16l43 -147q-92 -64 -221 -64q-100 0 -156.5 50.5t-56.5 140.5q0 80 42.5 146.5t102.5 111.5h-606z" />
<glyph unicode="&#x119;" horiz-adv-x="1081" d="M68 489q0 98 31 191t90.5 171t159 125.5t224.5 47.5q95 0 171.5 -28.5t127 -76t84.5 -112.5t49 -135.5t15 -147.5q0 -85 -10 -123h-645q6 -92 86 -141t196 -49q152 0 277 43l41 -211q-16 -7 -46.5 -18t-41.5 -15q-62 -29 -119.5 -88t-57.5 -108q0 -33 20.5 -50.5 t49.5 -17.5q45 0 92 21l47 -144q-87 -69 -219 -69q-96 0 -152.5 47t-56.5 127q0 75 41.5 139.5t95.5 109.5v3h-26q-247 1 -385.5 137.5t-138.5 371.5zM362 614h369q0 32 -8 64t-26 65t-54 53.5t-86 20.5q-47 0 -85 -19.5t-60 -51.5t-34.5 -65.5t-15.5 -66.5z" />
<glyph unicode="&#x11a;" horiz-adv-x="1093" d="M137 0v1380h850v-256h-538v-286h507v-254h-507v-328h567v-256h-879zM231 1706h220l102 -127h4l102 127h218l-205 -252h-234z" />
<glyph unicode="&#x11b;" horiz-adv-x="1081" d="M68 489q0 98 31 191t90.5 171t159 125.5t224.5 47.5q94 0 170.5 -28.5t127 -76t85 -112.5t49.5 -135.5t15 -147.5q0 -66 -10 -123h-645q6 -92 86 -141t196 -49q152 0 277 43l41 -211q-149 -63 -363 -63q-253 0 -393.5 136t-140.5 373zM238 1438h202l105 -178h4l102 178 h205l-203 -312h-213zM362 614h369q0 32 -8 64t-26 65t-54.5 53.5t-87.5 20.5q-47 0 -84 -19.5t-59 -51.5t-34.5 -65.5t-15.5 -66.5z" />
<glyph unicode="&#x11c;" horiz-adv-x="1396" d="M72 674q1 224 104 389t279.5 248.5t404.5 83.5q123 0 223.5 -19.5t159.5 -46.5l-65 -252q-130 60 -320 60q-204 0 -331.5 -115t-127.5 -332q0 -211 120.5 -331.5t316.5 -120.5q106 0 151 18v291h-213v244h514v-728q-87 -30 -212 -53.5t-249 -23.5q-368 0 -561 184 q-94 91 -144 221.5t-50 282.5zM442 1460l205 252h234l206 -252h-219l-102 127h-4l-103 -127h-217z" />
<glyph unicode="&#x11d;" horiz-adv-x="1198" d="M68 496q0 119 36 219t98 167t144.5 104.5t175.5 37.5q188 0 275 -143h4l10 120h270q-8 -132 -8 -299v-557q0 -317 -153 -450q-143 -123 -406 -123q-220 0 -360 76l61 237q53 -31 130.5 -53t160.5 -22q117 0 188.5 65.5t71.5 198.5v63h-4q-44 -62 -114 -95.5t-156 -33.5 q-186 0 -305 136.5t-119 351.5zM293 1128l205 312h209l202 -312h-202l-103 179h-4l-104 -179h-203zM383 504q0 -116 54.5 -191t148.5 -75q61 0 106 34.5t60 89.5q10 31 10 84v148q0 30 -6 57q-18 63 -61.5 100t-106.5 37q-89 0 -147 -75.5t-58 -208.5z" />
<glyph unicode="&#x11e;" horiz-adv-x="1396" d="M72 674q1 224 104 389t279.5 248.5t404.5 83.5q123 0 223.5 -19.5t159.5 -46.5l-65 -252q-130 60 -320 60q-204 0 -331.5 -115t-127.5 -332q0 -211 120.5 -331.5t316.5 -120.5q106 0 151 18v291h-213v244h514v-728q-87 -30 -212 -53.5t-249 -23.5q-368 0 -561 184 q-94 91 -144 221.5t-50 282.5zM485 1722h166q13 -94 121 -94q110 0 129 94h160q-3 -118 -75 -188t-214 -70q-144 0 -214 69.5t-73 188.5z" />
<glyph unicode="&#x11f;" horiz-adv-x="1198" d="M68 496q0 119 36 219t98 167t144.5 104.5t175.5 37.5q188 0 275 -143h4l10 120h270q-8 -132 -8 -299v-557q0 -317 -153 -450q-143 -123 -406 -123q-220 0 -360 76l61 237q53 -31 130.5 -53t160.5 -22q117 0 188.5 65.5t71.5 198.5v63h-4q-44 -62 -114 -95.5t-156 -33.5 q-186 0 -305 136.5t-119 351.5zM313 1417h162q17 -125 121 -125q59 0 90.5 35.5t34.5 89.5h162q-2 -133 -76.5 -212t-210.5 -79q-137 0 -209 81t-74 210zM383 504q0 -116 54.5 -191t148.5 -75q61 0 106 34.5t60 89.5q10 31 10 84v148q0 30 -6 57q-18 63 -61.5 100t-106.5 37 q-89 0 -147 -75.5t-58 -208.5z" />
<glyph unicode="&#x120;" horiz-adv-x="1396" d="M72 674q1 224 104 389t279.5 248.5t404.5 83.5q123 0 223.5 -19.5t159.5 -46.5l-65 -252q-130 60 -320 60q-204 0 -331.5 -115t-127.5 -332q0 -211 120.5 -331.5t316.5 -120.5q106 0 151 18v291h-213v244h514v-728q-87 -30 -212 -53.5t-249 -23.5q-368 0 -561 184 q-94 91 -144 221.5t-50 282.5zM627 1597q0 60 41.5 101t101.5 41q58 0 97.5 -41t39.5 -101q0 -57 -40 -98t-99 -41t-100 41.5t-41 97.5z" />
<glyph unicode="&#x121;" horiz-adv-x="1198" d="M68 496q0 119 36 219t98 167t144.5 104.5t175.5 37.5q188 0 275 -143h4l10 120h270q-8 -132 -8 -299v-557q0 -317 -153 -450q-143 -123 -406 -123q-220 0 -360 76l61 237q53 -31 130.5 -53t160.5 -22q117 0 188.5 65.5t71.5 198.5v63h-4q-44 -62 -114 -95.5t-156 -33.5 q-186 0 -305 136.5t-119 351.5zM383 504q0 -116 54.5 -191t148.5 -75q61 0 106 34.5t60 89.5q10 31 10 84v148q0 30 -6 57q-18 63 -61.5 100t-106.5 37q-89 0 -147 -75.5t-58 -208.5zM451 1286q0 63 41.5 104.5t103.5 41.5q60 0 99.5 -41.5t39.5 -104.5q0 -59 -40 -101 t-101 -42t-102 42t-41 101z" />
<glyph unicode="&#x122;" horiz-adv-x="1396" d="M72 674q1 224 104 389t279.5 248.5t404.5 83.5q123 0 223.5 -19.5t159.5 -46.5l-65 -252q-130 60 -320 60q-204 0 -331.5 -115t-127.5 -332q0 -211 120.5 -331.5t316.5 -120.5q106 0 151 18v291h-213v244h514v-728q-87 -30 -212 -53.5t-249 -23.5q-368 0 -561 184 q-94 91 -144 221.5t-50 282.5zM543 -362q56 10 95.5 42.5t39.5 81.5q0 57 -60 121l216 37q34 -25 56.5 -68t22.5 -94q0 -121 -90 -185t-233 -69z" />
<glyph unicode="&#x123;" horiz-adv-x="1198" d="M68 496q0 119 36 219t98 167t144.5 104.5t175.5 37.5q188 0 275 -143h4l10 120h270q-8 -132 -8 -299v-557q0 -317 -153 -450q-143 -123 -406 -123q-220 0 -360 76l61 237q53 -31 130.5 -53t160.5 -22q117 0 188.5 65.5t71.5 198.5v63h-4q-44 -62 -114 -95.5t-156 -33.5 q-186 0 -305 136.5t-119 351.5zM383 504q0 -116 54.5 -191t148.5 -75q61 0 106 34.5t60 89.5q10 31 10 84v148q0 30 -6 57q-18 63 -61.5 100t-106.5 37q-89 0 -147 -75.5t-58 -208.5zM426 1251q0 112 90 169.5t234 62.5l45 -111q-66 -10 -107 -41t-41 -82q0 -54 62 -112 l-203 -33q-33 22 -56.5 62t-23.5 85z" />
<glyph unicode="&#x124;" horiz-adv-x="1411" d="M137 0v1380h312v-530h514v530h311v-1380h-311v578h-514v-578h-312zM383 1454l205 252h233l207 -252h-219l-102 127h-5l-102 -127h-217z" />
<glyph unicode="&#x125;" horiz-adv-x="1200" d="M-31 1503l205 252h234l206 -252h-219l-102 127h-4l-103 -127h-217zM125 0v1454h311v-573h4q48 66 123 104q73 39 162 39q157 0 253.5 -111t96.5 -329v-584h-311v551q0 221 -162 221q-57 0 -97 -31.5t-59 -78.5q-10 -22 -10 -68v-594h-311z" />
<glyph unicode="&#x126;" horiz-adv-x="1435" d="M16 965v184h131v231h312v-231h516v231h311v-231h131v-184h-131v-965h-311v524h-516v-524h-312v965h-131zM459 797h516v168h-516v-168z" />
<glyph unicode="&#x127;" horiz-adv-x="1200" d="M-35 1106v170h160v178h311v-178h375v-170h-375v-225h4q45 61 123 104q80 39 162 39q157 0 253.5 -111t96.5 -329v-584h-311v551q0 221 -162 221q-57 0 -97 -31.5t-59 -78.5q-10 -22 -10 -68v-594h-311v1106h-160z" />
<glyph unicode="&#x128;" horiz-adv-x="583" d="M6 1464q-3 126 40 193t118 67q65 0 131 -41q66 -38 90 -38q26 0 37.5 18t17.5 70h140q3 -134 -37.5 -195t-122.5 -61q-61 0 -133 39q-7 4 -20 11.5t-19 10.5t-15.5 7t-17.5 5.5t-16 1.5q-43 0 -49 -88h-144zM137 0v1380h312v-1380h-312z" />
<glyph unicode="&#x129;" horiz-adv-x="561" d="M-10 1141q-4 128 42 199t126 71q49 0 133 -41q8 -4 23.5 -13t23.5 -13.5t19 -8.5t20 -4q25 0 37 18.5t16 71.5h143q8 -262 -167 -262q-12 0 -23 1t-23 4t-19.5 5t-21 8t-18 7.5t-20 9t-17.5 8.5q-9 5 -23.5 13.5t-20 11t-15 5.5t-19.5 3q-43 0 -49 -94h-147zM125 0v1001 h311v-1001h-311z" />
<glyph unicode="&#x12a;" horiz-adv-x="583" d="M27 1503v166h530v-166h-530zM137 0v1380h312v-1380h-312z" />
<glyph unicode="&#x12b;" horiz-adv-x="561" d="M25 1192v172h512v-172h-512zM125 0v1001h311v-1001h-311z" />
<glyph unicode="&#x12c;" horiz-adv-x="583" d="M4 1718h166q13 -94 121 -94q110 0 129 94h160q-3 -118 -75 -188t-214 -70q-144 0 -214 69.5t-73 188.5zM137 0v1380h312v-1380h-312z" />
<glyph unicode="&#x12d;" horiz-adv-x="561" d="M-2 1417h162q17 -125 121 -125q59 0 90.5 35.5t34.5 89.5h161q-2 -133 -76 -212t-210 -79q-137 0 -209 81t-74 210zM125 0v1001h311v-1001h-311z" />
<glyph unicode="&#x12e;" horiz-adv-x="583" d="M68 -233q0 98 69 233v1380h312v-1380h-142q-45 -79 -45 -141q0 -52 31.5 -83.5t79.5 -31.5q55 0 90 14l43 -143q-39 -32 -96.5 -49t-112.5 -17q-108 0 -168.5 55.5t-60.5 162.5z" />
<glyph unicode="&#x12f;" horiz-adv-x="561" d="M57 -231q0 15 1.5 31t5 32t7 30t9 29.5t9.5 26.5t10.5 26t9.5 21.5l9 19.5t7 15v1001h311v-1001h-139q-45 -79 -45 -141q0 -51 31 -83t79 -32q56 0 91 14l43 -143q-39 -32 -96.5 -49t-112.5 -17q-108 0 -169 56t-61 164zM111 1290q0 70 47 116t123 46q77 0 124.5 -46 t47.5 -116q0 -69 -48 -115.5t-126 -46.5q-75 0 -121.5 46.5t-46.5 115.5z" />
<glyph unicode="&#x130;" horiz-adv-x="583" d="M137 0v1380h312v-1380h-312zM152 1599q0 60 41.5 101t101.5 41q58 0 97.5 -41t39.5 -101q0 -57 -40 -98t-99 -41t-100 41.5t-41 97.5z" />
<glyph unicode="&#x131;" horiz-adv-x="561" d="M125 0v1001h311v-1001h-311z" />
<glyph unicode="&#x132;" horiz-adv-x="1425" d="M137 0v1380h312v-1380h-312zM582 10l34 252q74 -24 160 -24q106 0 159.5 60.5t53.5 213.5v868h311v-872q0 -283 -125.5 -407t-363.5 -124q-128 0 -229 33z" />
<glyph unicode="&#x133;" horiz-adv-x="1157" d="M117 1280q0 67 46 111.5t120 44.5q73 0 117 -44t46 -112q0 -67 -45.5 -111.5t-121.5 -44.5q-72 0 -117 45t-45 111zM125 0v1001h311v-1001h-311zM481 -197q132 10 185 66q34 36 47.5 107t13.5 219v806h311v-880q0 -162 -34.5 -267t-106.5 -171q-132 -123 -385 -123z M717 1280q0 67 46 111.5t120 44.5q73 0 117.5 -44t46.5 -112q0 -66 -46 -111t-122 -45q-72 0 -117 45t-45 111z" />
<glyph unicode="&#x134;" horiz-adv-x="841" d="M-2 10l35 252q74 -24 160 -24q106 0 159.5 60.5t53.5 211.5v870h311v-872q0 -283 -126 -407t-364 -124q-128 0 -229 33zM236 1454l204 252h234l207 -252h-219l-103 127h-4l-102 -127h-217z" />
<glyph unicode="&#x135;" horiz-adv-x="595" d="M-80 -197q131 10 184 66q34 36 48 107.5t14 218.5v806h311v-882q0 -160 -34.5 -265t-106.5 -171q-132 -123 -385 -123zM-4 1120l205 312h209l202 -312h-202l-103 178h-4l-104 -178h-203z" />
<glyph unicode="&#x136;" horiz-adv-x="1257" d="M135 0v1380h309v-610h5q42 72 96 152l311 458h385l-457 -587l480 -793h-363l-340 596l-117 -145v-451h-309zM446 -360q56 10 96 42.5t40 81.5q0 57 -60 121l215 37q34 -26 57 -68.5t23 -93.5q0 -121 -90 -185t-233 -69z" />
<glyph unicode="&#x137;" horiz-adv-x="1110" d="M125 0v1454h311v-874h4q34 64 72 120l203 301h375l-359 -405l410 -596h-383l-244 412l-78 -99v-313h-311zM369 -362q56 10 95.5 42.5t39.5 81.5q0 57 -60 121l215 37q34 -26 57 -68.5t23 -93.5q0 -121 -90 -185t-233 -69z" />
<glyph unicode="&#x138;" horiz-adv-x="1110" d="M125 0v1001h311v-421h4q34 64 72 120l203 301h375l-359 -405l410 -596h-383l-244 412l-78 -99v-313h-311z" />
<glyph unicode="&#x139;" horiz-adv-x="1046" d="M137 0v1380h312v-1118h548v-262h-860zM166 1454l172 252h328l-250 -252h-250z" />
<glyph unicode="&#x13a;" horiz-adv-x="563" d="M125 0v1454h311v-1454h-311zM125 1516l172 251h328l-250 -251h-250z" />
<glyph unicode="&#x13b;" horiz-adv-x="1046" d="M137 0v1380h312v-1118h548v-262h-860zM342 -362q56 10 95.5 42.5t39.5 81.5q0 58 -59 121l215 37q34 -26 57 -68.5t23 -93.5q0 -121 -90.5 -185t-233.5 -69z" />
<glyph unicode="&#x13c;" horiz-adv-x="563" d="M74 -362q56 10 95.5 42.5t39.5 81.5q0 58 -59 121l215 37q34 -25 56.5 -68t22.5 -94q0 -121 -90 -185t-233 -69zM125 0v1454h311v-1454h-311z" />
<glyph unicode="&#x13d;" horiz-adv-x="1046" d="M137 0v1380h312v-1118h548v-262h-860zM555 1124q57 12 96 44t39 81q0 55 -59 123l215 35q34 -26 57 -68t23 -94q0 -121 -90.5 -185t-233.5 -69z" />
<glyph unicode="&#x13e;" horiz-adv-x="583" d="M125 0v1454h311v-1454h-311zM512 1098q57 105 57 209q0 77 -41 139l195 33q27 -20 46 -65t19 -99q0 -49 -12 -95.5t-23.5 -73.5t-36.5 -61.5t-31.5 -41t-27.5 -29.5z" />
<glyph unicode="&#x13f;" horiz-adv-x="1046" d="M137 0v1380h312v-1118h548v-262h-860zM643 774q0 60 41.5 100.5t101.5 40.5q59 0 98.5 -40.5t39.5 -100.5q0 -56 -40.5 -97.5t-99.5 -41.5t-100 41.5t-41 97.5z" />
<glyph unicode="&#x140;" horiz-adv-x="724" d="M125 0v1454h311v-1454h-311zM512 815q0 60 39 99.5t96 39.5q54 0 90.5 -39.5t36.5 -99.5q0 -58 -37 -98.5t-92 -40.5q-56 0 -94.5 40.5t-38.5 98.5z" />
<glyph unicode="&#x141;" horiz-adv-x="1058" d="M-4 377v215l154 106v682h311v-475l258 174v-217l-258 -174v-426h549v-262h-860v481z" />
<glyph unicode="&#x142;" horiz-adv-x="587" d="M4 365v223l133 104v762h312v-530l145 116v-223l-145 -117v-700h-312v469z" />
<glyph unicode="&#x143;" horiz-adv-x="1413" d="M135 0v1380h365l286 -506q122 -216 226 -473h4q-25 253 -25 578v401h287v-1380h-328l-295 532q-149 267 -239 488h-8q14 -258 14 -604v-416h-287zM549 1454l172 252h328l-250 -252h-250z" />
<glyph unicode="&#x144;" horiz-adv-x="1200" d="M117 1001h270l14 -139h7q39 63 117.5 112.5t191.5 49.5q161 0 259.5 -109.5t98.5 -322.5v-592h-311v555q0 217 -158 217q-59 0 -99.5 -34t-60.5 -83q-10 -25 -10 -77v-578h-311v682q0 139 -8 319zM449 1126l174 312h288l-249 -312h-213z" />
<glyph unicode="&#x145;" horiz-adv-x="1413" d="M135 0v1380h365l286 -506q122 -216 226 -473h4q-25 253 -25 578v401h287v-1380h-328l-295 532q-149 267 -239 488h-8q14 -258 14 -604v-416h-287zM520 -358q56 10 95.5 43t39.5 82q0 57 -59 120l215 37q34 -26 57 -68.5t23 -93.5q0 -121 -91 -185t-235 -69z" />
<glyph unicode="&#x146;" horiz-adv-x="1200" d="M117 1001h270l14 -139h7q39 63 117.5 112.5t191.5 49.5q161 0 259.5 -109.5t98.5 -322.5v-592h-311v555q0 217 -158 217q-59 0 -99.5 -34t-60.5 -83q-10 -25 -10 -77v-578h-311v682q0 139 -8 319zM412 -360q56 10 95.5 42.5t39.5 81.5q0 57 -60 121l215 37 q34 -26 57 -68.5t23 -93.5q0 -121 -90 -185t-233 -69z" />
<glyph unicode="&#x147;" horiz-adv-x="1413" d="M135 0v1380h365l286 -506q122 -216 226 -473h4q-25 253 -25 578v401h287v-1380h-328l-295 532q-149 267 -239 488h-8q14 -258 14 -604v-416h-287zM391 1702h219l103 -127h4l102 127h217l-205 -252h-233z" />
<glyph unicode="&#x148;" horiz-adv-x="1200" d="M117 1001h270l14 -139h7q39 63 117.5 112.5t191.5 49.5q161 0 259.5 -109.5t98.5 -322.5v-592h-311v555q0 217 -158 217q-59 0 -99.5 -34t-60.5 -83q-10 -25 -10 -77v-578h-311v682q0 139 -8 319zM289 1438h203l104 -178h4l102 178h205l-202 -312h-213z" />
<glyph unicode="&#x149;" horiz-adv-x="1200" d="M16 1157q64 95 64 178q0 65 -41 113l199 51q25 -17 45 -59.5t20 -96.5q0 -146 -147 -270zM117 1001h270l14 -139h7q39 63 117.5 112.5t191.5 49.5q161 0 259.5 -109.5t98.5 -322.5v-592h-311v555q0 217 -158 217q-59 0 -99.5 -34t-60.5 -83q-10 -25 -10 -77v-578h-311 v682q0 139 -8 319z" />
<glyph unicode="&#x14a;" horiz-adv-x="1413" d="M135 0v1380h365l286 -506q122 -216 226 -473h4q-25 253 -25 578v401h287v-1282q0 -253 -123 -383t-344 -155l-68 235q104 25 159.5 66.5t68.5 107.5l-316 563q-149 267 -239 488h-8q14 -258 14 -604v-416h-287z" />
<glyph unicode="&#x14b;" horiz-adv-x="1200" d="M117 1001h270l14 -139h7q39 63 117.5 112.5t191.5 49.5q161 0 259.5 -109.5t98.5 -322.5v-471q0 -471 -424 -520l-61 241q92 17 133 70.5t41 159.5v483q0 217 -158 217q-59 0 -99.5 -34t-60.5 -83q-10 -25 -10 -77v-578h-311v682q0 139 -8 319z" />
<glyph unicode="&#x14c;" horiz-adv-x="1468" d="M72 682q0 206 82 370t236 258.5t353 94.5q155 0 281 -55.5t207 -151t124.5 -222t43.5 -271.5q0 -338 -185 -533t-493 -195q-199 0 -348 94.5t-225 253t-76 357.5zM401 688q0 -207 90.5 -335t245.5 -128q103 0 179 61.5t114.5 167t38.5 240.5q0 127 -37.5 231t-114 168 t-180.5 64q-156 0 -246 -131.5t-90 -337.5zM471 1507v166h530v-166h-530z" />
<glyph unicode="&#x14d;" horiz-adv-x="1181" d="M68 494q0 244 146 388t390 144q228 0 369 -143t141 -371q0 -133 -44.5 -237.5t-119.5 -168t-168 -96.5t-196 -33q-226 0 -372 140t-146 377zM336 1192v172h512v-172h-512zM389 502q0 -133 54 -217t151 -84q92 0 145.5 83t53.5 220q0 78 -19.5 143.5t-66 110.5t-113.5 45 q-70 0 -118 -46t-67.5 -111.5t-19.5 -143.5z" />
<glyph unicode="&#x14e;" horiz-adv-x="1468" d="M72 682q0 206 82 370t236 258.5t353 94.5q155 0 281 -55.5t207 -151t124.5 -222t43.5 -271.5q0 -338 -185 -533t-493 -195q-199 0 -348 94.5t-225 253t-76 357.5zM401 688q0 -207 90.5 -335t245.5 -128q103 0 179 61.5t114.5 167t38.5 240.5q0 127 -37.5 231t-114 168 t-180.5 64q-156 0 -246 -131.5t-90 -337.5zM446 1726h166q13 -94 121 -94q110 0 129 94h160q-3 -118 -75 -188t-214 -70q-144 0 -214 69.5t-73 188.5z" />
<glyph unicode="&#x14f;" horiz-adv-x="1181" d="M68 494q0 244 146 388t390 144q228 0 369 -143t141 -371q0 -133 -44.5 -237.5t-119.5 -168t-168 -96.5t-196 -33q-226 0 -372 140t-146 377zM305 1417h162q17 -125 121 -125q59 0 90.5 35.5t34.5 89.5h161q-2 -133 -76 -212t-210 -79q-137 0 -209 81t-74 210zM389 502 q0 -133 54 -217t151 -84q92 0 145.5 83t53.5 220q0 78 -19.5 143.5t-66 110.5t-113.5 45q-70 0 -118 -46t-67.5 -111.5t-19.5 -143.5z" />
<glyph unicode="&#x150;" horiz-adv-x="1468" d="M72 682q0 206 82 370t236 258.5t353 94.5q155 0 281 -55.5t207 -151t124.5 -222t43.5 -271.5q0 -338 -185 -533t-493 -195q-199 0 -348 94.5t-225 253t-76 357.5zM401 688q0 -207 90.5 -335t245.5 -128q103 0 179 61.5t114.5 167t38.5 240.5q0 127 -37.5 231t-114 168 t-180.5 64q-156 0 -246 -131.5t-90 -337.5zM444 1473l134 237h288l-207 -237h-215zM815 1473l135 237h287l-207 -237h-215z" />
<glyph unicode="&#x151;" horiz-adv-x="1181" d="M68 494q0 244 146 388t390 144q228 0 369 -143t141 -371q0 -133 -44.5 -237.5t-119.5 -168t-168 -96.5t-196 -33q-226 0 -372 140t-146 377zM279 1130l129 306h245l-198 -306h-176zM389 502q0 -133 54 -217t151 -84q92 0 145.5 83t53.5 220q0 78 -19.5 143.5t-66 110.5 t-113.5 45q-70 0 -118 -46t-67.5 -111.5t-19.5 -143.5zM633 1130l131 306h246l-201 -306h-176z" />
<glyph unicode="&#x152;" horiz-adv-x="1916" d="M72 678q0 331 191.5 529t506.5 198q86 0 184 -12q111 -13 129 -13h725v-256h-538v-286h508v-254h-508v-328h567v-256h-778q-31 0 -125 -12q-129 -11 -170 -11q-138 0 -252.5 37t-195 102t-136 154t-82 192t-26.5 216zM401 690q0 -209 110.5 -337t307.5 -128q84 0 139 25 v878q-63 29 -161 29q-81 0 -152.5 -31t-126 -88.5t-86 -147t-31.5 -200.5z" />
<glyph unicode="&#x153;" horiz-adv-x="1777" d="M68 500q0 235 143 380.5t367 145.5q113 0 208 -46t144 -132h4q59 87 150 132.5t198 45.5q92 0 166.5 -29t124 -77t83 -113t48 -135t14.5 -146q0 -38 -8 -118h-633q6 -90 83.5 -144.5t189.5 -54.5q138 0 278 53l43 -209q-138 -76 -364 -76q-246 0 -369 179h-6 q-61 -89 -159.5 -134t-215.5 -45q-209 0 -349 142t-140 381zM389 502q0 -132 53.5 -216.5t147.5 -84.5t146 82t52 221q0 127 -49.5 213t-146.5 86q-56 0 -97 -27t-63.5 -72t-32.5 -95.5t-10 -106.5zM1073 618h357q0 32 -6.5 62t-23.5 63.5t-54 53.5t-91 20q-59 0 -102 -34 t-61 -77.5t-19 -87.5z" />
<glyph unicode="&#x154;" horiz-adv-x="1214" d="M135 0v1362q181 29 416 29q309 0 446 -109q129 -101 129 -291q0 -122 -72 -212t-171 -126v-6q128 -52 184 -256q12 -43 39 -149.5t43.5 -162t28.5 -79.5h-320q-38 78 -94 322q-19 87 -48 134.5t-70.5 66.5t-108.5 20h-93v-543h-309zM432 1456l172 252h328l-250 -252h-250 zM444 768h123q116 0 182 53.5t66 145.5q0 93 -60 141.5t-169 48.5q-104 0 -142 -10v-379z" />
<glyph unicode="&#x155;" horiz-adv-x="778" d="M117 1001h266l12 -184h8q36 103 112.5 156t158.5 53q30 0 65 -6v-293q-50 8 -84 8q-85 0 -141.5 -42t-71.5 -115q-6 -30 -6 -70v-508h-311v672q0 214 -8 329zM258 1126l174 312h289l-250 -312h-213z" />
<glyph unicode="&#x156;" horiz-adv-x="1214" d="M135 0v1362q181 29 416 29q309 0 446 -109q129 -101 129 -291q0 -122 -72 -212t-171 -126v-6q128 -52 184 -256q12 -43 39 -149.5t43.5 -162t28.5 -79.5h-320q-38 78 -94 322q-19 87 -48 134.5t-70.5 66.5t-108.5 20h-93v-543h-309zM420 -358q56 10 95.5 43t39.5 82 q0 57 -59 120l215 37q34 -26 57 -68.5t23 -93.5q0 -121 -90.5 -185t-233.5 -69zM444 768h123q116 0 182 53.5t66 145.5q0 93 -60 141.5t-169 48.5q-104 0 -142 -10v-379z" />
<glyph unicode="&#x157;" horiz-adv-x="778" d="M88 -362q56 10 95.5 42.5t39.5 81.5q0 58 -59 121l215 37q34 -26 57 -68.5t23 -93.5q0 -121 -90.5 -185t-233.5 -69zM117 1001h266l12 -184h8q36 103 112.5 156t158.5 53q30 0 65 -6v-293q-50 8 -84 8q-85 0 -141.5 -42t-71.5 -115q-6 -30 -6 -70v-508h-311v672 q0 214 -8 329z" />
<glyph unicode="&#x158;" horiz-adv-x="1214" d="M135 0v1362q181 29 416 29q309 0 446 -109q129 -101 129 -291q0 -122 -72 -212t-171 -126v-6q128 -52 184 -256q12 -43 39 -149.5t43.5 -162t28.5 -79.5h-320q-38 78 -94 322q-19 87 -48 134.5t-70.5 66.5t-108.5 20h-93v-543h-309zM272 1708h220l102 -127h4l102 127h218 l-205 -252h-234zM444 768h123q116 0 182 53.5t66 145.5q0 93 -60 141.5t-169 48.5q-104 0 -142 -10v-379z" />
<glyph unicode="&#x159;" horiz-adv-x="778" d="M100 1438h203l105 -178h4l102 178h205l-205 -312h-211zM117 1001h266l12 -184h8q36 103 112.5 156t158.5 53q30 0 65 -6v-293q-50 8 -84 8q-85 0 -141.5 -42t-71.5 -115q-6 -30 -6 -70v-508h-311v672q0 214 -8 329z" />
<glyph unicode="&#x15a;" horiz-adv-x="1105" d="M82 66l63 256q69 -36 161.5 -61t185.5 -25q105 0 162 40t57 109q0 64 -52.5 107t-179.5 86q-381 136 -381 409q0 181 142.5 297.5t380.5 116.5q205 0 352 -70l-70 -250q-130 66 -287 66q-96 0 -148 -38.5t-52 -94.5q0 -62 55 -101t201 -94q184 -68 270 -166.5t86 -244.5 q0 -88 -34 -164.5t-100.5 -136t-174.5 -93.5t-246 -34q-112 0 -219.5 25.5t-171.5 60.5zM428 1456l170 252h330l-250 -252h-250z" />
<glyph unicode="&#x15b;" horiz-adv-x="888" d="M68 49l55 221q46 -28 124 -50.5t144 -22.5q133 0 133 82q0 40 -29.5 63.5t-115.5 52.5q-150 50 -219.5 128t-67.5 173q0 143 112.5 236.5t295.5 93.5q164 0 280 -59l-53 -215q-40 22 -99.5 39.5t-117.5 17.5q-56 0 -87.5 -21.5t-31.5 -58.5q0 -36 34 -60t128 -57 q140 -49 204 -124t66 -185q0 -146 -111.5 -236t-320.5 -90q-190 0 -323 72zM322 1126l176 312h286l-249 -312h-213z" />
<glyph unicode="&#x15c;" horiz-adv-x="1105" d="M82 66l63 256q69 -36 161.5 -61t185.5 -25q105 0 162 40t57 109q0 64 -52.5 107t-179.5 86q-381 136 -381 409q0 181 142.5 297.5t380.5 116.5q205 0 352 -70l-70 -250q-130 66 -287 66q-96 0 -148 -38.5t-52 -94.5q0 -62 55 -101t201 -94q184 -68 270 -166.5t86 -244.5 q0 -88 -34 -164.5t-100.5 -136t-174.5 -93.5t-246 -34q-112 0 -219.5 25.5t-171.5 60.5zM236 1456l202 252h236l207 -252h-219l-103 127h-4l-102 -127h-217z" />
<glyph unicode="&#x15d;" horiz-adv-x="888" d="M68 49l55 221q46 -28 124 -50.5t144 -22.5q133 0 133 82q0 40 -29.5 63.5t-115.5 52.5q-150 50 -219.5 128t-67.5 173q0 143 112.5 236.5t295.5 93.5q164 0 280 -59l-53 -215q-40 22 -99.5 39.5t-117.5 17.5q-56 0 -87.5 -21.5t-31.5 -58.5q0 -36 34 -60t128 -57 q140 -49 204 -124t66 -185q0 -146 -111.5 -236t-320.5 -90q-190 0 -323 72zM143 1126l203 312h211l203 -312h-203l-104 179h-4l-103 -179h-203z" />
<glyph unicode="&#x15e;" horiz-adv-x="1105" d="M82 66l63 256q69 -36 161.5 -61t185.5 -25q105 0 162 40t57 109q0 64 -52.5 107t-179.5 86q-381 136 -381 409q0 181 142.5 297.5t380.5 116.5q205 0 352 -70l-70 -250q-130 66 -287 66q-96 0 -148 -38.5t-52 -94.5q0 -62 55 -101t201 -94q184 -68 270 -166.5t86 -244.5 q0 -154 -100 -266.5t-293 -147.5l-45 -82q61 -8 104 -49t43 -99q0 -93 -71 -137.5t-177 -44.5q-101 0 -165 41l41 115q58 -33 112 -33q31 0 51.5 13t20.5 40q0 63 -160 74l74 148h-6q-90 0 -199 25t-176 61z" />
<glyph unicode="&#x15f;" horiz-adv-x="888" d="M66 49l57 221q46 -28 124 -50.5t144 -22.5q133 0 133 82q0 40 -29.5 63.5t-115.5 52.5q-149 50 -218 128t-69 173q2 144 113.5 237t294.5 93q164 0 280 -59l-53 -215q-40 22 -99.5 39.5t-117.5 17.5q-56 0 -87.5 -21.5t-31.5 -58.5q0 -36 34 -60t128 -57 q141 -49 205.5 -123.5t64.5 -185.5q0 -120 -77 -203t-224 -110l-45 -80q61 -8 104.5 -49t43.5 -101q0 -93 -70.5 -135.5t-179.5 -42.5q-97 0 -164 41l41 115q58 -33 113 -33q30 0 50.5 13t20.5 40q0 63 -160 74l76 148h-4q-54 0 -133.5 16.5t-148.5 52.5z" />
<glyph unicode="&#x160;" horiz-adv-x="1105" d="M82 66l63 256q69 -36 161.5 -61t185.5 -25q105 0 162 40t57 109q0 64 -52.5 107t-179.5 86q-381 136 -381 409q0 181 142.5 297.5t380.5 116.5q205 0 352 -70l-70 -250q-130 66 -287 66q-96 0 -148 -38.5t-52 -94.5q0 -62 55 -101t201 -94q184 -68 270 -166.5t86 -244.5 q0 -88 -34 -164.5t-100.5 -136t-174.5 -93.5t-246 -34q-112 0 -219.5 25.5t-171.5 60.5zM250 1708h219l102 -127h4l103 127h217l-207 -252h-231z" />
<glyph unicode="&#x161;" horiz-adv-x="888" d="M68 49l55 221q46 -28 124 -50.5t144 -22.5q133 0 133 82q0 40 -29.5 63.5t-115.5 52.5q-150 50 -219.5 128t-67.5 173q0 143 112.5 236.5t295.5 93.5q164 0 280 -59l-53 -215q-40 22 -99.5 39.5t-117.5 17.5q-56 0 -87.5 -21.5t-31.5 -58.5q0 -36 34 -60t128 -57 q140 -49 204 -124t66 -185q0 -146 -111.5 -236t-320.5 -90q-190 0 -323 72zM141 1438h203l105 -178h4l102 178h205l-205 -312h-211z" />
<glyph unicode="&#x162;" horiz-adv-x="1122" d="M31 1118v262h1061v-262h-377v-1118h-312v1118h-372zM346 -362q56 10 95.5 42.5t39.5 81.5q0 58 -59 121l215 37q34 -26 57 -68.5t23 -93.5q0 -121 -90.5 -185t-233.5 -69z" />
<glyph unicode="&#x163;" horiz-adv-x="751" d="M35 772v229h133v187l305 84v-271h223v-229h-223v-362q0 -93 28 -135t95 -42q48 0 92 9l2 -236q-72 -26 -201 -26q-149 0 -235 86q-86 89 -86 296v410h-133zM211 -365q56 10 95.5 43t39.5 82q0 58 -59 121l215 37q34 -26 57 -68.5t23 -93.5q0 -121 -90.5 -185t-233.5 -69z " />
<glyph unicode="&#x164;" horiz-adv-x="1122" d="M31 1118v262h1061v-262h-377v-1118h-312v1118h-372zM238 1706h219l102 -127h4l103 127h217l-205 -252h-234z" />
<glyph unicode="&#x165;" horiz-adv-x="759" d="M35 772v229h133v189l305 84v-273h223v-229h-223v-362q0 -93 27 -135t94 -42q48 0 92 9l4 -236q-76 -26 -201 -26q-149 0 -235 86q-86 89 -86 296v410h-133zM596 1212q30 20 49 60t19 82q0 56 -37 110l198 33q27 -20 46.5 -59.5t19.5 -81.5q0 -55 -22 -101.5t-57 -77 t-70.5 -50t-69.5 -27.5z" />
<glyph unicode="&#x166;" horiz-adv-x="1122" d="M31 1118v262h1061v-262h-377v-340h235v-184h-235v-594h-312v594h-237v184h237v340h-372z" />
<glyph unicode="&#x167;" horiz-adv-x="751" d="M35 772v229h133v187l305 84v-271h223v-229h-223v-143h170v-164h-170v-78q0 -81 29.5 -117.5t93.5 -36.5q48 0 92 9l2 -236q-72 -26 -201 -26q-149 0 -235 86q-86 89 -86 296v103h-127v164h127v143h-133z" />
<glyph unicode="&#x168;" horiz-adv-x="1396" d="M135 610v770h311v-792q0 -178 65 -269.5t185 -91.5q254 0 254 361v792h312v-774q0 -314 -150 -471.5t-426 -157.5q-267 0 -409 155.5t-142 477.5zM412 1464q-3 126 39.5 193t117.5 67q65 0 131 -41q66 -38 91 -38q26 0 37.5 18t17.5 70h139q3 -134 -37.5 -195t-122.5 -61 q-61 0 -133 39q-7 4 -20 11.5t-19 10.5t-15.5 7t-17.5 5.5t-16 1.5q-43 0 -49 -88h-143z" />
<glyph unicode="&#x169;" horiz-adv-x="1193" d="M121 414v587h311v-538q0 -234 158 -234q59 0 99 33t56 76q13 29 13 68v595h311v-679q0 -154 8 -322h-270l-14 141h-7q-17 -27 -41 -52t-61.5 -52t-92 -43.5t-118.5 -16.5q-162 0 -257 107.5t-95 329.5zM305 1141q-4 128 42 199t126 71q53 0 133 -41q9 -5 24.5 -13.5 t24 -13t19.5 -8.5t20 -4q26 0 38 19t16 71h143q8 -262 -168 -262q-12 0 -23 1t-22.5 4t-19.5 5.5t-20.5 7.5t-18 7.5t-19.5 9t-18 8.5q-7 4 -23 13t-21.5 11.5t-15 5.5t-18.5 3q-45 0 -51 -94h-148z" />
<glyph unicode="&#x16a;" horiz-adv-x="1396" d="M135 610v770h311v-792q0 -178 65 -269.5t185 -91.5q254 0 254 361v792h312v-774q0 -314 -150 -471.5t-426 -157.5q-267 0 -409 155.5t-142 477.5zM434 1503v166h531v-166h-531z" />
<glyph unicode="&#x16b;" horiz-adv-x="1193" d="M121 414v587h311v-538q0 -234 158 -234q59 0 99 33t56 76q13 29 13 68v595h311v-679q0 -154 8 -322h-270l-14 141h-7q-17 -27 -41 -52t-61.5 -52t-92 -43.5t-118.5 -16.5q-162 0 -257 107.5t-95 329.5zM342 1192v172h512v-172h-512z" />
<glyph unicode="&#x16c;" horiz-adv-x="1396" d="M135 610v770h311v-792q0 -178 65 -269.5t185 -91.5q254 0 254 361v792h312v-774q0 -314 -150 -471.5t-426 -157.5q-267 0 -409 155.5t-142 477.5zM410 1712h165q13 -94 121 -94q110 0 129 94h160q-3 -118 -75 -188t-214 -70q-144 0 -213.5 69.5t-72.5 188.5z" />
<glyph unicode="&#x16d;" horiz-adv-x="1193" d="M121 414v587h311v-538q0 -234 158 -234q59 0 99 33t56 76q13 29 13 68v595h311v-679q0 -154 8 -322h-270l-14 141h-7q-17 -27 -41 -52t-61.5 -52t-92 -43.5t-118.5 -16.5q-162 0 -257 107.5t-95 329.5zM313 1417h162q17 -125 121 -125q59 0 89.5 35.5t33.5 89.5h162 q-2 -132 -76 -211.5t-209 -79.5q-137 0 -209 81t-74 210z" />
<glyph unicode="&#x16e;" horiz-adv-x="1396" d="M135 610v770h311v-792q0 -178 65 -269.5t185 -91.5q254 0 254 361v792h312v-774q0 -314 -150 -471.5t-426 -157.5q-267 0 -409 155.5t-142 477.5zM463 1610q0 89 63 147t176 58q111 0 171.5 -57t60.5 -146q0 -85 -64 -142t-170 -57q-109 0 -173 56t-64 141zM606 1612 q0 -39 24.5 -66.5t65.5 -27.5q43 0 67.5 26.5t24.5 67.5q0 40 -25.5 69t-68.5 29q-41 0 -64.5 -29.5t-23.5 -68.5z" />
<glyph unicode="&#x16f;" horiz-adv-x="1193" d="M121 414v587h311v-538q0 -234 158 -234q59 0 99 33t56 76q13 29 13 68v595h311v-679q0 -154 8 -322h-270l-14 141h-7q-17 -27 -41 -52t-61.5 -52t-92 -43.5t-118.5 -16.5q-162 0 -257 107.5t-95 329.5zM362 1303q0 90 63.5 147t176.5 57q107 0 168 -56.5t61 -145.5 q0 -88 -63.5 -144.5t-167.5 -56.5q-108 0 -173 56t-65 143zM506 1303q0 -38 25.5 -67.5t66.5 -29.5q43 0 68.5 29t25.5 70t-25.5 70.5t-70.5 29.5q-42 0 -66 -30t-24 -72z" />
<glyph unicode="&#x170;" horiz-adv-x="1396" d="M135 610v770h311v-792q0 -178 65 -269.5t185 -91.5q254 0 254 361v792h312v-774q0 -314 -150 -471.5t-426 -157.5q-267 0 -409 155.5t-142 477.5zM395 1470l133 238h289l-207 -238h-215zM766 1470l135 238h287l-207 -238h-215z" />
<glyph unicode="&#x171;" horiz-adv-x="1193" d="M121 414v587h311v-538q0 -234 158 -234q59 0 99 33t56 76q13 29 13 68v595h311v-679q0 -154 8 -322h-270l-14 141h-7q-17 -27 -41 -52t-61.5 -52t-92 -43.5t-118.5 -16.5q-162 0 -257 107.5t-95 329.5zM319 1130l130 306h245l-198 -306h-177zM674 1130l131 306h246 l-201 -306h-176z" />
<glyph unicode="&#x172;" horiz-adv-x="1396" d="M135 608v772h311v-794q0 -178 64.5 -269.5t183.5 -91.5q256 0 256 361v794h312v-776q0 -257 -102.5 -408.5t-293.5 -195.5q-110 -101 -110 -178q0 -35 24.5 -55.5t59.5 -20.5q44 0 88 18l43 -145q-94 -65 -223 -65q-101 0 -156 48.5t-55 131.5q0 118 118 246h-12 q-244 9 -376 163t-132 465z" />
<glyph unicode="&#x173;" horiz-adv-x="1193" d="M121 414v587h311v-538q0 -234 158 -234q59 0 99 33t56 76q13 29 13 68v595h311v-679q0 -158 8 -322l-98 2q-45 -79 -45 -141q0 -51 31 -83t79 -32q56 0 91 14l43 -143q-39 -32 -96.5 -49t-112.5 -17q-108 0 -169 56t-61 164q0 15 1.5 31t5 32t7 30t9 29.5t9.5 26.5 t10.5 26t9.5 21.5l9 19.5t7 15l-14 139h-7q-17 -27 -41 -52t-61.5 -52t-92 -43.5t-118.5 -16.5q-162 0 -257 107.5t-95 329.5z" />
<glyph unicode="&#x174;" horiz-adv-x="1818" d="M31 1380h334l104 -567q18 -98 82 -483h4q28 181 90 487l117 563h332l110 -581q43 -226 74 -463h4q12 90 80 481l113 563h317l-356 -1380h-338l-117 594q-48 246 -66 426h-4q-44 -274 -80 -426l-131 -594h-342zM598 1454l205 252h233l207 -252h-219l-102 127h-4l-103 -127 h-217z" />
<glyph unicode="&#x175;" horiz-adv-x="1554" d="M23 1001h317l82 -411q44 -251 55 -328h6q8 52 19 103.5t30.5 130t22.5 92.5l107 413h245l101 -399q52 -207 73 -340h4q19 153 60 342l84 397h305l-307 -1001h-291l-94 350q-38 136 -66 314h-4q-25 -171 -63 -312l-101 -352h-293zM469 1126l205 312h209l202 -312h-202 l-103 179h-4l-104 -179h-203z" />
<glyph unicode="&#x176;" horiz-adv-x="1234" d="M18 1380h359l139 -331q67 -155 107 -265h4q43 119 104 265l139 331h351l-455 -805v-575h-311v565zM295 1454l205 252h233l207 -252h-219l-103 127h-4l-102 -127h-217z" />
<glyph unicode="&#x177;" horiz-adv-x="1071" d="M12 1001h346l150 -493q36 -127 49 -186h8q18 84 43 188l125 491h332l-234 -659q-103 -287 -183 -432.5t-169 -224.5q-137 -121 -299 -138l-67 263q66 14 135 53q35 19 71 53.5t58 71.5q16 26 16 45q0 21 -12 51zM240 1126l204 312h209l203 -312h-203l-102 179h-4 l-105 -179h-202z" />
<glyph unicode="&#x178;" horiz-adv-x="1234" d="M18 1380h359l139 -331q67 -155 107 -265h4q43 119 104 265l139 331h351l-455 -805v-575h-311v565zM283 1595q0 60 40.5 101t100.5 41q57 0 96 -40.5t39 -101.5q0 -58 -39 -98.5t-98 -40.5q-58 0 -98.5 41t-40.5 98zM709 1595q0 60 39.5 101t99.5 41q59 0 98 -40.5 t39 -101.5q0 -58 -39.5 -98.5t-99.5 -40.5q-59 0 -98 40.5t-39 98.5z" />
<glyph unicode="&#x179;" horiz-adv-x="1181" d="M49 0v168l658 946v8h-598v258h1001v-180l-643 -934v-8h653v-258h-1071zM438 1454l172 252h328l-250 -252h-250z" />
<glyph unicode="&#x17a;" horiz-adv-x="960" d="M45 0v178l315 395q88 102 158 177v4h-438v247h819v-188l-301 -379q-13 -14 -40 -45.5t-42.5 -49.5t-38.5 -43t-43 -44v-4h481v-248h-870zM354 1126l174 312h289l-250 -312h-213z" />
<glyph unicode="&#x17b;" horiz-adv-x="1181" d="M49 0v168l658 946v8h-598v258h1001v-180l-643 -934v-8h653v-258h-1071zM457 1599q0 60 41.5 101t101.5 41q58 0 97.5 -41t39.5 -101q0 -57 -40 -98t-99 -41t-100 41.5t-41 97.5z" />
<glyph unicode="&#x17c;" horiz-adv-x="960" d="M45 0v178l315 395q88 102 158 177v4h-438v247h819v-188l-301 -379q-13 -14 -40 -45.5t-42.5 -49.5t-38.5 -43t-43 -44v-4h481v-248h-870zM342 1284q0 63 41.5 104.5t103.5 41.5q60 0 100 -41.5t40 -104.5q0 -59 -40.5 -101t-101.5 -42t-102 42t-41 101z" />
<glyph unicode="&#x17d;" horiz-adv-x="1181" d="M49 0v168l658 946v8h-598v258h1001v-180l-643 -934v-8h653v-258h-1071zM281 1706h219l102 -127h4l103 127h217l-205 -252h-234z" />
<glyph unicode="&#x17e;" horiz-adv-x="960" d="M45 0v178l315 395q88 102 158 177v4h-438v247h819v-188l-301 -379q-13 -14 -40 -45.5t-42.5 -49.5t-38.5 -43t-43 -44v-4h481v-248h-870zM182 1438h203l104 -178h5l102 178h205l-205 -312h-211z" />
<glyph unicode="&#x192;" horiz-adv-x="1136" d="M55 -152l43 218q40 -16 97 -19q53 1 82.5 26.5t48.5 86.5t34 180l33 287h-160v215h187l6 67q4 34 11 68t22.5 80t36.5 85t56 79.5t78 68.5t105 46t135 18q102 0 170 -33l-49 -221q-49 18 -98 18q-142 0 -162 -186l-12 -90h209v-215h-236l-45 -367q-10 -81 -26 -143 t-46.5 -121t-73 -97.5t-108.5 -61.5t-151 -23q-127 3 -187 34z" />
<glyph unicode="&#x1a0;" horiz-adv-x="1468" d="M72 682q0 206 82 370t236 258.5t353 94.5q138 0 252 -43q23 -8 67.5 -28t78 -32t57.5 -12q76 0 76 84q0 73 -45 150l223 39q49 -104 49 -209q0 -98 -55.5 -160.5t-161.5 -65.5q115 -176 115 -423q0 -338 -185 -533t-493 -195q-199 0 -348 94.5t-225 253t-76 357.5z M401 690q0 -202 91 -333.5t245 -131.5q103 0 179 61.5t114.5 167t38.5 240.5q0 127 -38 231t-114.5 168t-179.5 64q-104 0 -181.5 -64t-116 -168.5t-38.5 -234.5z" />
<glyph unicode="&#x1a1;" horiz-adv-x="1204" d="M68 494q0 244 146 388t388 144q95 0 184 -29q17 -5 51.5 -20t63.5 -25t51 -10q73 0 70 74q0 69 -43 143l219 37q45 -85 45 -192q0 -94 -52 -151.5t-147 -66.5q70 -120 70 -274q0 -133 -44.5 -237.5t-119.5 -168t-168 -96.5t-196 -33q-226 0 -372 140t-146 377zM389 502 q0 -133 54 -217t151 -84q90 0 144.5 83t54.5 220q0 78 -19.5 143.5t-66 110.5t-113.5 45q-70 0 -118 -46t-67.5 -111.5t-19.5 -143.5z" />
<glyph unicode="&#x1af;" horiz-adv-x="1490" d="M135 610v770h311v-792q0 -178 65 -269.5t185 -91.5q254 0 254 361v792h238q60 0 83 19t23 61q0 62 -43 137l219 35q46 -90 46 -192q0 -95 -55 -153t-165 -68l-34 -5v-608q0 -314 -150 -471.5t-426 -157.5q-267 0 -409 155.5t-142 477.5z" />
<glyph unicode="&#x1b0;" horiz-adv-x="1193" d="M121 412v589h311v-538q0 -234 158 -234q59 0 99 33t56 76q13 29 13 68v595h188q109 0 109 84q0 61 -45 136l219 36q45 -88 45 -186q0 -90 -53 -145t-136 -66h-16v-538q0 -154 8 -322h-270l-14 141h-7q-17 -27 -41 -52t-61.5 -52t-92 -43.5t-118.5 -16.5q-162 0 -257 107 t-95 328z" />
<glyph unicode="&#x1fa;" horiz-adv-x="1343" d="M37 0l420 1380h409l430 -1380h-338l-104 354h-397l-99 -354h-321zM455 1602q0 77 58.5 129.5t162.5 52.5t160.5 -51.5t56.5 -130.5t-59 -131t-160 -52q-100 0 -159.5 52.5t-59.5 130.5zM502 588h305l-86 293q-26 84 -70 266h-4q-5 -19 -27.5 -119t-35.5 -147zM524 1821 l221 188h340l-301 -188h-260zM586 1602q0 -32 23 -55t63 -23q42 0 66 22t24 58q0 34 -25 58t-67 24q-41 0 -62.5 -24t-21.5 -60z" />
<glyph unicode="&#x1fb;" horiz-adv-x="1081" d="M59 285q0 190 157 286.5t431 96.5v12q0 53 -39.5 92t-142.5 39q-73 0 -148 -21.5t-129 -54.5l-57 201q162 90 389 90q121 0 208.5 -33.5t136.5 -95t71 -136.5t22 -169v-348q0 -167 19 -244h-281l-18 100h-6q-101 -123 -289 -123q-146 0 -235 91t-89 217zM307 1274 q0 90 63 147.5t175 57.5q109 0 170 -57t61 -148q0 -86 -64 -142.5t-169 -56.5q-107 0 -171.5 56.5t-64.5 142.5zM367 315q0 -58 34.5 -88t90.5 -30t100 32.5t59 81.5q6 24 6 54v108q-290 0 -290 -158zM412 1524l229 239h287l-301 -239h-215zM451 1274q0 -38 24.5 -67 t65.5 -29q44 0 70 28.5t26 69.5t-25.5 70.5t-70.5 29.5q-42 0 -66 -30.5t-24 -71.5z" />
<glyph unicode="&#x1fc;" horiz-adv-x="1777" d="M6 0l588 1380h1051v-256h-568l37 -293h522v-253h-483l43 -322h524l-2 -256h-790l-49 377h-402l-151 -377h-320zM569 627h275l-41 334q-14 109 -25 200h-6q-12 -36 -36.5 -105.5t-33.5 -97.5zM811 1454l172 252h328l-250 -252h-250z" />
<glyph unicode="&#x1fd;" horiz-adv-x="1644" d="M59 291q0 180 159.5 275.5t432.5 95.5v26q0 14 -8 31.5t-27 39t-60 36t-97 14.5q-71 0 -142.5 -22.5t-123.5 -53.5l-62 197q170 94 354 94q236 0 330 -162h6q124 162 342 162q107 0 190 -43t132 -115t73.5 -158t24.5 -180q0 -12 -8 -112h-633q3 -95 77 -151t193 -56 q156 0 281 53l43 -209q-148 -76 -369 -76q-126 0 -228.5 47t-154.5 132h-6q-132 -179 -372 -179q-159 0 -253 90.5t-94 223.5zM365 313q0 -56 36 -86t91 -30q56 0 97.5 29.5t61.5 74.5q8 24 8 64v104q-135 2 -214.5 -36t-79.5 -120zM672 1126l174 312h289l-250 -312h-213z M940 627h356q1 28 -6 58t-24 62t-53.5 53t-86.5 21q-88 0 -136 -63.5t-50 -130.5z" />
<glyph unicode="&#x1fe;" horiz-adv-x="1468" d="M72 690q0 150 48.5 281.5t134 227.5t210.5 151t272 55q172 0 305 -74l113 166l178 -119l-114 -172q88 -95 134 -227t46 -279q0 -167 -50 -303.5t-138 -228t-209.5 -141.5t-264.5 -50q-160 0 -297 70l-125 -182l-168 131l115 176q-92 95 -141 229.5t-49 288.5zM385 692 q0 -137 53 -254h2l459 672q-70 51 -162 51q-163 0 -257.5 -130.5t-94.5 -338.5zM582 1464l172 252h327l-250 -252h-249zM586 270q58 -49 149 -49q161 0 255.5 130t94.5 343q0 127 -45 236h-4z" />
<glyph unicode="&#x1ff;" horiz-adv-x="1181" d="M68 500q0 236 145 381t379 145q133 0 242 -53l96 139l108 -76l-94 -137q81 -68 124.5 -169t43.5 -224q0 -129 -44.5 -232.5t-118.5 -167t-165.5 -96.5t-191.5 -33q-136 0 -238 54l-100 -146l-102 82l90 133q-174 144 -174 400zM367 502q0 -99 34 -160l7 -2l292 426 q-46 37 -112 37q-58 0 -102.5 -27t-69.5 -72t-37 -96t-12 -106zM444 1126l177 312h286l-250 -312h-213zM485 238q40 -37 105 -37q103 0 163 81t60 216q0 90 -33 155h-4z" />
<glyph unicode="&#x218;" horiz-adv-x="1105" d="M82 66l63 256q69 -36 161.5 -61t185.5 -25q105 0 162 40t57 109q0 64 -52.5 107t-179.5 86q-381 136 -381 409q0 181 142.5 297.5t380.5 116.5q205 0 352 -70l-70 -250q-130 66 -287 66q-96 0 -148 -38.5t-52 -94.5q0 -62 55 -101t201 -94q184 -68 270 -166.5t86 -244.5 q0 -88 -34 -164.5t-100.5 -136t-174.5 -93.5t-246 -34q-112 0 -219.5 25.5t-171.5 60.5zM360 -362q56 10 96 42.5t40 81.5q0 57 -60 121l215 37q34 -26 57 -68.5t23 -93.5q0 -121 -90.5 -185t-234.5 -69z" />
<glyph unicode="&#x219;" horiz-adv-x="888" d="M68 49l55 221q46 -28 124 -50.5t144 -22.5q133 0 133 82q0 40 -29.5 63.5t-115.5 52.5q-150 50 -219.5 128t-67.5 173q0 143 112.5 236.5t295.5 93.5q164 0 280 -59l-53 -215q-40 22 -99.5 39.5t-117.5 17.5q-56 0 -87.5 -21.5t-31.5 -58.5q0 -36 34 -60t128 -57 q140 -49 204 -124t66 -185q0 -146 -111.5 -236t-320.5 -90q-190 0 -323 72zM250 -362q56 10 95.5 42.5t39.5 81.5q0 58 -59 121l215 37q34 -26 57 -68.5t23 -93.5q0 -121 -90.5 -185t-233.5 -69z" />
<glyph unicode="&#x21a;" horiz-adv-x="1122" d="M31 1118v262h1061v-262h-377v-1118h-312v1118h-372zM346 -362q56 10 95.5 42.5t39.5 81.5q0 58 -59 121l215 37q34 -26 57 -68.5t23 -93.5q0 -121 -90.5 -185t-233.5 -69z" />
<glyph unicode="&#x21b;" horiz-adv-x="751" d="M35 772v229h133v187l305 84v-271h223v-229h-223v-362q0 -93 28 -135t95 -42q48 0 92 9l2 -236q-72 -26 -201 -26q-149 0 -235 86q-86 89 -86 296v410h-133zM211 -365q56 10 95.5 43t39.5 82q0 58 -59 121l215 37q34 -26 57 -68.5t23 -93.5q0 -121 -90.5 -185t-233.5 -69z " />
<glyph unicode="&#x21c;" horiz-adv-x="1099" d="M76 1298q78 46 185 76.5t218 30.5q188 0 306.5 -87.5t117.5 -234.5q0 -107 -66.5 -193.5t-177.5 -135.5v-4q158 -23 260 -120t101 -253q0 -128 -69 -243.5t-186 -198t-276 -133.5t-335 -58l-35 238q63 6 137 25t151.5 52.5t140 76.5t102 102t38.5 122q0 80 -61 138.5 t-178 58.5q-37 0 -98.5 -9.5t-108.5 -25.5l-35 209q101 19 186 57.5t143 101t58 134.5q0 61 -51 100t-133 41q-131 0 -275 -71z" />
<glyph unicode="&#x21d;" horiz-adv-x="970" d="M39 918q69 47 173 76.5t212 29.5q181 0 286 -79t105 -216q0 -177 -213 -268v-4q144 -22 226.5 -107t82.5 -215q0 -124 -67 -229.5t-179 -176.5t-257.5 -112t-303.5 -45l-34 238q29 0 65.5 3.5t88 12.5t100 23t97.5 37t85 52.5t59 72t23 93.5q0 66 -47 114t-158 48 q-63 0 -176 -33l-41 211q348 73 348 222q0 58 -45 89t-127 31q-106 0 -246 -71z" />
<glyph unicode="&#x232;" horiz-adv-x="1234" d="M18 1380h359l139 -331q67 -155 107 -265h4q43 119 104 265l139 331h351l-455 -805v-575h-311v565zM352 1503v166h531v-166h-531z" />
<glyph unicode="&#x233;" horiz-adv-x="1071" d="M12 1001h346l150 -493q36 -127 49 -186h8q18 84 43 188l125 491h332l-234 -659q-103 -287 -183 -432.5t-169 -224.5q-137 -121 -299 -138l-67 263q66 14 135 53q35 19 71 53.5t58 71.5q16 26 16 45q0 21 -12 51zM281 1192v172h512v-172h-512z" />
<glyph unicode="&#x2c6;" d="M0 1126l205 312h209l202 -312h-202l-103 179h-4l-104 -179h-203z" />
<glyph unicode="&#x2c7;" d="M-2 1438h203l104 -178h4l103 178h204l-204 -312h-211z" />
<glyph unicode="&#x2c9;" d="M53 1192v172h512v-172h-512z" />
<glyph unicode="&#x2d8;" d="M23 1417h161q17 -125 121 -125q59 0 90.5 35.5t34.5 89.5h162q-2 -133 -76.5 -212t-210.5 -79q-137 0 -208.5 80.5t-73.5 210.5z" />
<glyph unicode="&#x2d9;" d="M104 1284q0 63 42 104.5t104 41.5q60 0 99.5 -41.5t39.5 -104.5q0 -59 -40 -101t-101 -42t-102.5 42t-41.5 101z" />
<glyph unicode="&#x2da;" d="M53 1303q0 90 63.5 147t176.5 57q107 0 168 -56.5t61 -145.5q0 -88 -63.5 -144.5t-167.5 -56.5q-108 0 -173 56t-65 143zM197 1303q0 -38 25.5 -67.5t66.5 -29.5q43 0 68.5 29t25.5 70t-25.5 70.5t-70.5 29.5q-42 0 -66 -30t-24 -72z" />
<glyph unicode="&#x2db;" d="M88 -231q0 64 26.5 129.5t53.5 103.5h166l-8 -16q-8 -15 -10 -19.5t-9 -19t-10 -23.5t-7 -22t-5.5 -25t-1.5 -24q0 -47 29 -78t79 -31q39 0 92 16l43 -145q-39 -31 -97 -47.5t-112 -16.5q-108 0 -168.5 55.5t-60.5 162.5z" />
<glyph unicode="&#x2dc;" d="M16 1141q-4 128 42 199t126 71q49 0 133 -41q8 -4 23.5 -13t23.5 -13.5t19 -8.5t20 -4q26 0 38 19t16 71h143q8 -262 -168 -262q-12 0 -23 1t-22.5 4t-19.5 5.5t-20.5 7.5t-18 7.5t-19.5 9t-18 8.5q-9 5 -23.5 13.5t-20 11t-15 5.5t-19.5 3q-43 0 -49 -94h-148z" />
<glyph unicode="&#x2dd;" d="M-4 1130l129 306h246l-199 -306h-176zM350 1130l131 306h246l-201 -306h-176z" />
<glyph unicode="&#x37e;" horiz-adv-x="567" d="M49 -244q89 344 107 570l313 10q-83 -304 -215 -561zM109 782q0 87 53 143t139 56t139.5 -55.5t53.5 -143.5q0 -87 -53.5 -142.5t-141.5 -55.5q-84 0 -137 55.5t-53 142.5z" />
<glyph unicode="&#x384;" horiz-adv-x="620" d="M172 1126l94 312h275l-166 -312h-203z" />
<glyph unicode="&#x385;" horiz-adv-x="890" d="M12 1282q0 55 37.5 92t93.5 37q52 0 87.5 -36.5t35.5 -92.5q0 -53 -36 -90t-89 -37q-54 0 -91.5 37t-37.5 90zM326 1135l43 358h229l-113 -358h-159zM618 1282q0 55 36.5 92t90.5 37q55 0 91 -36.5t36 -92.5q0 -53 -36.5 -90t-92.5 -37q-53 0 -89 37t-36 90z" />
<glyph unicode="&#x386;" horiz-adv-x="1359" d="M39 1024l4 356h250l-76 -356h-178zM51 0l422 1380h408l430 -1380h-336l-107 354h-397l-96 -354h-324zM516 588h305l-86 293q-16 58 -67 266h-6q-32 -148 -62 -266z" />
<glyph unicode="&#x387;" horiz-adv-x="567" d="M82 645q0 90 57.5 148.5t145.5 58.5q89 0 143.5 -57t56.5 -150q0 -91 -56 -149t-148 -58q-86 0 -142.5 59t-56.5 148z" />
<glyph unicode="&#x388;" horiz-adv-x="1314" d="M0 1024l4 356h250l-76 -356h-178zM358 0v1380h850v-256h-538v-286h508v-254h-508v-328h567v-256h-879z" />
<glyph unicode="&#x389;" horiz-adv-x="1632" d="M0 1024l4 356h250l-76 -356h-178zM356 0v1380h314v-530h514v530h311v-1380h-311v578h-514v-578h-314z" />
<glyph unicode="&#x38a;" horiz-adv-x="804" d="M0 1024l4 356h250l-76 -356h-178zM358 0v1380h312v-1380h-312z" />
<glyph unicode="&#x38c;" horiz-adv-x="1622" d="M0 1024l4 356h250l-76 -356h-178zM223 682q0 206 82.5 370t236.5 258.5t353 94.5q155 0 280.5 -55.5t206.5 -151t124.5 -222t43.5 -271.5q0 -338 -185 -533t-493 -195q-199 0 -348 94.5t-225 253t-76 357.5zM553 690q0 -202 91 -333.5t245 -131.5q103 0 179 61.5 t114.5 167t38.5 240.5q0 127 -37.5 231t-114 168t-180.5 64t-181.5 -64t-116 -168.5t-38.5 -234.5z" />
<glyph unicode="&#x38e;" horiz-adv-x="1595" d="M0 1024l4 356h250l-76 -356h-178zM326 1135l49 258q98 -2 208.5 -48.5t192.5 -136.5q151 -164 178 -442h15q36 255 194 430q79 87 181.5 140.5t183.5 56.5l49 -265q-146 -40 -270.5 -192.5t-173.5 -353.5q-35 -143 -35 -283v-299h-312v301q0 141 -22 270 q-27 150 -81.5 266t-146 196t-210.5 102z" />
<glyph unicode="&#x38f;" horiz-adv-x="1667" d="M0 1024l4 356h250l-76 -356h-178zM209 0v236h272v8q-102 80 -173.5 212t-71.5 300q0 134 50.5 253t139 206.5t216.5 138.5t276 51q154 0 281 -52.5t208.5 -140.5t125.5 -200t44 -234q0 -95 -23 -182t-62 -153t-79 -113t-86 -86v-8h275v-236h-609v182q262 197 262 535 q0 118 -40.5 217t-120 161t-183.5 62q-156 0 -254 -127t-98 -313q0 -177 74.5 -321.5t187.5 -213.5v-182h-612z" />
<glyph unicode="&#x390;" horiz-adv-x="573" d="M-129 1260q0 55 37 90.5t92 35.5q53 0 88 -35.5t35 -90.5q0 -53 -36 -90t-89 -37q-54 0 -90.5 37t-36.5 90zM125 283v718h311v-688q0 -56 22 -78.5t72 -19.5l-16 -217q-47 -21 -131 -21q-63 0 -109 14.5t-80.5 49t-51.5 94.5t-17 148zM182 1116l43 354h228l-113 -354 h-158zM473 1260q0 55 36.5 90.5t90.5 35.5t89.5 -35.5t35.5 -90.5q0 -53 -36 -90t-91 -37q-53 0 -89 37t-36 90z" />
<glyph unicode="&#x391;" horiz-adv-x="1343" d="M37 0l420 1380h409l430 -1380h-338l-106 354h-395l-99 -354h-321zM502 588h305l-86 293q-26 84 -70 266h-4q-5 -19 -27.5 -119t-35.5 -147z" />
<glyph unicode="&#x392;" horiz-adv-x="1236" d="M135 6v1356q170 29 404 29q146 0 240 -17.5t169 -60.5q75 -40 119.5 -110.5t44.5 -162.5q0 -95 -57 -172t-170 -120v-5q123 -32 198.5 -120.5t75.5 -216.5q0 -179 -143 -295q-156 -125 -543 -125q-198 0 -338 20zM444 221q31 -4 121 -4q116 0 191 49.5t75 151.5 q0 66 -38.5 110t-99.5 63t-142 19h-107v-389zM444 834h103q122 0 187 46t65 124t-57.5 118.5t-163.5 40.5q-84 0 -134 -8v-321z" />
<glyph unicode="&#x393;" horiz-adv-x="987" d="M137 0v1380h836v-262h-524v-1118h-312z" />
<glyph unicode="&#x394;" horiz-adv-x="1327" d="M33 0v156l442 1224h379l432 -1222v-158h-1253zM371 256h559l-195 578q-54 166 -84 294h-8q-34 -146 -76 -278z" />
<glyph unicode="&#x395;" horiz-adv-x="1093" d="M137 0v1380h850v-256h-538v-286h507v-254h-507v-328h567v-256h-879z" />
<glyph unicode="&#x396;" horiz-adv-x="1181" d="M49 0v168l658 946v8h-598v258h1001v-180l-643 -934v-8h653v-258h-1071z" />
<glyph unicode="&#x397;" horiz-adv-x="1411" d="M137 0v1380h312v-530h514v530h311v-1380h-311v578h-514v-578h-312z" />
<glyph unicode="&#x398;" horiz-adv-x="1472" d="M72 680q0 207 82.5 371.5t236.5 259t354 94.5q155 0 281 -55.5t207 -151t124.5 -222t43.5 -271.5q0 -336 -186 -532t-492 -196q-150 0 -274 54.5t-206 149.5t-126.5 223t-44.5 276zM399 688q0 -202 92 -332.5t248 -130.5q155 0 244.5 131t89.5 338q0 127 -38 231 t-115.5 168t-182.5 64q-156 0 -247 -134t-91 -335zM520 578v251h430v-251h-430z" />
<glyph unicode="&#x399;" horiz-adv-x="583" d="M137 0v1380h312v-1380h-312z" />
<glyph unicode="&#x39a;" horiz-adv-x="1257" d="M135 0v1380h309v-610h5q42 72 96 152l311 458h385l-457 -587l480 -793h-363l-340 596l-117 -145v-451h-309z" />
<glyph unicode="&#x39b;" horiz-adv-x="1327" d="M35 0l422 1380h403l436 -1380h-340l-237 827q-11 43 -23.5 93.5t-26.5 110t-22 91.5h-4q-2 -9 -24.5 -124t-36.5 -171l-220 -827h-327z" />
<glyph unicode="&#x39c;" horiz-adv-x="1732" d="M104 0l89 1380h415l135 -460q70 -250 117 -494h8q64 276 131 496l146 458h409l74 -1380h-303l-22 528q-13 360 -13 568h-4q-68 -266 -156 -535l-167 -538h-244l-148 532q-68 248 -125 541h-4q-10 -323 -22 -572l-27 -524h-289z" />
<glyph unicode="&#x39d;" horiz-adv-x="1413" d="M135 0v1380h365l286 -506q122 -216 226 -473h4q-25 253 -25 578v401h287v-1380h-328l-295 532q-149 267 -239 488h-8q14 -258 14 -604v-416h-287z" />
<glyph unicode="&#x39e;" horiz-adv-x="1175" d="M86 0v256h1014v-256h-1014zM115 1126v254h956v-254h-956zM178 582v252h828v-252h-828z" />
<glyph unicode="&#x39f;" horiz-adv-x="1468" d="M72 682q0 206 82 370t236 258.5t353 94.5q155 0 281 -55.5t207 -151t124.5 -222t43.5 -271.5q0 -338 -185 -533t-493 -195q-199 0 -348 94.5t-225 253t-76 357.5zM401 690q0 -202 91 -333.5t245 -131.5q103 0 179 61.5t114.5 167t38.5 240.5q0 127 -37.5 231t-114 168 t-180.5 64t-181.5 -64t-116 -168.5t-38.5 -234.5z" />
<glyph unicode="&#x3a0;" horiz-adv-x="1366" d="M137 0v1380h1092v-1380h-311v1118h-469v-1118h-312z" />
<glyph unicode="&#x3a1;" horiz-adv-x="1189" d="M135 0v1362q174 29 422 29q284 0 422 -111q69 -54 108 -136.5t39 -182.5q0 -213 -127 -328q-158 -146 -448 -146q-63 0 -107 9v-496h-309zM444 735q36 -8 105 -8q125 0 196.5 59.5t71.5 163.5q0 96 -64 149.5t-182 53.5q-89 0 -127 -10v-408z" />
<glyph unicode="&#x3a3;" horiz-adv-x="1183" d="M61 0v176l410 508l-387 494v202h981v-256h-584v-6l324 -422l-346 -432v-8h657v-256h-1055z" />
<glyph unicode="&#x3a4;" horiz-adv-x="1122" d="M31 1118v262h1061v-262h-377v-1118h-312v1118h-372z" />
<glyph unicode="&#x3a5;" horiz-adv-x="1280" d="M18 1135l50 258q96 -2 206.5 -48.5t192.5 -136.5q151 -164 178 -442h14q36 254 195 430q79 87 181.5 140.5t183.5 56.5l49 -265q-146 -40 -271 -192.5t-174 -353.5q-35 -143 -35 -283v-299h-311v301q0 141 -22 270q-27 151 -81.5 266.5t-145.5 195.5t-210 102z" />
<glyph unicode="&#x3a6;" horiz-adv-x="1607" d="M70 684q0 119 36 221.5t95 174.5t137 126.5t159 84t165 40.5v107h290v-107q114 -14 217 -59.5t187 -121.5t134 -193.5t50 -260.5q0 -142 -49 -258.5t-132.5 -194t-188 -125t-222.5 -63.5v-112h-291v112q-116 14 -218.5 58.5t-186.5 119.5t-133 191.5t-49 259.5zM383 684 q0 -170 84 -279.5t192 -130.5v840q-50 -10 -97 -40.5t-88 -81t-66 -131t-25 -177.5zM950 274q51 9 98 37t88.5 76t66 125.5t24.5 173.5q0 99 -24.5 179t-65.5 130.5t-88 80t-99 38.5v-840z" />
<glyph unicode="&#x3a7;" horiz-adv-x="1255" d="M33 0l399 698l-385 682h359l120 -252q61 -125 105 -229h4q37 99 94 229l117 252h356l-389 -673l410 -707h-361l-125 250q-25 48 -123 248h-4q-38 -106 -108 -248l-113 -250h-356z" />
<glyph unicode="&#x3a8;" horiz-adv-x="1519" d="M86 913v467h299v-419q0 -95 17 -162t50 -105.5t73 -57t93 -22.5v766h285v-768q51 4 90.5 25t73.5 66t52 126.5t18 196.5v354h299v-399q0 -151 -41.5 -266t-116 -185.5t-168 -108t-207.5 -44.5v-377h-285v377q-111 7 -203.5 40t-168 95t-118 164.5t-42.5 236.5z" />
<glyph unicode="&#x3a9;" horiz-adv-x="1523" d="M68 0v236h270v8q-101 81 -174 213t-74 299q0 135 50.5 254t139 206.5t216.5 138t276 50.5q154 0 281 -52t208.5 -140t126 -200t44.5 -235q0 -95 -23 -181t-62 -152t-79 -113.5t-86 -87.5v-8h276v-236h-608v182q117 88 189 223.5t71 313.5q0 118 -40.5 216.5t-120 160 t-183.5 61.5q-156 0 -254 -127t-98 -313q0 -165 76.5 -316.5t187.5 -218.5v-182h-610z" />
<glyph unicode="&#x3aa;" horiz-adv-x="583" d="M-57 1602q0 60 40.5 99.5t100.5 39.5q58 0 96.5 -39.5t38.5 -99.5q0 -58 -39 -99t-98 -41q-58 0 -98.5 41.5t-40.5 98.5zM137 0v1380h312v-1380h-312zM362 1602q0 60 40 99.5t100 39.5t98.5 -39.5t38.5 -99.5q0 -58 -39.5 -99t-99.5 -41q-59 0 -98.5 41t-39.5 99z" />
<glyph unicode="&#x3ab;" horiz-adv-x="1280" d="M18 1135l50 258q96 -2 206.5 -48.5t192.5 -136.5q151 -164 178 -442h14q36 254 195 430q79 87 181.5 140.5t183.5 56.5l49 -265q-146 -40 -271 -192.5t-174 -353.5q-35 -143 -35 -283v-299h-311v301q0 141 -22 270q-42 230 -152 381t-285 183zM299 1569q0 60 40.5 99.5 t100.5 39.5q58 0 96.5 -39.5t38.5 -99.5q0 -58 -39 -98.5t-98 -40.5q-58 0 -98.5 41t-40.5 98zM719 1569q0 60 39.5 99.5t99.5 39.5t98.5 -39.5t38.5 -99.5q0 -58 -39.5 -98.5t-99.5 -40.5q-59 0 -98 40.5t-39 98.5z" />
<glyph unicode="&#x3ac;" horiz-adv-x="1193" d="M68 479q0 122 39 227t103.5 173t145.5 106.5t166 38.5q90 0 161.5 -39t113.5 -115h8q5 37 24 131h261q-27 -356 -27 -653q0 -79 24 -109.5t68 -27.5l-18 -217q-34 -17 -107 -17q-176 0 -217 183h-6q-52 -89 -136.5 -136t-187.5 -47q-176 0 -295.5 138.5t-119.5 363.5z M383 494q0 -117 52.5 -194t135.5 -77q65 0 117 55.5t66 131.5q6 53 6 100q0 59 -4 84q-14 86 -62 139t-114 53q-89 0 -143 -84.5t-54 -207.5zM494 1120l94 312h274l-166 -312h-202z" />
<glyph unicode="&#x3ad;" horiz-adv-x="958" d="M68 287q0 90 62.5 155t156.5 86v9q-82 28 -127 81.5t-45 126.5q0 114 113 197.5t323 83.5q203 0 336 -76l-53 -196q-104 55 -236 55q-80 0 -125 -26t-45 -68q0 -87 229 -90h99v-203h-99q-58 -1 -101 -6t-79 -15.5t-55 -30.5t-19 -48q0 -55 58 -84t141 -29q67 0 142 17.5 t128 43.5l43 -200q-76 -48 -182.5 -70.5t-212.5 -22.5q-86 0 -163 17t-143.5 51.5t-106 97t-39.5 144.5zM408 1120l94 312h274l-166 -312h-202z" />
<glyph unicode="&#x3ae;" horiz-adv-x="1200" d="M92 1001h275q31 -60 34 -139h7q39 63 117.5 112.5t191.5 49.5q161 0 259.5 -109.5t98.5 -322.5v-645q0 -271 21 -353h-295q-37 63 -37 355v606q0 217 -158 217q-59 0 -99.5 -34t-60.5 -83q-10 -25 -10 -77v-578h-311v682q0 224 -33 319zM496 1120l94 312h274l-166 -312 h-202z" />
<glyph unicode="&#x3af;" horiz-adv-x="573" d="M125 283v718h311v-688q0 -56 22 -78.5t70 -19.5l-14 -217q-47 -21 -131 -21q-63 0 -109 14.5t-80.5 49t-51.5 94.5t-17 148zM172 1122l94 312h279l-166 -312h-207z" />
<glyph unicode="&#x3b0;" horiz-adv-x="1142" d="M84 1001h303q18 -20 25.5 -64t7.5 -130v-377q0 -96 45 -148.5t113 -52.5q64 0 106 52t59 132.5t17 186.5q0 118 -20.5 233t-41.5 168h291q31 -61 53.5 -163t22.5 -220q0 -98 -15.5 -186.5t-53.5 -173t-95 -146t-147 -98.5t-203 -37q-127 0 -225 46t-157.5 145.5 t-59.5 241.5v258q0 248 -25 333zM135 1260q0 55 37 90.5t92 35.5q53 0 88 -35.5t35 -90.5q0 -53 -36 -90t-89 -37q-54 0 -90.5 37t-36.5 90zM446 1114l43 354h230l-115 -354h-158zM739 1260q0 55 36.5 90.5t90.5 35.5t89.5 -35.5t35.5 -90.5q0 -53 -36 -90t-91 -37 q-53 0 -89 37t-36 90z" />
<glyph unicode="&#x3b1;" horiz-adv-x="1193" d="M68 479q0 122 39 227t103.5 173t145.5 106.5t166 38.5q90 0 161.5 -39t113.5 -115h8q5 37 24 131h261q-27 -356 -27 -653q0 -79 24 -109.5t68 -27.5l-18 -217q-34 -17 -107 -17q-176 0 -217 183h-6q-52 -89 -136.5 -136t-187.5 -47q-176 0 -295.5 138.5t-119.5 363.5z M383 494q0 -117 52.5 -194t135.5 -77q65 0 117 55.5t66 131.5q6 53 6 100q0 59 -4 84q-14 86 -62 139t-114 53q-89 0 -143 -84.5t-54 -207.5z" />
<glyph unicode="&#x3b2;" horiz-adv-x="1202" d="M119 -55v901q0 205 43 321t119 187q130 123 335 123q190 0 299 -107t109 -268q0 -91 -45 -179t-121 -128v-11q114 -28 195 -130t80 -244q0 -192 -124.5 -312.5t-310.5 -120.5q-171 0 -272 93h-4v-119q0 -256 24 -357h-288q-39 79 -39 351zM420 315q80 -104 198 -104 q96 0 148.5 61t52.5 150q0 101 -62.5 160t-158.5 67q-6 1 -14 1t-17 -0.5t-14 -0.5v191q13 0 33 4q73 13 115 70.5t42 136.5q0 82 -39.5 133t-105.5 51q-178 0 -178 -334v-586z" />
<glyph unicode="&#x3b3;" horiz-adv-x="1054" d="M-27 1001h346q60 -92 132 -289.5t108 -394.5h10q148 331 148 594q0 70 -2 90h297q4 -20 4 -77q0 -185 -95.5 -418t-258.5 -467q-13 -19 -13 -49q1 -25 6 -396h-303q11 355 -33 572q-47 225 -144 444t-202 391z" />
<glyph unicode="&#x3b4;" horiz-adv-x="1179" d="M68 473q0 73 19.5 139t51.5 116.5t76.5 95t90 75t97.5 55.5v9l-38 34q-111 105 -111 209q0 106 110.5 188.5t297.5 82.5q117 0 214.5 -30.5t149.5 -70.5l-80 -194q-34 25 -109 49t-147 24q-112 0 -112 -53q0 -22 25 -46.5t91 -74.5l168 -135q248 -198 248 -452 q0 -116 -41 -213.5t-112 -163.5t-168 -103t-207 -37q-220 0 -367 137.5t-147 358.5zM387 479q0 -116 61.5 -197t151.5 -81q86 0 142.5 74t56.5 192q0 72 -34 141t-97 123l-95 78q-84 -50 -135 -133t-51 -197z" />
<glyph unicode="&#x3b5;" horiz-adv-x="958" d="M68 287q0 90 62.5 155t156.5 86v11q-82 26 -127 79.5t-45 126.5q0 114 113 197.5t323 83.5q208 0 336 -76l-53 -196q-104 55 -236 55q-80 0 -125 -26t-45 -68q0 -87 229 -90h99v-203h-99q-58 -1 -101 -6t-79 -15.5t-55 -30.5t-19 -48q0 -55 58 -84t141 -29q67 0 142 17.5 t128 43.5l43 -200q-76 -48 -182.5 -70.5t-212.5 -22.5q-86 0 -163 17t-143.5 51.5t-106 97t-39.5 144.5z" />
<glyph unicode="&#x3b6;" horiz-adv-x="903" d="M72 459q0 198 110 399.5t303 358.5v10h-96q-155 0 -229 28l30 197q63 -6 285 -6h381l43 -203q-100 -46 -192.5 -125.5t-162 -176t-111.5 -208.5t-42 -217q0 -209 174 -289q41 -21 100.5 -37t92.5 -22t110 -18q8 -2 14.5 -9.5t6.5 -17.5q0 -103 -45 -232.5t-105 -203.5 l-192 61q17 33 34 99.5t19 103.5q-130 21 -227 59q-62 24 -113.5 59.5t-95 88t-68 130t-24.5 171.5z" />
<glyph unicode="&#x3b7;" horiz-adv-x="1200" d="M92 1001h275q31 -60 34 -139h7q39 63 117.5 112.5t191.5 49.5q161 0 259.5 -109.5t98.5 -322.5v-645q0 -271 21 -353h-295q-37 63 -37 355v606q0 217 -158 217q-59 0 -99.5 -34t-60.5 -83q-10 -25 -10 -77v-578h-311v682q0 224 -33 319z" />
<glyph unicode="&#x3b8;" horiz-adv-x="1167" d="M68 737q0 214 58 378.5t179.5 263t292.5 98.5q127 0 224 -54t157.5 -153t90.5 -233t30 -300q0 -232 -54.5 -399.5t-172.5 -264t-291 -96.5q-245 0 -379.5 195t-134.5 565zM375 852h416q0 180 -53.5 294t-151.5 114q-99 0 -155 -115.5t-56 -292.5zM377 631 q0 -203 55 -319.5t158 -116.5q102 0 153.5 117.5t51.5 318.5h-418z" />
<glyph unicode="&#x3b9;" horiz-adv-x="573" d="M125 283v718h311v-688q0 -56 22 -78.5t70 -19.5l-14 -217q-47 -21 -131 -21q-63 0 -109 14.5t-80.5 49t-51.5 94.5t-17 148z" />
<glyph unicode="&#x3ba;" horiz-adv-x="1122" d="M96 1001h307q33 -37 33 -178v-239h6q27 33 56.5 72t51.5 69t54.5 76t47.5 67.5t49.5 71.5t41.5 61h355v-10q-19 -21 -165.5 -187.5t-227.5 -256.5v-8q64 -18 119 -83t126 -182l160 -274h-358l-111 201q-62 107 -102.5 155.5t-87.5 51.5h-15v-408h-311v745q0 78 -8 154.5 t-21 101.5z" />
<glyph unicode="&#x3bb;" horiz-adv-x="1060" d="M8 0l350 920q11 28 11 51q0 16 -11 53q-34 89 -91 143t-120 54h-45l29 235q30 12 102 12q83 0 151 -33.5t120.5 -99.5t91.5 -141.5t78 -181.5l377 -1012h-332l-137 453q-40 135 -58 213h-10q-12 -60 -49 -207l-133 -459h-324z" />
<glyph unicode="&#x3bc;" horiz-adv-x="1198" d="M125 -43v1044h311v-559q0 -103 38.5 -159t113.5 -56q56 0 100.5 34t61.5 77q10 20 10 65v598h311v-675q0 -63 20 -88t64 -27l-16 -215q-40 -19 -113 -19q-177 0 -225 160h-6q-28 -61 -93 -106t-155 -45q-88 0 -141 59v-86q0 -258 22 -365h-274q-29 71 -29 363z" />
<glyph unicode="&#x3bd;" horiz-adv-x="1044" d="M-2 1001h336l133 -464q14 -46 33.5 -129.5t29.5 -118.5h9q170 365 170 633q0 50 -2 79h292q7 -44 7 -77q0 -102 -28.5 -218t-82.5 -238.5t-112 -230.5t-136 -237h-301z" />
<glyph unicode="&#x3be;" horiz-adv-x="966" d="M68 410q0 144 86.5 252t224.5 147v10q-103 39 -159 116.5t-54 176.5q0 152 125 258.5t348 106.5q164 0 283 -56l-50 -202q-84 38 -184 38t-154.5 -51t-54.5 -129q0 -84 69.5 -129.5t192.5 -54.5q23 -2 70 -2v-209h-57q-171 0 -263 -64t-92 -174q0 -89 64 -148t205 -95 q106 -29 260 -51q24 -3 24 -27q0 -93 -45.5 -227t-103.5 -207l-195 61q17 33 32 98t17 103q-60 9 -108.5 19t-112.5 28.5t-112.5 41t-98.5 58t-83 78.5t-53.5 103t-20.5 131z" />
<glyph unicode="&#x3bf;" horiz-adv-x="1181" d="M68 494q0 244 146 388t390 144q228 0 369 -143t141 -371q0 -133 -44.5 -237.5t-119.5 -168t-168 -96.5t-196 -33q-226 0 -372 140t-146 377zM389 502q0 -133 54 -217t151 -84q92 0 145.5 83t53.5 220q0 78 -19.5 143.5t-66 110.5t-113.5 45q-70 0 -118 -46t-67.5 -111.5 t-19.5 -143.5z" />
<glyph unicode="&#x3c0;" horiz-adv-x="1228" d="M6 932q72 69 356 69h832l-29 -235h-121v-453q0 -201 25 -313h-299q-35 52 -35 291v475h-217q-3 -192 -34.5 -424.5t-77.5 -341.5h-297q45 148 77.5 376.5t30.5 389.5q-119 0 -178 -14z" />
<glyph unicode="&#x3c1;" horiz-adv-x="1210" d="M117 -51v454q0 105 15.5 189.5t44.5 143t59.5 97.5t70.5 74q143 119 340 119q224 0 360 -143t136 -377q0 -127 -40.5 -230.5t-107.5 -167t-148.5 -97.5t-168.5 -34q-81 0 -145.5 26.5t-100.5 72.5h-4v-129q0 -275 14 -353h-301q-24 76 -24 355zM428 401q0 -32 6 -59 q16 -49 67 -87t115 -38q99 0 155 79.5t56 205.5q0 120 -52.5 194t-143.5 74q-89 0 -146 -77.5t-57 -215.5v-76z" />
<glyph unicode="&#x3c2;" horiz-adv-x="937" d="M68 469q0 107 39 205.5t111 177t185.5 125.5t251.5 47q156 0 252 -49l-59 -219q-95 35 -178 35q-123 0 -202 -85t-79 -217q0 -203 211 -270q91 -30 285 -65q18 -3 18 -29q0 -106 -44.5 -241.5t-100.5 -198.5l-195 63q16 31 32 95t21 106q-118 26 -155 37q-83 23 -151 61 t-124 95t-87 140.5t-31 186.5z" />
<glyph unicode="&#x3c3;" horiz-adv-x="1216" d="M68 489q0 245 149.5 391t405.5 146h192h154h229l-12 -225q-69 0 -219 12l-2 -10q63 -56 97 -140.5t34 -164.5q0 -105 -28 -192t-75.5 -147t-113 -101.5t-139 -61t-154.5 -19.5q-226 0 -372 137.5t-146 374.5zM389 502q0 -133 54 -217t151 -84q89 0 141.5 83.5t52.5 219.5 q0 78 -18 143t-63 110.5t-111 45.5q-71 0 -119.5 -45t-68 -110.5t-19.5 -145.5z" />
<glyph unicode="&#x3c4;" horiz-adv-x="925" d="M-18 934q87 67 352 67h571l-28 -235h-273v-414q0 -135 103 -135h38l-12 -217q-52 -23 -143 -23q-162 0 -229.5 86.5t-67.5 266.5v436h-84q-114 0 -189 -14z" />
<glyph unicode="&#x3c5;" horiz-adv-x="1142" d="M84 1001h303q18 -20 25.5 -64t7.5 -130v-377q0 -96 45 -148.5t113 -52.5q64 0 106 52t59 132.5t17 186.5q0 118 -20.5 233t-41.5 168h291q31 -61 53.5 -163t22.5 -220q0 -98 -15.5 -186.5t-53.5 -173t-95 -146t-147 -98.5t-203 -37q-127 0 -225 46t-157.5 145.5 t-59.5 241.5v258q0 248 -25 333z" />
<glyph unicode="&#x3c6;" horiz-adv-x="1456" d="M68 508q0 102 36 194.5t92.5 156t117.5 106.5t120 63l117 -166q-73 -51 -123.5 -140t-50.5 -208q0 -126 59 -213.5t160 -110.5v478q0 94 28.5 165.5t77 112t107 60.5t123.5 18q88 -2 169.5 -39t145 -100t101.5 -158t38 -205q0 -122 -45 -224t-119.5 -167.5t-164 -104.5 t-185.5 -49v-383h-276v383q-82 7 -156.5 30t-143 66.5t-119 103t-80 144.5t-29.5 187zM870 186q99 21 160.5 107.5t61.5 222.5q0 124 -51.5 209.5t-114.5 85.5q-25 0 -40.5 -21.5t-15.5 -60.5v-543z" />
<glyph unicode="&#x3c7;" horiz-adv-x="1032" d="M0 -393l354 712l-344 682h334l195 -452h8q47 123 69 176l115 276h297l-346 -679l348 -717l-295 -68l-235 522h-11q-5 -12 -30 -77t-47 -113l-148 -332z" />
<glyph unicode="&#x3c8;" horiz-adv-x="1486" d="M100 1001h283q29 -39 29 -194v-258q0 -336 206 -354v1069h277v-1069q71 2 121.5 58.5t74 143.5t23.5 193q0 136 -21 249t-42 162h276q82 -156 82 -393q0 -94 -16.5 -179t-55 -165.5t-96.5 -140.5t-146.5 -99.5t-199.5 -46.5v-383h-277v383q-503 34 -503 547v221 q0 173 -15 256z" />
<glyph unicode="&#x3c9;" horiz-adv-x="1501" d="M68 510q0 160 48 288.5t117 207.5h281v-7q-66 -85 -105.5 -209.5t-39.5 -259.5q0 -143 41.5 -217.5t99.5 -74.5q45 0 71.5 45.5t24.5 115.5l-4 367h293l-6 -367q0 -71 26 -116t74 -45q62 0 101.5 81t39.5 230q0 129 -37 251.5t-104 198.5v7h283q64 -61 113 -189t49 -282 q0 -259 -119.5 -408.5t-298.5 -149.5q-88 0 -160 42.5t-106 115.5h-9q-42 -71 -112 -114.5t-160 -43.5q-78 0 -149 34t-128 98.5t-90.5 168t-33.5 232.5z" />
<glyph unicode="&#x3ca;" horiz-adv-x="573" d="M-61 1262q0 61 40.5 101t102.5 40q57 0 96 -40t39 -101q0 -59 -39 -100.5t-98 -41.5q-60 0 -100.5 41.5t-40.5 100.5zM125 283v718h311v-688q0 -56 22 -78.5t70 -19.5l-14 -217q-47 -21 -131 -21q-63 0 -109 14.5t-80.5 49t-51.5 94.5t-17 148zM360 1262q0 61 40 101 t102 40q59 0 98 -40t39 -101q0 -60 -39 -101t-100 -41t-100.5 41.5t-39.5 100.5z" />
<glyph unicode="&#x3cb;" horiz-adv-x="1142" d="M84 1001h303q18 -20 25.5 -64t7.5 -130v-377q0 -96 45 -148.5t113 -52.5q64 0 106 52t59 132.5t17 186.5q0 118 -20.5 233t-41.5 168h291q31 -61 53.5 -163t22.5 -220q0 -98 -15.5 -186.5t-53.5 -173t-95 -146t-147 -98.5t-203 -37q-127 0 -225 46t-157.5 145.5 t-59.5 241.5v258q0 248 -25 333zM205 1262q0 61 40.5 101t102.5 40q57 0 96 -40t39 -101q0 -59 -39 -100.5t-98 -41.5q-60 0 -100.5 41.5t-40.5 100.5zM627 1262q0 62 39.5 101.5t101.5 39.5q59 0 98 -40t39 -101q0 -60 -39 -101t-100 -41t-100 41t-39 101z" />
<glyph unicode="&#x3cc;" horiz-adv-x="1181" d="M68 494q0 244 146 388t390 144q228 0 369 -143t141 -371q0 -133 -44.5 -237.5t-119.5 -168t-168 -96.5t-196 -33q-226 0 -372 140t-146 377zM389 502q0 -133 54 -217t151 -84q92 0 145.5 83t53.5 220q0 78 -19.5 143.5t-66 110.5t-113.5 45q-70 0 -118 -46t-67.5 -111.5 t-19.5 -143.5zM485 1120l95 312h274l-166 -312h-203z" />
<glyph unicode="&#x3cd;" horiz-adv-x="1142" d="M84 1001h303q18 -20 25.5 -64t7.5 -130v-377q0 -96 45 -148.5t113 -52.5q64 0 106 52t59 132.5t17 186.5q0 118 -20.5 233t-41.5 168h291q31 -61 53.5 -163t22.5 -220q0 -98 -15.5 -186.5t-53.5 -173t-95 -146t-147 -98.5t-203 -37q-127 0 -225 46t-157.5 145.5 t-59.5 241.5v258q0 248 -25 333zM451 1122l94 312h280l-168 -312h-206z" />
<glyph unicode="&#x3ce;" horiz-adv-x="1501" d="M68 510q0 160 48 288.5t117 207.5h281v-7q-66 -85 -105.5 -209.5t-39.5 -259.5q0 -143 41.5 -217.5t99.5 -74.5q45 0 71.5 45.5t24.5 115.5l-4 367h293l-6 -367q0 -71 26 -116t74 -45q62 0 101.5 81t39.5 230q0 129 -37 251.5t-104 198.5v7h283q64 -61 113 -189t49 -282 q0 -259 -119.5 -408.5t-298.5 -149.5q-88 0 -160 42.5t-106 115.5h-9q-42 -71 -112 -114.5t-160 -43.5q-78 0 -149 34t-128 98.5t-90.5 168t-33.5 232.5zM643 1120l94 312h275l-166 -312h-203z" />
<glyph unicode="&#x401;" horiz-adv-x="1093" d="M137 0v1380h850v-256h-538v-286h507v-254h-507v-328h567v-256h-879zM203 1599q0 60 40.5 101t100.5 41q57 0 96 -40.5t39 -101.5q0 -58 -39 -98.5t-98 -40.5q-58 0 -98.5 41t-40.5 98zM631 1599q0 60 39.5 101t99.5 41q59 0 98 -40.5t39 -101.5q0 -58 -39.5 -98.5 t-99.5 -40.5q-59 0 -98 40.5t-39 98.5z" />
<glyph unicode="&#x402;" horiz-adv-x="1478" d="M29 1124v256h1151v-256h-482v-260h9q106 60 241 60q208 0 338 -164q121 -151 121 -408q0 -192 -76 -338t-217 -219q-114 -88 -254 -106l-47 256q119 30 182 98q84 95 84 289q0 176 -61 256q-63 84 -168 84q-86 0 -152 -47v-625h-311v1124h-358z" />
<glyph unicode="&#x403;" horiz-adv-x="1001" d="M137 0v1380h834v-256h-522v-1124h-312zM389 1454l172 252h328l-250 -252h-250z" />
<glyph unicode="&#x404;" horiz-adv-x="1218" d="M72 686q0 112 28.5 216t89 195.5t146.5 159.5t208 107t267 39q212 0 350 -70l-63 -237q-116 55 -273 55q-178 0 -285 -93t-132 -239h626v-244h-624q15 -154 131 -248t301 -94q144 0 260 48l47 -236q-53 -27 -147.5 -47.5t-206.5 -20.5q-338 0 -530.5 191t-192.5 518z" />
<glyph unicode="&#x405;" horiz-adv-x="1105" d="M82 66l63 256q69 -36 161.5 -61t185.5 -25q105 0 162 40t57 109q0 64 -52.5 107t-179.5 86q-381 136 -381 409q0 181 142.5 297.5t380.5 116.5q205 0 352 -70l-70 -250q-130 66 -287 66q-96 0 -148 -38.5t-52 -94.5q0 -62 55 -101t201 -94q184 -68 270 -166.5t86 -244.5 q0 -88 -34 -164.5t-100.5 -136t-174.5 -93.5t-246 -34q-112 0 -219.5 25.5t-171.5 60.5z" />
<glyph unicode="&#x406;" horiz-adv-x="583" d="M137 0v1380h312v-1380h-312z" />
<glyph unicode="&#x407;" horiz-adv-x="583" d="M-59 1599q0 60 40.5 101t100.5 41q57 0 96 -40.5t39 -101.5q0 -58 -39 -98.5t-98 -40.5q-58 0 -98.5 41t-40.5 98zM137 0v1380h312v-1380h-312zM367 1599q0 60 39.5 101t99.5 41q59 0 98 -40.5t39 -101.5q0 -58 -39.5 -98.5t-99.5 -40.5q-59 0 -98 40.5t-39 98.5z" />
<glyph unicode="&#x408;" horiz-adv-x="841" d="M-2 10l35 252q74 -24 160 -24q106 0 159.5 60.5t53.5 211.5v870h311v-872q0 -283 -126 -407t-364 -124q-128 0 -229 33z" />
<glyph unicode="&#x409;" horiz-adv-x="1935" d="M-8 227q98 14 158 78q59 62 81.5 179.5t22.5 291.5v604h905v-491q75 10 164 10q108 0 203.5 -27t172 -80t121 -139.5t44.5 -197.5q0 -194 -133 -314q-174 -155 -549 -155q-192 0 -332 20v1118h-293v-327q0 -144 -10.5 -252.5t-37 -209t-77.5 -173t-127 -117.5 q-122 -68 -272 -68zM1159 225q37 -6 107 -6q115 0 194.5 61.5t79.5 170.5t-76 163t-194 54q-32 0 -111 -9v-434z" />
<glyph unicode="&#x40a;" horiz-adv-x="1953" d="M137 0v1380h312v-514h419v514h310v-495q78 10 170 10q111 0 206 -26.5t169 -78.5t116.5 -137t42.5 -194q0 -198 -133 -318q-174 -155 -547 -155q-194 0 -334 20v598h-419v-604h-312zM1178 227q49 -8 110 -8q116 0 193.5 60.5t77.5 169.5t-74.5 162t-192.5 53 q-50 0 -114 -11v-426z" />
<glyph unicode="&#x40b;" horiz-adv-x="1495" d="M31 1124v256h1128v-256h-461v-278h7q57 35 135 58.5t157 23.5q175 0 271 -107q102 -111 102 -327v-494h-311v453q0 120 -49 172q-45 51 -129 51q-104 0 -183 -62v-614h-311v1124h-356z" />
<glyph unicode="&#x40c;" horiz-adv-x="1239" d="M137 0v1380h307v-575h29l379 575h379l-481 -614q125 -30 196.5 -112.5t118.5 -219.5q7 -21 28 -85t31.5 -94.5t28.5 -81.5t35.5 -92.5t36.5 -80.5h-336q-16 33 -32 74.5t-26 72t-25.5 81.5t-23.5 75q-20 65 -40.5 110t-52.5 85t-78 60t-107 20h-60v-578h-307zM465 1444 l172 252h328l-250 -252h-250z" />
<glyph unicode="&#x40e;" horiz-adv-x="1204" d="M6 1382h352l201 -497q21 -52 52.5 -140t45.5 -124h7q5 18 17.5 65t26.5 99.5t29 105.5l150 491h330l-261 -682q-53 -135 -86.5 -214.5t-85 -177t-100.5 -156.5q-146 -183 -367 -183q-86 0 -153 23l22 250q49 -11 103 -11q67 0 116 37.5t72 89.5q11 27 -6 66zM301 1700 h211q3 -63 24 -94t68 -31q85 0 94 125h211q-9 -127 -90 -189.5t-221 -62.5q-274 0 -297 252z" />
<glyph unicode="&#x40f;" horiz-adv-x="1380" d="M137 0v1380h312v-1124h485v1124h311v-1380h-409l-17 -377h-256l-16 377h-410z" />
<glyph unicode="&#x410;" horiz-adv-x="1343" d="M37 0l420 1380h409l430 -1380h-338l-106 354h-395l-99 -354h-321zM502 588h305l-86 293q-26 84 -70 266h-4q-5 -19 -27.5 -119t-35.5 -147z" />
<glyph unicode="&#x411;" horiz-adv-x="1234" d="M137 6v1374h916v-254h-607v-237q78 10 168 10q109 0 212 -28.5t178 -84.5q159 -116 159 -331q0 -191 -131 -312q-178 -157 -561 -157q-194 0 -334 20zM446 227q47 -8 119 -8q124 0 203 70q68 65 68 162t-74 155q-79 62 -207 62q-26 0 -109 -9v-432z" />
<glyph unicode="&#x412;" horiz-adv-x="1236" d="M135 6v1356q170 29 404 29q146 0 240 -17.5t169 -60.5q75 -40 119.5 -110.5t44.5 -162.5q0 -95 -57 -172t-170 -120v-5q123 -32 198.5 -120.5t75.5 -216.5q0 -179 -143 -295q-156 -125 -543 -125q-198 0 -338 20zM444 221q31 -4 121 -4q116 0 191 49.5t75 151.5 q0 66 -38.5 110t-99.5 63t-142 19h-107v-389zM444 834h103q122 0 187 46t65 124t-57.5 118.5t-163.5 40.5q-84 0 -134 -8v-321z" />
<glyph unicode="&#x413;" horiz-adv-x="1001" d="M137 0v1380h834v-256h-522v-1124h-312z" />
<glyph unicode="&#x414;" horiz-adv-x="1409" d="M27 238l116 8q87 151 131 307q54 203 54 459v368h903v-1134l137 -8l-14 -586h-236l-16 348h-809l-17 -348h-237zM461 254h459v872h-304v-184q0 -248 -61 -455q-38 -127 -94 -233z" />
<glyph unicode="&#x415;" horiz-adv-x="1093" d="M137 0v1380h850v-256h-538v-286h507v-254h-507v-328h567v-256h-879z" />
<glyph unicode="&#x416;" horiz-adv-x="1792" d="M6 0q26 61 50 129.5t53 161t41 129.5q48 146 124.5 232.5t206.5 111.5l-469 616h363l344 -573h26v573h302v-573h26l344 573h363l-471 -616q68 -7 123 -35t94.5 -74.5t67.5 -101t51 -125.5q8 -24 57.5 -186t85.5 -242h-315q-15 32 -31 76t-24 71t-25 85.5t-21 72.5 q-18 61 -38.5 105.5t-52.5 85t-79 61.5t-108 21h-47v-578h-302v578h-49q-61 0 -107.5 -21t-78.5 -61.5t-52.5 -84.5t-39.5 -106q-7 -22 -21.5 -74t-23.5 -83t-24 -73.5t-30 -74.5h-313z" />
<glyph unicode="&#x417;" horiz-adv-x="1114" d="M59 74l66 241q56 -30 151 -57t183 -27q119 0 186.5 48.5t67.5 134.5q0 54 -26 92t-71.5 56.5t-92 26t-101.5 7.5h-131v231h131q109 0 178.5 46.5t69.5 127.5q0 69 -55.5 110.5t-153.5 41.5q-139 0 -303 -82l-72 223q190 111 430 111q221 0 350 -99t129 -255 q0 -126 -75.5 -211t-200.5 -115v-4q136 -20 228.5 -108t92.5 -220q0 -111 -51.5 -194.5t-136.5 -130t-180.5 -69t-198.5 -22.5q-245 0 -414 97z" />
<glyph unicode="&#x418;" horiz-adv-x="1413" d="M135 0v1380h287v-409q0 -331 -16 -625h6q124 272 247 492l297 542h320v-1380h-287v408q0 351 23 581h-6q-88 -230 -236 -491l-281 -498h-354z" />
<glyph unicode="&#x419;" horiz-adv-x="1413" d="M135 0v1380h287v-409q0 -331 -16 -625h6q124 272 247 492l297 542h320v-1380h-287v408q0 351 23 581h-6q-88 -230 -236 -491l-281 -498h-354zM401 1696h211q3 -63 24 -94t69 -31q85 0 94 125h211q-9 -127 -90 -189.5t-222 -62.5q-274 0 -297 252z" />
<glyph unicode="&#x41a;" horiz-adv-x="1239" d="M137 0v1380h307v-575h29l379 575h379l-481 -614q125 -30 196.5 -112.5t118.5 -219.5q7 -21 28 -85t31.5 -94.5t28.5 -81.5t35.5 -92.5t36.5 -80.5h-336q-16 33 -32 74.5t-26 72t-25.5 81.5t-23.5 75q-20 65 -40.5 110t-52.5 85t-78 60t-107 20h-60v-578h-307z" />
<glyph unicode="&#x41b;" horiz-adv-x="1320" d="M-8 229q99 12 158 74q59 60 81.5 179t22.5 294v604h930v-1380h-312v1124h-313v-327q0 -143 -10.5 -251.5t-37.5 -209t-78.5 -173.5t-127.5 -118q-122 -68 -274 -68z" />
<glyph unicode="&#x41c;" horiz-adv-x="1732" d="M104 0l89 1380h415l135 -460q70 -250 117 -494h8q64 276 131 496l146 458h409l74 -1380h-303l-22 528q-13 360 -13 568h-4q-68 -266 -156 -535l-167 -538h-244l-148 532q-68 248 -125 541h-4q-10 -323 -22 -572l-27 -524h-289z" />
<glyph unicode="&#x41d;" horiz-adv-x="1411" d="M137 0v1380h312v-530h514v530h311v-1380h-311v578h-514v-578h-312z" />
<glyph unicode="&#x41e;" horiz-adv-x="1468" d="M72 682q0 206 82 370t236 258.5t353 94.5q155 0 281 -55.5t207 -151t124.5 -222t43.5 -271.5q0 -338 -185 -533t-493 -195q-199 0 -348 94.5t-225 253t-76 357.5zM401 688q0 -207 90.5 -335t245.5 -128q103 0 179 61.5t114.5 167t38.5 240.5q0 127 -37.5 231t-114 168 t-180.5 64q-156 0 -246 -131.5t-90 -337.5z" />
<glyph unicode="&#x41f;" horiz-adv-x="1386" d="M137 0v1380h1114v-1380h-311v1124h-491v-1124h-312z" />
<glyph unicode="&#x420;" horiz-adv-x="1189" d="M135 0v1362q174 29 422 29q284 0 422 -111q69 -54 108 -136.5t39 -182.5q0 -213 -127 -328q-158 -146 -448 -146q-63 0 -107 9v-496h-309zM444 735q36 -8 105 -8q125 0 196.5 59.5t71.5 163.5q0 96 -64 149.5t-182 53.5q-89 0 -127 -10v-408z" />
<glyph unicode="&#x421;" horiz-adv-x="1218" d="M72 670q0 138 38 256.5t106.5 205t162.5 147.5t207 91.5t239 30.5q114 0 204 -18t136 -44l-65 -245q-115 51 -262 51q-194 0 -316.5 -118t-122.5 -339q0 -208 117.5 -329t323.5 -121q157 0 262 45l45 -246q-48 -23 -143 -41.5t-209 -18.5q-175 0 -313.5 53t-227.5 146.5 t-135.5 219t-46.5 274.5z" />
<glyph unicode="&#x422;" horiz-adv-x="1122" d="M31 1118v262h1061v-262h-377v-1118h-312v1118h-372z" />
<glyph unicode="&#x423;" horiz-adv-x="1204" d="M6 1382h352l201 -497q21 -52 52.5 -140t45.5 -124h7q5 18 17.5 65t26.5 99.5t29 105.5l150 491h330l-261 -682q-53 -135 -86.5 -214.5t-85 -177t-100.5 -156.5q-146 -183 -367 -183q-86 0 -153 23l22 250q49 -11 103 -11q67 0 116 37.5t72 89.5q11 27 -6 66z" />
<glyph unicode="&#x424;" horiz-adv-x="1615" d="M72 684q0 126 36.5 231.5t95 175.5t137.5 120.5t160 75.5t165 32v121h290v-121q93 -7 176 -32t160 -74.5t132.5 -119t88.5 -172t33 -227.5q0 -124 -32.5 -225.5t-87.5 -171t-132.5 -119t-161.5 -75.5t-180 -35v-125h-290v125q-94 7 -177.5 31.5t-160 73.5t-131.5 117.5 t-88 169.5t-33 224zM385 690q0 -97 25.5 -174.5t67.5 -124t89 -72.5t97 -32v817q-39 -5 -76.5 -20.5t-75 -48t-65 -77.5t-45 -114.5t-17.5 -153.5zM954 287q39 4 76.5 18.5t75 46t65 76t45 113.5t17.5 153q0 104 -24.5 183.5t-66.5 125.5t-88.5 70.5t-99.5 30.5v-817z" />
<glyph unicode="&#x425;" horiz-adv-x="1255" d="M33 0l399 698l-385 682h359l120 -252q61 -125 105 -229h4q37 99 94 229l117 252h356l-389 -673l410 -707h-361l-125 250q-25 48 -123 248h-4q-28 -78 -108 -248l-113 -250h-356z" />
<glyph unicode="&#x426;" horiz-adv-x="1421" d="M137 0v1380h312v-1124h483v1124h311v-1134l139 -8l-14 -586h-238l-16 348h-977z" />
<glyph unicode="&#x427;" horiz-adv-x="1314" d="M123 918v462h311v-407q0 -118 60.5 -177t171.5 -59q99 0 202 54v589h312v-1398h-312v577h-6q-149 -70 -309 -70q-196 0 -313 108t-117 321z" />
<glyph unicode="&#x428;" horiz-adv-x="1869" d="M137 0v1380h305v-1124h342v1124h306v-1124h342v1124h305v-1380h-1600z" />
<glyph unicode="&#x429;" horiz-adv-x="1912" d="M137 0v1380h305v-1124h340v1124h305v-1124h343v1124h305v-1134l137 -8l-14 -586h-238l-16 348h-1467z" />
<glyph unicode="&#x42a;" horiz-adv-x="1445" d="M25 1126v254h659v-479q98 10 166 10q103 0 196 -29t167 -83t117.5 -141t43.5 -195q0 -188 -110 -301q-173 -176 -553 -176q-196 0 -336 20v1120h-350zM684 227q39 -8 113 -8q110 0 180 61.5t70 170.5t-71.5 165t-178.5 56q-51 0 -113 -8v-437z" />
<glyph unicode="&#x42b;" horiz-adv-x="1744" d="M137 6v1374h309v-481q82 12 154 12q87 0 166.5 -17t149 -53t121 -88t81 -127.5t29.5 -166.5q0 -183 -111 -297q-92 -94 -243 -135t-322 -41q-194 0 -334 20zM446 227q33 -8 105 -8q110 0 189 62t79 170q0 57 -24 101t-63.5 69t-84.5 38t-92 13t-109 -8v-437zM1274 0v1380 h311v-1380h-311z" />
<glyph unicode="&#x42c;" horiz-adv-x="1234" d="M137 6v1374h309v-481q86 12 168 12q114 0 211.5 -27.5t174 -81t120 -140.5t43.5 -199q0 -188 -110 -301q-173 -176 -578 -176q-198 0 -338 20zM446 227q47 -8 115 -8q121 0 198 59t77 171q0 113 -75 168t-196 55q-45 0 -119 -8v-437z" />
<glyph unicode="&#x42d;" horiz-adv-x="1202" d="M55 43l56 240q121 -50 274 -50q173 0 281.5 95.5t126.5 249.5h-590v243h592q-16 145 -115 237.5t-264 92.5q-145 0 -283 -57l-61 231q177 78 368 78q141 0 256.5 -37.5t195 -103.5t134 -157t79.5 -195.5t25 -221.5q0 -137 -36 -252.5t-100.5 -199t-154.5 -142.5 t-198.5 -88t-230.5 -29q-101 0 -198.5 19.5t-156.5 46.5z" />
<glyph unicode="&#x42e;" horiz-adv-x="1886" d="M135 0v1380h311v-538h166q42 255 204 409t401 154q142 0 257.5 -55.5t190 -151t114.5 -222t40 -271.5q0 -337 -171.5 -532.5t-451.5 -195.5q-167 0 -296.5 78t-203.5 213.5t-92 311.5h-158v-580h-311zM909 688q0 -131 34.5 -235.5t103.5 -167t161 -62.5q93 0 160.5 62.5 t101 168t33.5 240.5q0 128 -32.5 231.5t-101 168.5t-161.5 65t-162 -64.5t-103 -170t-34 -236.5z" />
<glyph unicode="&#x42f;" horiz-adv-x="1228" d="M16 0q40 62 70 154q9 26 37 113t42.5 124.5t45.5 93t68 90.5q51 48 114 70v6q-126 24 -208.5 110t-82.5 228q0 182 144 293q144 109 452 109q215 0 396 -29v-1362h-310v541h-75q-91 0 -148 -54q-31 -29 -57.5 -79t-41.5 -92t-35 -107.5t-30 -91.5q-24 -70 -49 -117h-332z M414 961q0 -92 74 -143.5t186 -51.5q81 0 110 6v373q-46 12 -127 12q-109 0 -176 -48t-67 -148z" />
<glyph unicode="&#x430;" horiz-adv-x="1081" d="M59 285q0 190 157 286.5t431 96.5v12q0 53 -39.5 92t-142.5 39q-73 0 -149 -22t-128 -54l-57 201q162 90 389 90q121 0 208.5 -33.5t136.5 -95t71 -136.5t22 -169v-350q0 -164 17 -242h-281l-18 100h-6q-101 -123 -287 -123q-146 0 -235 91t-89 217zM367 315 q0 -58 33.5 -88t88.5 -30q56 0 101.5 33t60.5 81q6 24 6 54v108q-290 0 -290 -158z" />
<glyph unicode="&#x431;" horiz-adv-x="1181" d="M76 637q0 407 215 610q146 155 418 185q221 24 299 43l-19 -246q-90 -25 -235 -37q-220 -21 -316 -131q-42 -45 -72 -115.5t-36 -132.5h10q47 84 134.5 136t193.5 52q203 0 324.5 -136.5t121.5 -362.5q0 -240 -144 -383.5t-372 -143.5q-128 0 -228 49.5t-164 138.5 t-97 209.5t-33 264.5zM393 506q0 -52 11.5 -103.5t34.5 -98.5t64 -76t93 -29q69 0 115.5 45.5t65 109t18.5 140.5q0 53 -10.5 102t-33 93t-63.5 70.5t-96 26.5q-96 0 -146 -84q-53 -74 -53 -196z" />
<glyph unicode="&#x432;" horiz-adv-x="1130" d="M123 4v987q190 25 403 25q496 0 496 -256q0 -90 -60 -145t-145 -70v-6q116 -19 182 -81.5t66 -162.5q0 -309 -592 -309q-208 0 -350 18zM428 178q33 -4 104 -4q58 0 103 11t77.5 41.5t32.5 76.5q0 127 -229 127h-88v-252zM430 610h80q205 0 205 109q0 104 -180 104 l-105 -6v-207z" />
<glyph unicode="&#x433;" horiz-adv-x="851" d="M123 0v1001h698v-241h-387v-760h-311z" />
<glyph unicode="&#x434;" horiz-adv-x="1208" d="M18 213l95 6q64 94 100 209q45 151 45 328v245h799v-782l110 -4l-14 -539h-233l-11 324h-633l-14 -324h-235zM422 227h332v547h-226v-117q0 -125 -36 -260q-19 -80 -70 -170z" />
<glyph unicode="&#x435;" horiz-adv-x="1081" d="M68 489q0 98 31 191t90.5 171t159 125.5t224.5 47.5q94 0 170.5 -28.5t127 -76t85 -112.5t49.5 -135.5t15 -147.5q0 -66 -10 -123h-645q6 -92 86 -141t196 -49q152 0 277 43l41 -211q-149 -63 -363 -63q-253 0 -393.5 136t-140.5 373zM362 614h369q0 32 -8 64t-26 65 t-54.5 53.5t-87.5 20.5q-47 0 -84 -19.5t-59 -51.5t-34.5 -65.5t-15.5 -66.5z" />
<glyph unicode="&#x436;" horiz-adv-x="1509" d="M-4 0q16 33 34 75.5t29.5 73.5t30.5 85t29 81q35 103 93 171.5t138 82.5l-348 432h344l225 -401h33v401h301v-401h31l227 401h344l-348 -432q80 -14 139.5 -83.5t94.5 -170.5q12 -32 36.5 -104t43 -121t38.5 -90h-311q-24 40 -86 229q-60 170 -184 170h-25v-399h-301v399 h-24q-66 0 -112 -42t-77 -128q-9 -25 -24.5 -70.5t-23 -66t-19 -47.5t-21.5 -45h-307z" />
<glyph unicode="&#x437;" horiz-adv-x="997" d="M47 78l66 192q53 -29 131.5 -48.5t154.5 -20.5q95 0 144 30t49 76q0 113 -217 113h-150l-2 190h150q92 0 140 28t48 73q0 44 -44.5 71t-125.5 27q-131 0 -254 -70l-59 181q169 102 407 102q73 0 140.5 -13.5t129 -43t98 -84t36.5 -127.5q0 -62 -34.5 -110.5t-80.5 -73.5 t-100 -38v-8q49 -6 93.5 -22t83 -43t61 -70.5t22.5 -97.5q0 -71 -32.5 -126.5t-83 -89t-118.5 -55.5t-132 -30t-130 -8q-229 0 -391 96z" />
<glyph unicode="&#x438;" horiz-adv-x="1222" d="M123 0v1001h295v-307q0 -120 -17 -407l9 -2q19 46 55 140t59 146l195 430h381v-1001h-295v305q0 71 2 124.5t7.5 146.5t8.5 161h-8q-59 -165 -104 -268q-35 -76 -107 -239.5t-102 -229.5h-379z" />
<glyph unicode="&#x439;" horiz-adv-x="1222" d="M123 0v1001h295v-307q0 -120 -17 -407l9 -2q19 46 55 140t59 146l195 430h381v-1001h-295v305q0 71 2 124.5t7.5 146.5t8.5 161h-8q-59 -165 -104 -268q-35 -76 -107 -239.5t-102 -229.5h-379zM317 1415h197q2 -68 26.5 -106.5t67.5 -38.5q45 0 70.5 38.5t30.5 106.5h196 q-9 -141 -88 -215t-213 -74q-137 0 -209 76.5t-78 212.5z" />
<glyph unicode="&#x43a;" horiz-adv-x="1085" d="M125 0v1001h311v-399h33l254 399h362l-368 -432q84 -14 145 -85t107 -189q6 -15 49 -127.5t72 -167.5h-326q-7 10 -14 24.5t-12.5 27.5t-14.5 36t-14 37.5t-17 46.5t-18 49q-66 176 -207 176h-31v-397h-311z" />
<glyph unicode="&#x43b;" horiz-adv-x="1118" d="M0 219q76 13 113 53q40 42 52.5 113t12.5 209v407h817v-1001h-311v764h-217v-184q0 -198 -30.5 -319t-110.5 -185q-92 -99 -291 -99z" />
<glyph unicode="&#x43c;" horiz-adv-x="1470" d="M90 0l70 1001h397l109 -378q50 -184 65 -252h6q20 74 80 274l111 356h393l61 -1001h-288l-17 401q-1 28 -5 155.5t-5 195.5h-6q-14 -47 -29 -102t-29.5 -104.5t-37.5 -121.5l-134 -408h-227l-119 398q-7 24 -82 331h-8q-1 -46 -4.5 -174.5t-5.5 -175.5l-16 -395h-279z " />
<glyph unicode="&#x43d;" horiz-adv-x="1185" d="M123 0v1001h311v-362h316v362h311v-1001h-311v397h-316v-397h-311z" />
<glyph unicode="&#x43e;" horiz-adv-x="1181" d="M68 494q0 244 146 388t390 144q228 0 369 -143t141 -371q0 -133 -44.5 -237.5t-119.5 -168t-168 -96.5t-196 -33q-226 0 -372 140t-146 377zM389 502q0 -133 54 -217t151 -84q92 0 145.5 83t53.5 220q0 78 -19.5 143.5t-66 110.5t-113.5 45q-70 0 -118 -46t-67.5 -111.5 t-19.5 -143.5z" />
<glyph unicode="&#x43f;" horiz-adv-x="1179" d="M123 0v1001h932v-1001h-314v762h-307v-762h-311z" />
<glyph unicode="&#x440;" horiz-adv-x="1224" d="M117 1001h270l14 -139h5q115 162 333 162q82 0 157 -35.5t133 -99.5t92 -161.5t34 -213.5q0 -132 -39.5 -237t-105 -169t-145 -97.5t-165.5 -33.5q-88 0 -156.5 32t-103.5 83h-4v-498h-311v1072q0 147 -8 335zM436 430q0 -35 6 -65q15 -64 66 -106t117 -42 q100 0 157.5 77t57.5 206q0 125 -55 202.5t-156 77.5q-66 0 -119 -44t-68 -113q-6 -24 -6 -56v-137z" />
<glyph unicode="&#x441;" horiz-adv-x="923" d="M68 492q0 111 37.5 207t108.5 168.5t181 114.5t246 42q135 0 238 -39l-50 -231q-69 30 -174 30q-122 0 -196 -78t-72 -202q0 -132 78 -206.5t197 -74.5q100 0 178 33l37 -229q-96 -47 -279 -47q-243 0 -386.5 138.5t-143.5 373.5z" />
<glyph unicode="&#x442;" horiz-adv-x="944" d="M27 762v239h893v-239h-291v-762h-312v762h-290z" />
<glyph unicode="&#x443;" horiz-adv-x="1071" d="M12 1001h346l150 -493q36 -127 49 -186h8q18 84 43 188l125 491h332l-234 -659q-103 -287 -183 -432.5t-169 -224.5q-137 -121 -299 -138l-67 263q66 14 135 53q35 19 71 53.5t58 71.5q16 26 16 45q0 21 -12 51z" />
<glyph unicode="&#x444;" horiz-adv-x="1474" d="M68 494q0 119 42 215.5t115.5 159.5t166.5 100.5t202 48.5l-2 426h293l-4 -424q109 -12 202.5 -50.5t167 -102t115 -158.5t41.5 -211q0 -118 -43 -214t-117 -158t-167 -98.5t-199 -45.5l4 -388h-293l4 388q-107 8 -201 44.5t-168 99t-116.5 157.5t-42.5 211zM375 500 q0 -124 55.5 -207t165.5 -109v633q-110 -27 -165.5 -111t-55.5 -206zM879 184q110 27 165.5 110.5t55.5 207.5q0 120 -55.5 203t-165.5 110v-631z" />
<glyph unicode="&#x445;" horiz-adv-x="1062" d="M6 0l340 510l-332 491h348l99 -167q17 -30 45.5 -83t36.5 -67h4q56 114 78 154l88 163h338l-330 -477l334 -524h-353l-100 180q-20 34 -78 152h-6q-19 -40 -76 -152l-94 -180h-342z" />
<glyph unicode="&#x446;" horiz-adv-x="1206" d="M123 0v1001h311v-763h311v763h312v-782l110 -4l-14 -539h-233l-11 324h-786z" />
<glyph unicode="&#x447;" horiz-adv-x="1142" d="M113 659v342h311v-313q0 -86 34.5 -127t114.5 -41q37 0 75 12.5t61 30.5v438h311v-1015h-311v376h-4q-99 -63 -252 -63q-163 0 -251.5 91.5t-88.5 268.5z" />
<glyph unicode="&#x448;" horiz-adv-x="1665" d="M123 0v1001h309v-763h246v763h309v-763h246v763h309v-1001h-1419z" />
<glyph unicode="&#x449;" horiz-adv-x="1691" d="M123 0v1001h309v-763h246v763h309v-763h246v763h309v-782l111 -4l-15 -539h-233l-10 324h-1272z" />
<glyph unicode="&#x44a;" horiz-adv-x="1331" d="M41 764v237h594v-294q75 10 164 10q71 0 136 -11t127 -38t107 -67t72 -102.5t27 -140.5q0 -164 -138 -260q-159 -110 -473 -110q-177 0 -333 18v758h-283zM633 205q44 -6 106 -6q42 0 78.5 7.5t69.5 24t52 46.5t19 71q0 47 -21 79.5t-57 49t-73 23t-80 6.5q-42 0 -94 -10 v-291z" />
<glyph unicode="&#x44b;" horiz-adv-x="1591" d="M123 6v995h311v-296q82 12 162 12q69 0 132 -11.5t122 -38t102 -66t69 -100t26 -134.5q0 -173 -138 -269q-159 -110 -452 -110q-178 0 -334 18zM432 203q54 -4 94 -4q89 0 150 38t61 119q0 78 -57.5 114t-138.5 36q-61 0 -109 -10v-293zM1157 0v1001h311v-1001h-311z" />
<glyph unicode="&#x44c;" horiz-adv-x="1134" d="M123 6v995h311v-296q86 12 158 12q73 0 139.5 -10.5t129.5 -36t108.5 -64t73.5 -99.5t28 -138q0 -176 -137 -271q-159 -110 -477 -110q-178 0 -334 18zM432 205q44 -6 105 -6q57 0 104.5 12.5t84 49t36.5 93.5q0 44 -21.5 75.5t-58 47t-73.5 22.5t-77 7q-48 0 -100 -10 v-291z" />
<glyph unicode="&#x44d;" horiz-adv-x="993" d="M45 45l45 211q102 -41 232 -41q110 0 185 50t95 141h-432v196h438q-16 91 -83 143t-185 52q-119 0 -223 -45l-58 198q142 74 334 74q229 0 367 -123q164 -147 164 -397q0 -239 -154 -383t-418 -144q-177 0 -307 68z" />
<glyph unicode="&#x44e;" horiz-adv-x="1579" d="M123 0v1001h309v-372h129q35 184 161 290.5t314 106.5q212 0 343.5 -143t131.5 -371q0 -129 -40 -232.5t-108.5 -168.5t-156 -99.5t-184.5 -34.5q-186 0 -313.5 113.5t-153.5 310.5h-123v-401h-309zM850 500q0 -131 45 -216t133 -85q84 0 128 84.5t44 218.5q0 81 -17 147 t-57 110t-98 44q-61 0 -102 -45t-58.5 -111t-17.5 -147z" />
<glyph unicode="&#x44f;" horiz-adv-x="1132" d="M16 0q34 42 64 111q2 6 25 64t34.5 83t34.5 65.5t45 63.5q57 61 127 74v6q-45 5 -88.5 22t-82.5 46t-63 76t-24 104q0 163 170 241q124 62 369 62q176 0 383 -23v-995h-308v377h-63q-89 0 -143 -72q-15 -15 -28 -33.5t-25.5 -46t-19 -44t-19.5 -53t-17 -46.5 q-4 -11 -39 -82h-332zM410 694q0 -61 57 -95t133 -34q27 0 59 1t43 1v250q-54 8 -106 8q-81 0 -133.5 -33t-52.5 -98z" />
<glyph unicode="&#x451;" horiz-adv-x="1081" d="M68 489q0 98 31 191t90.5 171t159 125.5t224.5 47.5q94 0 170.5 -28.5t127 -76t85 -112.5t49.5 -135.5t15 -147.5q0 -66 -10 -123h-645q6 -92 86 -141t196 -49q152 0 277 43l41 -211q-149 -63 -363 -63q-253 0 -393.5 136t-140.5 373zM213 1284q0 61 42.5 102t104.5 41 q59 0 99.5 -41t40.5 -102t-40.5 -103t-101.5 -42t-103 42.5t-42 102.5zM362 614h369q0 32 -8 64t-26 65t-54.5 53.5t-87.5 20.5q-47 0 -84 -19.5t-59 -51.5t-34.5 -65.5t-15.5 -66.5zM645 1284q0 62 41.5 102.5t104.5 40.5q60 0 100.5 -41t40.5 -102t-40 -103t-101 -42h-5 q-60 0 -100.5 42.5t-40.5 102.5z" />
<glyph unicode="&#x452;" horiz-adv-x="1200" d="M4 1110v205h148v139h311v-139h432v-205h-432v-221h4q112 108 262 108q195 0 301 -182q96 -150 96 -405q0 -228 -66 -389.5t-192 -237.5q-126 -81 -237 -88l-60 248q90 17 148 77q41 46 67.5 145.5t26.5 219.5q0 173 -51 270q-49 90 -137 90q-40 0 -77 -19.5t-61 -47.5 q-24 -31 -24 -84v-594h-311v1110h-148z" />
<glyph unicode="&#x453;" horiz-adv-x="851" d="M123 0v1001h698v-241h-387v-760h-311zM315 1126l174 312h289l-250 -312h-213z" />
<glyph unicode="&#x454;" horiz-adv-x="966" d="M68 492q0 127 46 229t126.5 167.5t187.5 100.5t231 35q74 0 147.5 -14.5t115.5 -36.5l-56 -215q-88 41 -200 41t-184.5 -53t-90.5 -144h418v-196h-412q19 -94 92 -144.5t187 -50.5q106 0 203 37l45 -213q-47 -24 -128 -41t-173 -17q-255 0 -405 139.5t-150 375.5z" />
<glyph unicode="&#x455;" horiz-adv-x="888" d="M68 49l55 221q46 -28 124 -50.5t144 -22.5q133 0 133 82q0 40 -29.5 63.5t-115.5 52.5q-150 50 -219.5 128t-67.5 173q0 143 112.5 236.5t295.5 93.5q164 0 280 -59l-53 -215q-40 22 -99.5 39.5t-117.5 17.5q-56 0 -87.5 -21.5t-31.5 -58.5q0 -36 34 -60t128 -57 q140 -49 204 -124t66 -185q0 -146 -111.5 -236t-320.5 -90q-190 0 -323 72z" />
<glyph unicode="&#x456;" horiz-adv-x="561" d="M117 1280q0 67 46 111.5t120 44.5q73 0 117 -44t46 -112q0 -67 -45.5 -111.5t-121.5 -44.5q-72 0 -117 45t-45 111zM125 0v1001h311v-1001h-311z" />
<glyph unicode="&#x457;" horiz-adv-x="561" d="M-80 1284q0 61 43 102t105 41q59 0 99 -41t40 -102t-40 -103t-101 -42t-103.5 42.5t-42.5 102.5zM125 0v1001h311v-1001h-311zM352 1284q0 62 41.5 102.5t104.5 40.5q60 0 100.5 -41t40.5 -102t-40 -103t-101 -42h-4q-60 0 -101 42.5t-41 102.5z" />
<glyph unicode="&#x458;" horiz-adv-x="595" d="M-80 -197q131 10 184 66q34 36 48 107.5t14 218.5v806h311v-882q0 -160 -34.5 -265t-106.5 -171q-132 -123 -385 -123zM156 1280q0 67 46 111.5t120 44.5q73 0 117 -44t46 -112q0 -66 -46 -111t-122 -45q-72 0 -116.5 45t-44.5 111z" />
<glyph unicode="&#x459;" horiz-adv-x="1687" d="M2 219q68 12 111 51q42 39 55.5 115t13.5 209v407h813v-301q79 11 156 11q72 0 138 -11.5t128 -38.5t107.5 -67t72.5 -101.5t27 -138.5q0 -161 -125 -254q-151 -112 -475 -112q-184 0 -340 18v758h-215v-184q0 -194 -31.5 -316t-111.5 -188q-95 -99 -291 -99zM993 203 q58 -4 103 -4q40 0 76 7t69.5 23.5t53.5 47.5t20 73q0 56 -34.5 92t-78.5 48t-96 12q-47 0 -113 -8v-291z" />
<glyph unicode="&#x45a;" horiz-adv-x="1720" d="M123 0v1001h311v-337h285v337h311v-305q93 13 158 13q71 0 136.5 -12t126.5 -39.5t106 -68t71.5 -101.5t26.5 -136q0 -160 -125 -252q-148 -112 -473 -112q-182 0 -338 18v428h-285v-434h-311zM1028 205q41 -6 102 -6q40 0 75.5 7.5t68.5 23.5t52.5 46.5t19.5 71.5 q0 43 -18.5 74.5t-51 47.5t-67.5 23t-76 7q-43 0 -105 -8v-287z" />
<glyph unicode="&#x45b;" horiz-adv-x="1224" d="M4 1110v205h148v139h311v-139h407v-205h-407v-254h4q46 60 121 100q77 41 164 41q166 0 258 -113.5t92 -322.5v-561h-311v524q0 221 -162 221q-58 0 -97 -31.5t-59 -78.5q-10 -23 -10 -70v-565h-311v1110h-148z" />
<glyph unicode="&#x45c;" horiz-adv-x="1085" d="M125 0v1001h311v-399h33l254 399h362l-368 -432q84 -14 145 -85t107 -189q6 -15 49 -127.5t72 -167.5h-326q-7 10 -14 24.5t-12.5 27.5t-14.5 36t-14 37.5t-17 46.5t-18 49q-66 176 -207 176h-31v-397h-311zM399 1126l176 312h287l-250 -312h-213z" />
<glyph unicode="&#x45e;" horiz-adv-x="1071" d="M12 1001h346l150 -493q36 -127 49 -186h8q18 84 43 188l125 491h332l-234 -659q-103 -287 -183 -432.5t-169 -224.5q-137 -121 -299 -138l-67 263q66 14 135 53q35 19 71 53.5t58 71.5q16 26 16 45q0 21 -12 51zM242 1415h196q2 -68 26.5 -106.5t67.5 -38.5 q45 0 70.5 38.5t30.5 106.5h196q-9 -141 -88 -215t-213 -74q-137 0 -208.5 76.5t-77.5 212.5z" />
<glyph unicode="&#x45f;" horiz-adv-x="1179" d="M123 0v1001h313v-763h309v763h312v-1001h-326l-16 -338h-250l-19 338h-323z" />
<glyph unicode="&#x490;" horiz-adv-x="1007" d="M135 0v1380h600l33 267h223l-22 -523h-523v-1124h-311z" />
<glyph unicode="&#x491;" horiz-adv-x="882" d="M123 0v1001h479l29 242h217l-19 -483h-395v-760h-311z" />
<glyph unicode="&#x4d9;" horiz-adv-x="671" d="M59 479q0 71 13 121h643q-6 96 -79.5 144.5t-197.5 48.5q-142 0 -282 -48l-41 207q170 72 366 72q250 0 390.5 -137.5t140.5 -372.5q0 -78 -19 -153t-59.5 -144.5t-98 -122t-141.5 -83.5t-184 -31q-95 0 -172.5 28.5t-128.5 76t-85.5 112t-49.5 135t-15 147.5zM348 387 q0 -31 8.5 -63t27.5 -64.5t56 -53t88 -20.5q47 0 84 19.5t58 51.5t32.5 64.5t14.5 65.5h-369z" />
<glyph unicode="&#x1e80;" horiz-adv-x="1818" d="M31 1380h334l104 -567q18 -98 82 -483h4q28 181 90 487l117 563h332l110 -581q43 -226 74 -463h4q12 90 80 481l113 563h317l-356 -1380h-338l-117 594q-48 246 -66 426h-4q-44 -274 -80 -426l-131 -594h-342zM561 1708h328l172 -250h-250z" />
<glyph unicode="&#x1e81;" horiz-adv-x="1554" d="M23 1001h317l82 -411q44 -251 55 -328h6q8 52 19 103.5t30.5 130t22.5 92.5l107 413h245l101 -399q52 -207 73 -340h4q19 153 60 342l84 397h305l-307 -1001h-291l-94 350q-38 136 -66 314h-4q-25 -171 -63 -312l-101 -352h-293zM467 1438h287l176 -312h-213z" />
<glyph unicode="&#x1e82;" horiz-adv-x="1818" d="M31 1380h334l104 -567q18 -98 82 -483h4q28 181 90 487l117 563h332l110 -581q43 -226 74 -463h4q12 90 80 481l113 563h317l-356 -1380h-338l-117 594q-48 246 -66 426h-4q-44 -274 -80 -426l-131 -594h-342zM786 1454l172 252h328l-250 -252h-250z" />
<glyph unicode="&#x1e83;" horiz-adv-x="1554" d="M23 1001h317l82 -411q44 -251 55 -328h6q8 52 19 103.5t30.5 130t22.5 92.5l107 413h245l101 -399q52 -207 73 -340h4q19 153 60 342l84 397h305l-307 -1001h-291l-94 350q-38 136 -66 314h-4q-25 -171 -63 -312l-101 -352h-293zM637 1126l176 312h287l-250 -312h-213z " />
<glyph unicode="&#x1e84;" horiz-adv-x="1818" d="M31 1380h334l104 -567q18 -98 82 -483h4q28 181 90 487l117 563h332l110 -581q43 -226 74 -463h4q12 90 80 481l113 563h317l-356 -1380h-338l-117 594q-48 246 -66 426h-4q-44 -274 -80 -426l-131 -594h-342zM578 1599q0 60 40.5 101t100.5 41q57 0 96 -40.5t39 -101.5 q0 -58 -39 -98.5t-98 -40.5q-58 0 -98.5 41t-40.5 98zM1004 1599q0 60 39.5 101t99.5 41q59 0 98 -40.5t39 -101.5q0 -58 -39.5 -98.5t-99.5 -40.5q-59 0 -98 40.5t-39 98.5z" />
<glyph unicode="&#x1e85;" horiz-adv-x="1554" d="M23 1001h317l82 -411q44 -251 55 -328h6q8 52 19 103.5t30.5 130t22.5 92.5l107 413h245l101 -399q52 -207 73 -340h4q19 153 60 342l84 397h305l-307 -1001h-291l-94 350q-38 136 -66 314h-4q-25 -171 -63 -312l-101 -352h-293zM416 1284q0 61 42.5 102t104.5 41 q59 0 99 -41t40 -102t-40 -103t-101 -42t-103 42.5t-42 102.5zM848 1284q0 62 41 102.5t104 40.5q60 0 101 -41t41 -102t-40.5 -103t-101.5 -42h-4q-60 0 -100.5 42.5t-40.5 102.5z" />
<glyph unicode="&#x1ea0;" horiz-adv-x="1343" d="M37 0l420 1380h409l430 -1380h-338l-106 354h-395l-99 -354h-321zM502 588h305l-86 293q-26 84 -70 266h-4q-5 -19 -27.5 -119t-35.5 -147zM512 -307q0 61 41.5 102t103.5 41q60 0 100 -40t40 -103q0 -61 -40.5 -103.5t-101.5 -42.5t-102 42.5t-41 103.5z" />
<glyph unicode="&#x1ea1;" horiz-adv-x="1081" d="M59 285q0 190 157 286.5t431 96.5v12q0 53 -39.5 92t-142.5 39q-73 0 -149 -22t-128 -54l-57 201q162 90 389 90q121 0 208.5 -33.5t136.5 -95t71 -136.5t22 -169v-350q0 -164 17 -242h-281l-18 100h-6q-101 -123 -287 -123q-146 0 -235 91t-89 217zM367 315 q0 -58 33.5 -88t88.5 -30q56 0 101.5 33t60.5 81q6 24 6 54v108q-290 0 -290 -158zM397 -309q0 63 42 104t104 41q60 0 99.5 -41t39.5 -104q0 -60 -40 -102t-101 -42t-102.5 42.5t-41.5 101.5z" />
<glyph unicode="&#x1ea2;" horiz-adv-x="1343" d="M37 0l420 1380h409l430 -1380h-338l-106 354h-395l-99 -354h-321zM451 1704q84 162 249 162q83 0 141 -51.5t58 -122.5q0 -42 -17 -75.5t-39 -54t-51.5 -52.5t-46.5 -64l-143 31q12 38 37.5 68.5t44 54t18.5 51.5t-17.5 45.5t-43.5 17.5q-50 0 -92 -72zM502 588h305 l-86 293q-26 84 -70 266h-4q-5 -19 -27.5 -119t-35.5 -147z" />
<glyph unicode="&#x1ea3;" horiz-adv-x="1081" d="M59 285q0 190 157 286.5t431 96.5v12q0 53 -39.5 92t-142.5 39q-73 0 -149 -22t-128 -54l-57 201q162 90 389 90q121 0 208.5 -33.5t136.5 -95t71 -136.5t22 -169v-350q0 -164 17 -242h-281l-18 100h-6q-101 -123 -287 -123q-146 0 -235 91t-89 217zM305 1374 q83 162 248 162q87 0 145 -50.5t58 -127.5q0 -46 -19.5 -86.5t-44.5 -65.5t-54.5 -59.5t-43.5 -65.5l-148 33q10 39 38.5 74.5t50.5 65t22 61.5q0 30 -17.5 47.5t-43.5 17.5q-50 0 -88 -69zM367 315q0 -58 33.5 -88t88.5 -30q56 0 101.5 33t60.5 81q6 24 6 54v108 q-290 0 -290 -158z" />
<glyph unicode="&#x1ea4;" horiz-adv-x="1343" d="M37 0l420 1380h407l430 -1380h-336l-106 354h-395l-99 -354h-321zM383 1454l182 252h217l185 -252h-201l-90 129h-4l-90 -129h-199zM502 588h305l-86 293q-26 84 -70 266h-4q-5 -19 -27.5 -119t-35.5 -147zM862 1640l158 234h266l-274 -234h-150z" />
<glyph unicode="&#x1ea5;" horiz-adv-x="1081" d="M59 285q0 190 157 286.5t431 96.5v12q0 53 -39.5 92t-142.5 39q-73 0 -149 -22t-128 -54l-57 201q162 90 389 90q121 0 208.5 -33.5t136.5 -95t71 -136.5t22 -169v-350q0 -164 17 -242h-281l-18 100h-6q-101 -123 -287 -123q-146 0 -235 91t-89 217zM238 1126l184 312 h217l182 -312h-198l-91 179h-4l-92 -179h-198zM367 315q0 -58 33.5 -88t88.5 -30q56 0 101.5 33t60.5 81q6 24 6 54v108q-290 0 -290 -158zM743 1327l158 307h238l-236 -307h-160z" />
<glyph unicode="&#x1ea6;" horiz-adv-x="1343" d="M37 0l420 1380h409l430 -1380h-335l-107 354h-397l-99 -354h-321zM371 1454l182 252h217l184 -252h-200l-90 129h-5l-90 -129h-198zM502 588h305l-86 293q-26 84 -70 266h-4q-5 -19 -27.5 -119t-35.5 -147zM727 1845h268l135 -231h-163z" />
<glyph unicode="&#x1ea7;" horiz-adv-x="1081" d="M59 285q0 190 157 286.5t431 96.5v12q0 53 -39.5 92t-142.5 39q-73 0 -149 -22t-128 -54l-57 201q162 90 389 90q121 0 208.5 -33.5t136.5 -95t71 -136.5t22 -169v-348q0 -163 17 -244h-281l-18 100h-6q-101 -123 -287 -123q-146 0 -235 91t-89 217zM242 1126l182 312 h217l182 -312h-196l-92 179h-5l-90 -179h-198zM367 315q0 -58 33.5 -88t88.5 -30q56 0 101.5 33t60.5 81q6 24 6 54v108q-290 0 -290 -158zM616 1636h234l139 -309h-155z" />
<glyph unicode="&#x1ea8;" horiz-adv-x="1343" d="M37 0l422 1380h407l430 -1380h-338l-104 354h-397l-97 -354h-323zM373 1454l182 250h217l184 -250h-200l-90 129h-4l-91 -129h-198zM502 588h305l-86 293q-11 41 -35 133t-35 133h-4q-5 -19 -27.5 -119t-35.5 -147zM776 1792q81 152 230 152q79 0 131.5 -47t52.5 -115 q0 -38 -16 -68t-37 -49t-49.5 -50t-45.5 -63l-118 29q11 35 36.5 65.5t44.5 53.5t19 49q0 27 -18 44t-43 17q-55 0 -95 -73z" />
<glyph unicode="&#x1ea9;" horiz-adv-x="1081" d="M59 285q0 190 157 286.5t431 96.5v12q0 53 -39.5 92t-142.5 39q-73 0 -149 -22t-128 -54l-57 201q162 90 389 90q121 0 208.5 -33.5t136.5 -95t71 -136.5t22 -169v-348q0 -167 19 -244h-281l-20 100h-6q-101 -123 -287 -123q-146 0 -235 91t-89 217zM240 1126l182 312 h217l182 -312h-198l-91 179h-4l-90 -179h-198zM367 315q0 -58 33.5 -88t88.5 -30q56 0 101.5 33t60.5 81q6 24 6 54v108q-290 0 -290 -158zM633 1538q78 150 233 150q76 0 130.5 -48.5t54.5 -113.5q0 -51 -24.5 -85.5t-63.5 -71.5t-58 -73l-131 29q14 41 54 86.5t40 77.5 q0 26 -16 42.5t-41 16.5t-48.5 -20.5t-37.5 -46.5z" />
<glyph unicode="&#x1eaa;" horiz-adv-x="1343" d="M37 0l420 1380h409l430 -1380h-338l-106 354h-395l-99 -354h-321zM344 1454l205 252h233l207 -252h-219l-102 127h-4l-103 -127h-217zM383 1739q-1 107 44.5 169t123.5 62q55 0 131 -39q68 -35 88 -35q25 0 37 17t16 63h144q8 -235 -168 -235q-27 0 -54 8t-39 14t-44 23 q-4 2 -16.5 8t-15.5 7.5t-12 5.5t-13.5 5t-11 2t-13.5 1q-44 0 -50 -76h-147zM502 588h305l-86 293q-26 84 -70 266h-4q-5 -19 -27.5 -119t-35.5 -147z" />
<glyph unicode="&#x1eab;" horiz-adv-x="1081" d="M59 285q0 190 157 286.5t431 96.5v12q0 53 -39.5 92t-142.5 39q-73 0 -149 -22t-128 -54l-57 201q162 90 389 90q121 0 208.5 -33.5t136.5 -95t71 -136.5t22 -169v-350q0 -164 17 -242h-281l-18 100h-6q-101 -123 -287 -123q-146 0 -235 91t-89 217zM238 1126l194 267 h215l195 -267h-203l-96 146h-4l-99 -146h-202zM256 1425q-1 107 44.5 169.5t123.5 62.5q55 0 131 -39q68 -35 88 -35q27 0 38.5 17t14.5 65h144q8 -238 -168 -238q-20 0 -40.5 5t-32 9.5t-34.5 16.5t-30 15q-58 28 -82 28q-44 0 -50 -76h-147zM367 315q0 -58 33.5 -88 t88.5 -30q56 0 101.5 33t60.5 81q6 24 6 54v108q-290 0 -290 -158z" />
<glyph unicode="&#x1eac;" horiz-adv-x="1343" d="M37 0l420 1380h409l430 -1380h-338l-106 354h-395l-99 -354h-321zM346 1454l205 252h233l207 -252h-219l-102 127h-4l-103 -127h-217zM502 588h305l-86 293q-26 84 -70 266h-4q-5 -19 -27.5 -119t-35.5 -147zM510 -305q0 60 41.5 100.5t101.5 40.5q59 0 98.5 -40.5 t39.5 -100.5q0 -56 -40.5 -97.5t-99.5 -41.5t-100 41.5t-41 97.5z" />
<glyph unicode="&#x1ead;" horiz-adv-x="1081" d="M59 285q0 190 157 286.5t431 96.5v12q0 53 -39.5 92t-142.5 39q-73 0 -149 -22t-128 -54l-57 201q162 90 389 90q121 0 208.5 -33.5t136.5 -95t71 -136.5t22 -169v-350q0 -164 17 -242h-281l-18 100h-6q-101 -123 -287 -123q-146 0 -235 91t-89 217zM231 1126l205 312 h209l203 -312h-203l-102 179h-4l-105 -179h-203zM367 315q0 -58 33.5 -88t88.5 -30q56 0 101.5 33t60.5 81q6 24 6 54v108q-290 0 -290 -158zM397 -309q0 63 42 104t104 41q60 0 99.5 -41t39.5 -104q0 -60 -40 -102t-101 -42t-102.5 42.5t-41.5 101.5z" />
<glyph unicode="&#x1eae;" horiz-adv-x="1343" d="M35 0l422 1380h409l430 -1380h-338l-104 354h-397l-99 -354h-323zM375 1679h141q11 -42 49 -68t103 -26q129 0 155 94h135q-11 -105 -87.5 -177t-206.5 -72q-131 0 -203.5 69t-85.5 180zM502 588h305l-86 293q-26 84 -70 266h-4q-5 -19 -27.5 -119t-35.5 -147zM563 1659 l144 233h276l-254 -233h-166z" />
<glyph unicode="&#x1eaf;" horiz-adv-x="1081" d="M59 285q0 190 157 286.5t431 96.5v12q0 53 -39.5 92t-142.5 39q-73 0 -149 -22t-128 -54l-57 201q162 90 389 90q121 0 208.5 -33.5t136.5 -95t71 -136.5t22 -169v-350q0 -164 17 -242h-281l-18 100h-6q-101 -123 -287 -123q-146 0 -235 91t-89 217zM209 1376h147 q8 -56 51.5 -90.5t110.5 -34.5q73 0 116 35.5t48 89.5h147q-5 -131 -89 -210t-222 -79q-140 0 -223 81t-86 208zM367 315q0 -58 33.5 -88t88.5 -30q56 0 101.5 33t60.5 81q6 24 6 54v108q-290 0 -290 -158zM420 1356l174 301h240l-252 -301h-162z" />
<glyph unicode="&#x1eb0;" horiz-adv-x="1343" d="M37 0l420 1380h409l430 -1380h-335l-107 354h-397l-99 -354h-321zM369 1892h276l141 -233h-163zM385 1679h141q11 -42 49 -68t103 -26q127 0 153 94h138q-13 -105 -89.5 -177t-205.5 -72q-131 0 -203.5 69t-85.5 180zM502 588h305l-86 293q-11 41 -35 133t-35 133h-4 q-5 -19 -27.5 -119t-35.5 -147z" />
<glyph unicode="&#x1eb1;" horiz-adv-x="1081" d="M59 285q0 190 157 286.5t431 96.5v12q0 24 -7.5 44.5t-25.5 41.5t-57 33t-94 12q-73 0 -148 -21.5t-127 -54.5l-57 201q162 90 389 90q121 0 208.5 -33.5t136.5 -95t71 -136.5t22 -169v-348q0 -163 17 -244h-281l-18 100h-6q-101 -123 -287 -123q-146 0 -235 91t-89 217z M227 1374h148q9 -56 52.5 -89.5t111.5 -33.5q73 0 115.5 35t47.5 88h148q-5 -130 -89.5 -208.5t-223.5 -78.5q-140 0 -223.5 80.5t-86.5 206.5zM227 1657h240l176 -301h-164zM367 315q0 -58 33.5 -88t88.5 -30q56 0 101.5 33t60.5 81q6 24 6 54v108q-290 0 -290 -158z" />
<glyph unicode="&#x1eb2;" horiz-adv-x="1343" d="M37 0l420 1380h409l430 -1380h-338l-104 354h-397l-99 -354h-321zM387 1679h141q12 -42 49.5 -69t102.5 -27q128 0 154 96h137q-11 -105 -88 -177t-207 -72q-132 0 -205 69t-84 180zM457 1874q78 149 233 149q76 0 129 -47.5t53 -111.5q0 -40 -16 -72.5t-37 -51 t-49 -48.5t-45 -60l-127 29q14 41 54 87.5t40 78.5q0 25 -16 42t-41 17q-46 0 -88 -67zM502 588h305l-86 293q-26 84 -70 266h-4q-5 -19 -27.5 -119t-35.5 -147z" />
<glyph unicode="&#x1eb3;" horiz-adv-x="1081" d="M59 285q0 190 157 286.5t431 96.5v12q0 53 -39.5 92t-142.5 39q-73 0 -148 -21.5t-129 -54.5l-57 201q162 90 389 90q121 0 208.5 -33.5t136.5 -95t71 -136.5t22 -169v-348q0 -163 17 -244h-281l-18 100h-6q-101 -123 -287 -123q-146 0 -235 91t-89 217zM223 1374h148 q8 -57 50.5 -91t110.5 -34q73 0 116 35.5t48 89.5h148q-5 -130 -90 -208.5t-222 -78.5q-140 0 -223 80t-86 207zM309 1571q77 151 232 151q77 0 131.5 -49t54.5 -114q0 -39 -16 -70t-37 -50t-49 -48.5t-45 -59.5l-129 29q11 35 35 63.5t41.5 50.5t17.5 48t-17 42.5t-41 16.5 q-51 0 -86 -68zM367 315q0 -58 33.5 -88t88.5 -30q56 0 101.5 33t60.5 81q6 24 6 54v108q-290 0 -290 -158z" />
<glyph unicode="&#x1eb4;" horiz-adv-x="1343" d="M37 0l420 1380h409l428 -1380h-336l-106 354h-395l-99 -354h-321zM373 1679h141q11 -42 49 -68t103 -26q127 0 153 94h137q-11 -104 -88 -176.5t-206 -72.5q-132 0 -205 69t-84 180zM379 1741q0 98 45.5 157.5t122.5 59.5q55 0 131 -39q64 -35 88 -35q25 0 37 17t16 63 h144q8 -235 -168 -235q-58 0 -138 45q-58 28 -82 28q-40 0 -47 -61h-149zM502 588h305l-86 293q-26 84 -70 266h-4q-5 -19 -27.5 -119t-35.5 -147z" />
<glyph unicode="&#x1eb5;" horiz-adv-x="1081" d="M59 285q0 190 157 286.5t431 96.5v12q0 53 -39.5 92t-142.5 39q-73 0 -149 -22t-128 -54l-57 201q162 90 389 90q121 0 208.5 -33.5t136.5 -95t71 -136.5t22 -169v-350q0 -164 17 -242h-281l-18 100h-6q-101 -123 -287 -123q-146 0 -235 91t-89 217zM236 1374h147 q8 -56 49 -93.5t103 -37.5q69 0 109.5 38.5t45.5 92.5h148q-5 -129 -85 -206.5t-218 -77.5q-139 0 -217.5 78.5t-81.5 205.5zM246 1456q0 98 45.5 157.5t122.5 59.5q53 0 133 -39q64 -35 88 -35q26 0 37.5 17t15.5 65h143q9 -237 -167 -237q-16 0 -31 2.5t-31.5 8t-25.5 9.5 t-27.5 13t-24.5 12q-4 2 -16.5 8t-15.5 7.5t-12 5.5t-13.5 5t-11 2t-13.5 1q-40 0 -47 -62h-149zM367 315q0 -58 33.5 -88t88.5 -30q56 0 101.5 33t60.5 81q6 24 6 54v108q-290 0 -290 -158z" />
<glyph unicode="&#x1eb6;" horiz-adv-x="1343" d="M37 0l420 1380h409l430 -1380h-338l-106 354h-395l-99 -354h-321zM375 1737h166q5 -40 33.5 -67.5t87.5 -27.5q110 0 129 95h159q-3 -118 -74.5 -188t-213.5 -70q-144 0 -214 69.5t-73 188.5zM502 588h305l-86 293q-26 84 -70 266h-4q-5 -19 -27.5 -119t-35.5 -147z M512 -305q0 60 41.5 100.5t101.5 40.5q59 0 98.5 -40.5t39.5 -100.5q0 -56 -40.5 -97.5t-99.5 -41.5t-100 41.5t-41 97.5z" />
<glyph unicode="&#x1eb7;" horiz-adv-x="1081" d="M59 285q0 190 157 286.5t431 96.5v12q0 53 -39.5 92t-142.5 39q-73 0 -149 -22t-128 -54l-57 201q162 90 389 90q121 0 208.5 -33.5t136.5 -95t71 -136.5t22 -169v-350q0 -164 17 -242h-281l-18 100h-6q-101 -123 -287 -123q-146 0 -235 91t-89 217zM256 1417h162 q17 -125 121 -125q59 0 90.5 35.5t34.5 89.5h161q-2 -133 -76 -212t-210 -79q-137 0 -209 81t-74 210zM367 315q0 -58 33.5 -88t88.5 -30q56 0 101.5 33t60.5 81q6 24 6 54v108q-290 0 -290 -158zM397 -309q0 63 42 104t104 41q60 0 99.5 -41t39.5 -104q0 -60 -40 -102 t-101 -42t-102.5 42.5t-41.5 101.5z" />
<glyph unicode="&#x1eb8;" horiz-adv-x="1093" d="M137 0v1380h850v-256h-538v-286h507v-254h-507v-328h567v-256h-879zM406 -305q0 60 41.5 100.5t101.5 40.5q58 0 97.5 -40.5t39.5 -100.5q0 -57 -40 -98t-99 -41t-100 41.5t-41 97.5z" />
<glyph unicode="&#x1eb9;" horiz-adv-x="1081" d="M68 489q0 98 31 191t90.5 171t159 125.5t224.5 47.5q94 0 170.5 -28.5t127 -76t85 -112.5t49.5 -135.5t15 -147.5q0 -66 -10 -123h-645q6 -92 86 -141t196 -49q152 0 277 43l41 -211q-149 -63 -363 -63q-253 0 -393.5 136t-140.5 373zM362 614h369q0 32 -8 64t-26 65 t-54.5 53.5t-87.5 20.5q-47 0 -84 -19.5t-59 -51.5t-34.5 -65.5t-15.5 -66.5zM397 -309q0 63 42 104t104 41q60 0 99.5 -41t39.5 -104q0 -60 -40 -102t-101 -42t-102.5 42.5t-41.5 101.5z" />
<glyph unicode="&#x1eba;" horiz-adv-x="1093" d="M137 0v1380h850v-256h-538v-286h507v-254h-507v-328h567v-256h-879zM358 1704q81 162 250 162q83 0 141 -51.5t58 -122.5q0 -42 -17 -75.5t-39 -54t-51.5 -52.5t-46.5 -64l-145 31q13 38 39 69t44.5 54.5t18.5 52.5q0 27 -17 44t-44 17q-49 0 -92 -69z" />
<glyph unicode="&#x1ebb;" horiz-adv-x="1081" d="M68 489q0 98 31 191t90.5 171t159 125.5t224.5 47.5q94 0 170.5 -28.5t127 -76t85 -112.5t49.5 -135.5t15 -147.5q0 -66 -10 -123h-645q6 -92 86 -141t196 -49q152 0 277 43l41 -211q-149 -63 -363 -63q-253 0 -393.5 136t-140.5 373zM303 1372q81 162 250 162 q87 0 145 -50.5t58 -127.5q0 -46 -19.5 -86.5t-44.5 -65.5t-54.5 -59.5t-43.5 -65.5l-150 33q9 32 28.5 61t37 47t31.5 42.5t14 50.5q0 30 -17 47.5t-44 17.5q-50 0 -88 -69zM362 614h369q0 32 -8 64t-26 65t-54.5 53.5t-87.5 20.5q-47 0 -84 -19.5t-59 -51.5t-34.5 -65.5 t-15.5 -66.5z" />
<glyph unicode="&#x1ebc;" horiz-adv-x="1093" d="M137 0v1380h848v-256h-536v-286h505v-254h-505v-328h565v-256h-877zM297 1464q-3 126 40 193t118 67q65 0 131 -41q67 -38 90 -38q26 0 37.5 18t17.5 70h139q3 -134 -37 -195t-122 -61q-61 0 -133 39q-6 3 -17 9.5t-16.5 9t-14 6.5t-14 6t-13 3.5t-14.5 1.5 q-43 0 -49 -88h-143z" />
<glyph unicode="&#x1ebd;" horiz-adv-x="1081" d="M68 489q0 98 31 191t90.5 171t159 125.5t224.5 47.5q94 0 170.5 -28.5t127 -76t85 -112.5t49.5 -135.5t15 -147.5q0 -66 -10 -123h-645q6 -92 86 -141t196 -49q152 0 277 43l41 -211q-149 -63 -363 -63q-253 0 -393.5 136t-140.5 373zM248 1141q-4 128 42 199t126 71 q53 0 133 -41q8 -4 23.5 -13t23.5 -13.5t19 -8.5t20 -4q25 0 37 18.5t16 71.5h143q8 -262 -167 -262q-9 0 -18 0.5t-18.5 2.5t-15.5 3.5t-16.5 5t-14.5 5t-15.5 6.5t-13.5 6t-14.5 7.5t-13.5 6.5q-8 4 -19.5 11t-17 9.5t-14 6t-15 5t-14.5 1.5q-43 0 -49 -94h-147zM362 614 h369q0 32 -8 64t-26 65t-54.5 53.5t-87.5 20.5q-47 0 -84 -19.5t-59 -51.5t-34.5 -65.5t-15.5 -66.5z" />
<glyph unicode="&#x1ebe;" horiz-adv-x="1093" d="M137 0v1380h850v-256h-538v-286h507v-254h-507v-328h567v-256h-879zM276 1454l185 252h215l186 -252h-200l-93 129h-4l-90 -129h-199zM758 1640l155 234h269l-275 -234h-149z" />
<glyph unicode="&#x1ebf;" horiz-adv-x="1081" d="M68 489q0 98 31 191t90.5 171t159 125.5t224.5 47.5q94 0 170.5 -28.5t127 -76t85 -112.5t49.5 -135.5t15 -147.5q0 -66 -10 -123h-645q6 -92 86 -141t196 -49q152 0 277 43l41 -211q-149 -63 -363 -63q-253 0 -393.5 136t-140.5 373zM285 1126l184 312h217l182 -312 h-198l-90 179h-5l-92 -179h-198zM362 614h369q0 32 -8 64t-26 65t-54.5 53.5t-87.5 20.5q-47 0 -84 -19.5t-59 -51.5t-34.5 -65.5t-15.5 -66.5zM791 1327l157 307h238l-236 -307h-159z" />
<glyph unicode="&#x1ec0;" horiz-adv-x="1093" d="M137 0v1380h850v-256h-538v-286h507v-254h-507v-328h567v-256h-879zM272 1454l185 252h217l184 -252h-201l-90 129h-4l-92 -129h-199zM631 1845h268l133 -231h-162z" />
<glyph unicode="&#x1ec1;" horiz-adv-x="1081" d="M68 489q0 98 31 191t90.5 171t159 125.5t224.5 47.5q94 0 170.5 -28.5t127 -76t85 -112.5t49.5 -135.5t15 -147.5q0 -66 -10 -123h-645q6 -92 86 -141t196 -49q152 0 277 43l41 -211q-149 -63 -363 -63q-253 0 -393.5 136t-140.5 373zM279 1126l182 312h217l184 -312 h-198l-93 179h-4l-90 -179h-198zM362 614h369q0 32 -8 64t-26 65t-54.5 53.5t-87.5 20.5q-47 0 -84 -19.5t-59 -51.5t-34.5 -65.5t-15.5 -66.5zM653 1636h234l139 -309h-156z" />
<glyph unicode="&#x1ec2;" horiz-adv-x="1093" d="M137 0v1380h848v-256h-536v-286h505v-254h-505v-328h567v-256h-879zM279 1454l184 252h215l186 -252h-200l-93 129h-4l-90 -129h-198zM684 1794q78 150 229 150q79 0 132 -46.5t53 -115.5q0 -37 -16 -67.5t-37.5 -49.5t-49.5 -50t-45 -63l-121 29q12 35 38 65.5t44.5 54 t18.5 50.5q0 26 -18 43.5t-44 17.5q-50 0 -94 -73z" />
<glyph unicode="&#x1ec3;" horiz-adv-x="1081" d="M68 489q0 98 31 191t90.5 171t159 125.5t224.5 47.5q94 0 170.5 -28.5t127 -76t85 -112.5t49.5 -135.5t15 -147.5t-12 -123h-643q6 -92 86 -141t196 -49q152 0 277 43l41 -211q-149 -63 -363 -63q-253 0 -393.5 136t-140.5 373zM268 1126l185 312h217l182 -312h-199 l-90 179h-4l-92 -179h-199zM362 614h369q0 32 -8 64t-26 65t-54.5 53.5t-87.5 20.5q-47 0 -84 -19.5t-59 -51.5t-34.5 -65.5t-15.5 -66.5zM664 1538q82 150 233 150q76 0 130 -48.5t54 -113.5q0 -32 -10 -58t-27 -45.5t-35 -36.5t-39 -41t-34 -49l-131 29q14 41 54 86.5 t40 77.5q0 26 -16 42.5t-41 16.5q-44 0 -86 -67z" />
<glyph unicode="&#x1ec4;" horiz-adv-x="1093" d="M137 0v1380h850v-256h-538v-286h507v-254h-507v-328h567v-256h-879zM270 1454l205 252h234l206 -252h-219l-102 127h-4l-103 -127h-217zM309 1739q-1 107 44.5 169t123.5 62q55 0 131 -39q68 -35 88 -35q25 0 37.5 17t16.5 63h143q8 -235 -168 -235q-27 0 -54 8t-39 14 t-44 23q-4 2 -16.5 8t-15.5 7.5t-12 5.5t-13.5 5t-11 2t-13.5 1q-43 0 -49 -76h-148z" />
<glyph unicode="&#x1ec5;" horiz-adv-x="1081" d="M68 489q0 98 31 191t90.5 171t159 125.5t224.5 47.5q94 0 170.5 -28.5t127 -76t85 -112.5t49.5 -135.5t15 -147.5q0 -66 -10 -123h-645q6 -92 86 -141t196 -49q152 0 277 43l41 -211q-149 -63 -363 -63q-253 0 -393.5 136t-140.5 373zM260 1126l195 267h215l194 -267 h-202l-97 146h-4l-98 -146h-203zM279 1425q-1 107 44 169.5t123 62.5q56 0 132 -39q68 -35 88 -35q27 0 38.5 17t14.5 65h143q8 -238 -168 -238q-20 0 -40.5 5t-32 9.5t-34.5 16.5t-30 15q-58 28 -82 28q-43 0 -49 -76h-147zM362 614h369q0 32 -8 64t-26 65t-54.5 53.5 t-87.5 20.5q-47 0 -84 -19.5t-59 -51.5t-34.5 -65.5t-15.5 -66.5z" />
<glyph unicode="&#x1ec6;" horiz-adv-x="1093" d="M137 0v1380h850v-256h-538v-286h507v-254h-507v-328h567v-256h-879zM246 1454l205 252h233l207 -252h-219l-103 127h-4l-102 -127h-217zM426 -305q0 60 41.5 100.5t101.5 40.5q59 0 98.5 -40.5t39.5 -100.5q0 -56 -40.5 -97.5t-99.5 -41.5t-100 41.5t-41 97.5z" />
<glyph unicode="&#x1ec7;" horiz-adv-x="1081" d="M68 489q0 98 31 191t90.5 171t159 125.5t224.5 47.5q94 0 170.5 -28.5t127 -76t85 -112.5t49.5 -135.5t15 -147.5q0 -66 -10 -123h-645q6 -92 86 -141t196 -49q152 0 277 43l41 -211q-149 -63 -363 -63q-253 0 -393.5 136t-140.5 373zM231 1126l205 312h209l203 -312 h-203l-102 179h-4l-105 -179h-203zM362 614h369q0 32 -8 64t-26 65t-54.5 53.5t-87.5 20.5q-47 0 -84 -19.5t-59 -51.5t-34.5 -65.5t-15.5 -66.5zM397 -307q0 61 42 102t104 41q60 0 99.5 -40.5t39.5 -102.5q0 -61 -40 -103.5t-101 -42.5t-102.5 42.5t-41.5 103.5z" />
<glyph unicode="&#x1ec8;" horiz-adv-x="583" d="M72 1704q81 162 247 162q84 0 142.5 -51.5t58.5 -122.5q0 -42 -17 -75.5t-39.5 -54t-52 -52.5t-46.5 -64l-144 31q13 38 39 69t44 54.5t18 52.5q0 27 -17.5 44t-42.5 17q-50 0 -92 -72zM137 0v1380h312v-1380h-312z" />
<glyph unicode="&#x1ec9;" horiz-adv-x="561" d="M45 1372q81 162 248 162q87 0 145 -50.5t58 -127.5q0 -46 -19.5 -86.5t-44.5 -65.5t-54.5 -59.5t-43.5 -65.5l-148 33q10 39 38.5 74.5t50.5 65t22 61.5q0 30 -17.5 47.5t-43.5 17.5q-49 0 -91 -69zM125 0v1001h311v-1001h-311z" />
<glyph unicode="&#x1eca;" horiz-adv-x="583" d="M137 0v1380h312v-1380h-312zM152 -305q0 60 41.5 100.5t101.5 40.5q58 0 97.5 -40.5t39.5 -100.5q0 -57 -40 -98t-99 -41t-100 41.5t-41 97.5z" />
<glyph unicode="&#x1ecb;" horiz-adv-x="561" d="M117 1280q0 67 46 111.5t120 44.5q73 0 117 -44t46 -112q0 -67 -45.5 -111.5t-121.5 -44.5q-72 0 -117 45t-45 111zM125 0v1001h311v-1001h-311zM137 -309q0 63 42 104t104 41q60 0 99.5 -41t39.5 -104q0 -60 -40 -102t-101 -42t-102.5 42.5t-41.5 101.5z" />
<glyph unicode="&#x1ecc;" horiz-adv-x="1468" d="M72 682q0 206 82 370t236 258.5t353 94.5q155 0 281 -55.5t207 -151t124.5 -222t43.5 -271.5q0 -338 -185 -533t-493 -195q-199 0 -348 94.5t-225 253t-76 357.5zM401 688q0 -207 90.5 -335t245.5 -128q103 0 179 61.5t114.5 167t38.5 240.5q0 127 -37.5 231t-114 168 t-180.5 64q-156 0 -246 -131.5t-90 -337.5zM594 -305q0 60 41.5 100.5t101.5 40.5q58 0 97.5 -40.5t39.5 -100.5q0 -57 -40 -98t-99 -41t-100 41.5t-41 97.5z" />
<glyph unicode="&#x1ecd;" horiz-adv-x="1181" d="M68 494q0 243 146.5 387.5t389.5 144.5q228 0 369 -143t141 -371q0 -133 -44.5 -237.5t-119.5 -168t-168 -96.5t-196 -33q-226 0 -372 140t-146 377zM389 502q0 -133 54 -217t151 -84q92 0 145.5 83t53.5 220q0 78 -19.5 143.5t-66 110.5t-113.5 45q-70 0 -118 -46 t-67.5 -111.5t-19.5 -143.5zM446 -307q0 61 42 102t104 41q60 0 99.5 -40t39.5 -103q0 -61 -40 -103.5t-101 -42.5t-102.5 42.5t-41.5 103.5z" />
<glyph unicode="&#x1ece;" horiz-adv-x="1468" d="M72 682q0 206 82 370t236 258.5t353 94.5q155 0 281 -55.5t207 -151t124.5 -222t43.5 -271.5q0 -338 -185 -533t-493 -195q-199 0 -348 94.5t-225 253t-76 357.5zM401 688q0 -207 90.5 -335t245.5 -128q103 0 179 61.5t114.5 167t38.5 240.5q0 127 -37.5 231t-114 168 t-180.5 64q-156 0 -246 -131.5t-90 -337.5zM512 1706q84 162 250 162q84 0 142.5 -51.5t58.5 -122.5q0 -42 -17 -75.5t-39.5 -54t-52.5 -52.5t-47 -64l-143 31q13 38 38.5 69t43.5 54.5t18 52.5q0 26 -17 43.5t-42 17.5q-52 0 -93 -71z" />
<glyph unicode="&#x1ecf;" horiz-adv-x="1181" d="M68 494q0 244 146 388t390 144q228 0 369 -143t141 -371q0 -133 -44.5 -237.5t-119.5 -168t-168 -96.5t-196 -33q-226 0 -372 140t-146 377zM354 1372q82 164 250 164q86 0 144.5 -50.5t58.5 -127.5q0 -38 -12.5 -70.5t-32.5 -58t-41 -47.5t-43 -49t-33 -54l-149 35 q8 32 27.5 61t37 47t31.5 42.5t14 50.5q0 30 -17 47.5t-44 17.5q-50 0 -88 -69zM389 502q0 -133 54 -217t151 -84q92 0 145.5 83t53.5 220q0 78 -19.5 143.5t-66 110.5t-113.5 45q-70 0 -118 -46t-67.5 -111.5t-19.5 -143.5z" />
<glyph unicode="&#x1ed0;" horiz-adv-x="1468" d="M72 680q0 206 82.5 370.5t235.5 259t351 95.5q155 0 281 -55.5t207 -151t125 -222t45 -271.5q0 -338 -185 -533t-493 -195q-150 0 -273 54.5t-205 149.5t-126.5 223.5t-44.5 275.5zM401 686q0 -206 90.5 -333.5t245.5 -127.5t243.5 130.5t88.5 336.5q0 127 -37.5 231 t-114.5 168.5t-182 65.5q-155 0 -245.5 -132t-88.5 -339zM459 1456l184 250h217l184 -250h-200l-90 129h-4l-93 -129h-198zM940 1642l156 234h268l-274 -234h-150z" />
<glyph unicode="&#x1ed1;" horiz-adv-x="1181" d="M68 494q0 244 146 388t390 144q228 0 369 -143t141 -371q0 -133 -44.5 -237.5t-119.5 -168t-168 -96.5t-196 -33q-226 0 -372 140t-146 377zM307 1126l185 312h217l182 -312h-199l-90 179h-4l-92 -179h-199zM389 502q0 -133 54 -217t151 -84q92 0 145.5 83t53.5 220 q0 78 -19.5 143.5t-66 110.5t-113.5 45q-70 0 -118 -46t-67.5 -111.5t-19.5 -143.5zM813 1327l158 307h237l-235 -307h-160z" />
<glyph unicode="&#x1ed2;" horiz-adv-x="1468" d="M72 680q0 206 82.5 370.5t235.5 259t351 95.5q155 0 281 -55.5t207 -151t125 -222t45 -271.5q0 -338 -185 -533t-493 -195q-150 0 -273 54.5t-205 149.5t-126.5 223.5t-44.5 275.5zM401 686q0 -206 90.5 -333.5t245.5 -127.5t243.5 130.5t88.5 336.5q0 127 -37.5 231 t-114.5 168.5t-182 65.5q-155 0 -245.5 -132t-88.5 -339zM451 1456l182 250h217l186 -250h-202l-91 129h-4l-90 -129h-198zM807 1847h268l135 -231h-161z" />
<glyph unicode="&#x1ed3;" horiz-adv-x="1181" d="M68 494q0 244 146 388t390 144q228 0 369 -143t141 -371q0 -133 -44.5 -237.5t-119.5 -168t-168 -96.5t-196 -33q-226 0 -372 140t-146 377zM311 1126l185 312h217l182 -312h-199l-90 179h-4l-92 -179h-199zM389 502q0 -133 54 -217t151 -84q92 0 145.5 83t53.5 220 q0 78 -19.5 143.5t-66 110.5t-113.5 45q-70 0 -118 -46t-67.5 -111.5t-19.5 -143.5zM686 1636h236l139 -309h-156z" />
<glyph unicode="&#x1ed4;" horiz-adv-x="1468" d="M72 682q0 206 82 370t236 258.5t353 94.5q155 0 281 -55.5t207 -151t124.5 -222t43.5 -271.5q0 -338 -185 -533t-493 -195q-199 0 -348 94.5t-225 253t-76 357.5zM401 688q0 -207 90.5 -335t245.5 -128q103 0 179 61.5t114.5 167t38.5 240.5q0 127 -37.5 231t-114 168 t-180.5 64q-156 0 -246 -131.5t-90 -337.5zM465 1454l184 252h217l187 -252h-203l-90 129h-4l-90 -129h-201zM872 1794q78 152 230 152q79 0 130.5 -47t51.5 -115q0 -38 -15.5 -68.5t-36.5 -49.5t-48.5 -50.5t-44.5 -63.5l-121 31q12 34 37.5 64.5t44 54t18.5 49.5 t-17.5 43.5t-43.5 17.5q-50 0 -94 -73z" />
<glyph unicode="&#x1ed5;" horiz-adv-x="1181" d="M68 494q0 244 146 388t390 144q228 0 369 -143t141 -371q0 -133 -44.5 -237.5t-119.5 -168t-168 -96.5t-196 -33q-226 0 -372 140t-146 377zM303 1126l182 312h217l183 -312h-199l-90 179h-4l-90 -179h-199zM389 502q0 -133 54 -217t151 -84q92 0 145.5 83t53.5 220 q0 78 -19.5 143.5t-66 110.5t-113.5 45q-70 0 -118 -46t-67.5 -111.5t-19.5 -143.5zM696 1538q82 150 234 150q76 0 130 -48.5t54 -113.5q0 -40 -15.5 -71.5t-36.5 -50t-48.5 -48.5t-44.5 -60l-131 29q12 35 36.5 64.5t42 51.5t17.5 48t-17.5 42.5t-42.5 16.5q-44 0 -86 -67 z" />
<glyph unicode="&#x1ed6;" horiz-adv-x="1468" d="M72 682q0 206 82 370t236 258.5t353 94.5q155 0 281 -55.5t207 -151t124.5 -222t43.5 -271.5q0 -338 -185 -533t-493 -195q-199 0 -348 94.5t-225 253t-76 357.5zM401 688q0 -207 90.5 -335t245.5 -128q103 0 179 61.5t114.5 167t38.5 240.5q0 127 -37.5 231t-114 168 t-180.5 64q-156 0 -246 -131.5t-90 -337.5zM418 1454l205 252h233l207 -252h-219l-103 127h-4l-102 -127h-217zM457 1739q-1 107 44.5 169t123.5 62q55 0 131 -39q68 -35 88 -35q25 0 37 17t16 63h143q8 -235 -168 -235q-27 0 -54 8t-39 14t-44 23q-4 2 -16.5 8t-15.5 7.5 t-12 5.5t-13.5 5t-11 2t-13.5 1q-43 0 -49 -76h-147z" />
<glyph unicode="&#x1ed7;" horiz-adv-x="1181" d="M68 494q0 244 146 388t390 144q228 0 369 -143t141 -371q0 -133 -44.5 -237.5t-119.5 -168t-168 -96.5t-196 -33q-226 0 -372 140t-146 377zM287 1126l194 267h215l195 -267h-203l-96 146h-4l-99 -146h-202zM305 1425q-1 107 44.5 169.5t123.5 62.5q55 0 131 -39 q68 -35 88 -35q27 0 38.5 17t14.5 65h144q9 -238 -168 -238q-20 0 -40.5 5t-32 9.5t-34.5 16.5t-30 15q-58 28 -82 28q-43 0 -49 -76h-148zM389 502q0 -133 54 -217t151 -84q92 0 145.5 83t53.5 220q0 78 -19.5 143.5t-66 110.5t-113.5 45q-70 0 -118 -46t-67.5 -111.5 t-19.5 -143.5z" />
<glyph unicode="&#x1ed8;" horiz-adv-x="1468" d="M72 682q0 206 82 370t236 258.5t353 94.5q155 0 281 -55.5t207 -151t124.5 -222t43.5 -271.5q0 -338 -185 -533t-493 -195q-199 0 -348 94.5t-225 253t-76 357.5zM401 688q0 -207 90.5 -335t245.5 -128q103 0 179 61.5t114.5 167t38.5 240.5q0 127 -37.5 231t-114 168 t-180.5 64q-156 0 -246 -131.5t-90 -337.5zM414 1454l204 252h234l207 -252h-219l-103 127h-4l-102 -127h-217zM594 -305q0 60 41.5 100.5t101.5 40.5q58 0 97.5 -40.5t39.5 -100.5q0 -57 -40 -98t-99 -41t-100 41.5t-41 97.5z" />
<glyph unicode="&#x1ed9;" horiz-adv-x="1181" d="M68 494q0 243 146.5 387.5t389.5 144.5q228 0 369 -143t141 -371q0 -133 -44.5 -237.5t-119.5 -168t-168 -96.5t-196 -33q-226 0 -372 140t-146 377zM281 1126l204 312h209l203 -312h-203l-102 179h-4l-105 -179h-202zM389 502q0 -133 54 -217t151 -84q92 0 145.5 83 t53.5 220q0 78 -19.5 143.5t-66 110.5t-113.5 45q-70 0 -118 -46t-67.5 -111.5t-19.5 -143.5zM446 -307q0 61 42 102t104 41q60 0 99.5 -40.5t39.5 -102.5q0 -61 -40 -103.5t-101 -42.5t-102.5 42.5t-41.5 103.5z" />
<glyph unicode="&#x1eda;" horiz-adv-x="1468" d="M72 682q0 206 82 370t236 258.5t353 94.5q138 0 252 -43q23 -8 67.5 -28t78 -32t57.5 -12q76 0 76 84q0 71 -45 148l223 39q49 -104 49 -207q0 -98 -55.5 -160.5t-161.5 -65.5q115 -176 115 -423q0 -338 -185 -533t-493 -195q-199 0 -348 94.5t-225 253t-76 357.5z M401 690q0 -202 91 -333.5t245 -131.5q103 0 179 61.5t114.5 167t38.5 240.5q0 127 -38 231t-114.5 168t-179.5 64q-104 0 -181.5 -64t-116 -168.5t-38.5 -234.5zM602 1454l172 252h328l-250 -252h-250z" />
<glyph unicode="&#x1edb;" horiz-adv-x="1204" d="M68 494q0 244 146 388t388 144q95 0 184 -29q17 -5 51.5 -20t63.5 -25t51 -10q73 0 70 74q0 69 -43 143l219 37q45 -85 45 -192q0 -94 -52 -151.5t-147 -66.5q70 -120 70 -274q0 -133 -44.5 -237.5t-119.5 -168t-168 -96.5t-196 -33q-226 0 -372 140t-146 377zM389 502 q0 -133 54 -217t151 -84q90 0 144.5 83t54.5 220q0 78 -19.5 143.5t-66 110.5t-113.5 45q-70 0 -118 -46t-67.5 -111.5t-19.5 -143.5zM449 1126l176 312h286l-249 -312h-213z" />
<glyph unicode="&#x1edc;" horiz-adv-x="1468" d="M72 682q0 206 82 370t236 258.5t353 94.5q138 0 252 -43q25 -8 68 -27.5t77 -32t58 -12.5q76 0 76 84q0 71 -45 148l223 39q49 -100 49 -207q0 -98 -55.5 -160.5t-161.5 -65.5q115 -176 115 -423q0 -338 -185 -533t-493 -195q-199 0 -348 94.5t-225 253t-76 357.5z M399 1708h328l172 -250h-250zM401 690q0 -202 91 -333.5t245 -131.5q103 0 179 61.5t114.5 167t38.5 240.5q0 127 -38 231t-114.5 168t-179.5 64q-104 0 -181.5 -64t-116 -168.5t-38.5 -234.5z" />
<glyph unicode="&#x1edd;" horiz-adv-x="1204" d="M68 494q0 244 146 388t388 144q95 0 184 -29q17 -5 51.5 -20t63.5 -25t51 -10q73 0 70 74q0 69 -43 143l219 37q45 -85 45 -192q0 -94 -52 -151.5t-147 -66.5q70 -120 70 -274q0 -133 -44.5 -237.5t-119.5 -168t-168 -96.5t-196 -33q-226 0 -372 140t-146 377zM281 1438 h286l176 -312h-213zM389 502q0 -133 54 -217t151 -84q90 0 144.5 83t54.5 220q0 78 -19.5 143.5t-66 110.5t-113.5 45q-70 0 -118 -46t-67.5 -111.5t-19.5 -143.5z" />
<glyph unicode="&#x1ede;" horiz-adv-x="1468" d="M72 682q0 206 82 370t236 258.5t353 94.5q138 0 252 -43q23 -8 67.5 -28t78 -32t57.5 -12q76 0 76 84q0 73 -45 150l223 39q49 -104 49 -209q0 -98 -55.5 -160.5t-161.5 -65.5q115 -176 115 -423q0 -338 -185 -533t-493 -195q-199 0 -348 94.5t-225 253t-76 357.5z M401 690q0 -202 91 -333.5t245 -131.5q103 0 179 61.5t114.5 167t38.5 240.5q0 127 -38 231t-114.5 168t-179.5 64q-104 0 -181.5 -64t-116 -168.5t-38.5 -234.5zM512 1706q84 162 250 162q84 0 142.5 -51.5t58.5 -122.5q0 -42 -17 -75.5t-39.5 -54t-52.5 -52.5t-47 -64 l-143 31q13 38 38.5 69t43.5 54.5t18 52.5q0 26 -17 43.5t-42 17.5q-52 0 -93 -71z" />
<glyph unicode="&#x1edf;" horiz-adv-x="1204" d="M68 494q0 244 146 388t388 144q95 0 184 -29q17 -5 51.5 -20t63.5 -25t51 -10q73 0 70 74q0 69 -43 143l219 37q45 -85 45 -192q0 -94 -52 -151.5t-147 -66.5q70 -120 70 -274q0 -133 -44.5 -237.5t-119.5 -168t-168 -96.5t-196 -33q-226 0 -372 140t-146 377zM354 1372 q82 164 248 164q87 0 146 -50.5t59 -127.5q0 -38 -12.5 -70.5t-32.5 -58t-41 -47.5t-43 -49t-33 -54l-149 35q8 32 27.5 61t37 47t31.5 42.5t14 50.5q0 30 -17.5 47.5t-43.5 17.5q-50 0 -88 -69zM389 502q0 -133 54 -217t151 -84q90 0 144.5 83t54.5 220q0 78 -19.5 143.5 t-66 110.5t-113.5 45q-70 0 -118 -46t-67.5 -111.5t-19.5 -143.5z" />
<glyph unicode="&#x1ee0;" horiz-adv-x="1468" d="M72 680q0 154 48 287.5t134.5 230t212.5 151.5t276 56q138 0 252 -43q21 -8 66.5 -28.5t78.5 -32t58 -11.5q76 0 76 82q0 73 -45 150l223 39q49 -104 49 -209q0 -98 -55.5 -161t-161.5 -67q115 -173 115 -419q0 -338 -185 -533t-493 -195q-150 0 -273 54.5t-205 149.5 t-126.5 223.5t-44.5 275.5zM401 688q0 -201 91 -332t245 -131q155 0 243.5 130.5t88.5 336.5q0 127 -38 231t-115 168.5t-181 65.5q-104 0 -181.5 -64t-115.5 -169t-37 -236zM463 1462q-3 127 39.5 194.5t118.5 67.5q61 0 131 -41q63 -38 90 -38q26 0 37.5 18t17.5 70h139 q3 -134 -37 -195t-122 -61q-66 0 -134 39q-7 4 -20 11.5t-19 10.5t-15.5 7t-17.5 5.5t-16 1.5q-43 0 -49 -88z" />
<glyph unicode="&#x1ee1;" horiz-adv-x="1204" d="M68 494q0 244 146 388t388 144q97 0 182 -29q8 -3 73.5 -29t94.5 -26q70 0 70 74q0 69 -43 143l219 37q45 -88 45 -192q0 -94 -52 -151.5t-147 -66.5q70 -120 70 -274q0 -133 -44.5 -237.5t-119.5 -168t-168 -96.5t-196 -33q-226 0 -372 140t-146 377zM299 1143 q-4 126 42 197t124 71q51 0 135 -41q8 -4 23.5 -13t23.5 -13.5t19 -8.5t20 -4q25 0 37 18.5t16 71.5h144q8 -261 -168 -264q-58 0 -142 45q-7 4 -18.5 11t-16.5 9.5t-13 6t-14.5 5t-14.5 1.5q-44 0 -50 -92h-147zM389 502q0 -133 54 -217t151 -84q90 0 144.5 83t54.5 220 q0 78 -19.5 143.5t-66 110.5t-113.5 45q-54 0 -95 -26t-64 -70t-34.5 -95.5t-11.5 -109.5z" />
<glyph unicode="&#x1ee2;" horiz-adv-x="1468" d="M72 682q0 206 82 370t236 258.5t353 94.5q138 0 252 -43q23 -8 67.5 -28t78 -32t57.5 -12q76 0 76 84q0 73 -45 150l223 39q49 -104 49 -209q0 -98 -55.5 -160.5t-161.5 -65.5q115 -176 115 -423q0 -338 -185 -533t-493 -195q-199 0 -348 94.5t-225 253t-76 357.5z M401 690q0 -202 91 -333.5t245 -131.5q103 0 179 61.5t114.5 167t38.5 240.5q0 127 -38 231t-114.5 168t-179.5 64q-104 0 -181.5 -64t-116 -168.5t-38.5 -234.5zM594 -305q0 60 41.5 100.5t101.5 40.5q58 0 97.5 -40.5t39.5 -100.5q0 -56 -39.5 -97.5t-95.5 -41.5h-4 q-59 0 -100 41.5t-41 97.5z" />
<glyph unicode="&#x1ee3;" horiz-adv-x="1204" d="M68 494q0 244 146 388t388 144q95 0 184 -29q17 -5 51.5 -20t63.5 -25t51 -10q73 0 70 74q0 69 -43 143l219 37q45 -85 45 -192q0 -94 -52 -151.5t-147 -66.5q70 -120 70 -274q0 -133 -44.5 -237.5t-119.5 -168t-168 -96.5t-196 -33q-226 0 -372 140t-146 377zM389 502 q0 -133 54 -217t151 -84q90 0 144.5 83t54.5 220q0 78 -19.5 143.5t-66 110.5t-113.5 45q-70 0 -118 -46t-67.5 -111.5t-19.5 -143.5zM453 -309q0 63 41.5 104t103.5 41q60 0 99.5 -41t39.5 -104q0 -60 -40 -102t-101 -42t-102 42.5t-41 101.5z" />
<glyph unicode="&#x1ee4;" horiz-adv-x="1396" d="M135 610v770h311v-792q0 -178 65 -269.5t185 -91.5q254 0 254 361v792h312v-774q0 -314 -150 -471.5t-426 -157.5q-267 0 -409 155.5t-142 477.5zM557 -305q0 60 41.5 100.5t101.5 40.5q59 0 98.5 -40.5t39.5 -100.5q0 -56 -40.5 -97.5t-99.5 -41.5t-100 41.5t-41 97.5z " />
<glyph unicode="&#x1ee5;" horiz-adv-x="1193" d="M121 414v587h311v-538q0 -234 158 -234q59 0 99 33t56 76q13 29 13 68v595h311v-679q0 -154 8 -322h-270l-14 141h-7q-17 -27 -41 -52t-61.5 -52t-92 -43.5t-118.5 -16.5q-162 0 -257 107.5t-95 329.5zM455 -309q0 63 41.5 104t103.5 41q60 0 99.5 -41t39.5 -104 q0 -60 -40 -102t-101 -42t-102 42.5t-41 101.5z" />
<glyph unicode="&#x1ee6;" horiz-adv-x="1396" d="M135 610v770h311v-792q0 -178 65 -269.5t185 -91.5q254 0 254 361v792h312v-774q0 -314 -150 -471.5t-426 -157.5q-267 0 -409 155.5t-142 477.5zM475 1704q84 162 250 162q84 0 142.5 -51.5t58.5 -122.5q0 -42 -17 -75.5t-39.5 -54t-52.5 -52.5t-47 -64l-143 31 q13 38 38.5 69t43.5 54.5t18 52.5q0 27 -17 44t-42 17q-27 0 -52 -22t-41 -50z" />
<glyph unicode="&#x1ee7;" horiz-adv-x="1193" d="M121 414v587h311v-538q0 -234 158 -234q59 0 99 33t56 76q13 29 13 68v595h311v-679q0 -154 8 -322h-270l-14 141h-7q-17 -27 -41 -52t-61.5 -52t-92 -43.5t-118.5 -16.5q-162 0 -257 107.5t-95 329.5zM360 1372q78 162 250 162q87 0 146 -50.5t59 -127.5 q0 -46 -20 -86.5t-45 -65.5t-55 -59.5t-44 -65.5l-149 33q8 32 27.5 61t37 47t31.5 42.5t14 50.5q0 30 -17 47.5t-44 17.5q-50 0 -88 -69z" />
<glyph unicode="&#x1ee8;" horiz-adv-x="1490" d="M135 610v770h311v-792q0 -178 65 -269.5t185 -91.5q254 0 254 361v792h238q60 0 83 19t23 61q0 62 -43 137l219 35q46 -90 46 -192q0 -95 -55 -153t-165 -68l-34 -5v-608q0 -314 -150 -471.5t-426 -157.5q-267 0 -409 155.5t-142 477.5zM541 1454l172 252h327l-249 -252 h-250z" />
<glyph unicode="&#x1ee9;" horiz-adv-x="1193" d="M121 412v589h311v-538q0 -234 158 -234q59 0 99 33t56 76q13 29 13 68v595h188q109 0 109 84q0 64 -45 136l219 36q45 -88 45 -186q0 -90 -53 -145t-136 -66h-16v-538q0 -154 8 -322h-270l-14 141h-7q-17 -27 -41 -52t-61.5 -52t-92 -43.5t-118.5 -16.5q-162 0 -257 107 t-95 328zM487 1126l177 312h286l-250 -312h-213z" />
<glyph unicode="&#x1eea;" horiz-adv-x="1490" d="M135 610v770h311v-792q0 -178 65 -269.5t185 -91.5q254 0 254 361v792h238q60 0 83 19t23 61q0 62 -43 137l219 35q46 -90 46 -192q0 -95 -55 -153t-165 -68l-34 -5v-608q0 -314 -150 -471.5t-426 -157.5q-267 0 -409 155.5t-142 477.5zM356 1708h328l172 -250h-250z" />
<glyph unicode="&#x1eeb;" horiz-adv-x="1193" d="M121 412v589h311v-538q0 -234 158 -234q59 0 99 33t56 76q13 29 13 68v595h188q109 0 109 84q0 64 -45 136l219 36q45 -88 45 -186q0 -90 -53 -145t-136 -66h-16v-538q0 -154 8 -322h-270l-14 141h-7q-17 -27 -41 -52t-61.5 -52t-92 -43.5t-118.5 -16.5q-162 0 -257 107 t-95 328zM295 1438h287l176 -312h-213z" />
<glyph unicode="&#x1eec;" horiz-adv-x="1490" d="M135 610v770h311v-792q0 -178 65 -269.5t185 -91.5q254 0 254 361v792h238q60 0 83 19t23 61q0 62 -43 137l219 35q46 -90 46 -192q0 -95 -55 -153t-165 -68l-34 -5v-608q0 -314 -150 -471.5t-426 -157.5q-267 0 -409 155.5t-142 477.5zM524 1704q81 162 250 162 q83 0 141 -51.5t58 -122.5q0 -42 -17 -75.5t-39 -54t-51.5 -52.5t-46.5 -64l-145 31q13 38 39 69t44.5 54.5t18.5 52.5q0 27 -17 44t-44 17q-50 0 -92 -72z" />
<glyph unicode="&#x1eed;" horiz-adv-x="1193" d="M121 412v589h311v-538q0 -234 158 -234q59 0 99 33t56 76q13 29 13 68v595h188q109 0 109 84q0 61 -45 136l219 36q45 -88 45 -186q0 -90 -53 -145t-136 -66h-16v-538q0 -154 8 -322h-270l-14 141h-7q-17 -27 -41 -52t-61.5 -52t-92 -43.5t-118.5 -16.5q-162 0 -257 107 t-95 328zM375 1372q78 162 250 162q87 0 145.5 -50.5t58.5 -127.5q0 -46 -19.5 -86.5t-44.5 -65.5t-55 -59.5t-44 -65.5l-150 33q10 39 38.5 74.5t50.5 65t22 61.5q0 30 -17.5 47.5t-44.5 17.5q-50 0 -88 -69z" />
<glyph unicode="&#x1eee;" horiz-adv-x="1490" d="M135 610v770h311v-792q0 -178 65 -269.5t185 -91.5q254 0 254 361v792h238q60 0 83 19t23 61q0 63 -43 135l219 37q46 -90 46 -192q0 -95 -55 -153t-165 -68l-34 -5v-608q0 -314 -150 -471.5t-426 -157.5q-267 0 -409 155.5t-142 477.5zM457 1464q-3 126 39.5 193 t117.5 67q64 0 134 -41q3 -2 12.5 -7.5t13 -7t11 -6t11.5 -6t10.5 -4.5t11 -4t10 -2t10.5 -1q26 0 37.5 18t17.5 70h139q3 -135 -37.5 -195.5t-124.5 -60.5q-61 0 -133 39q-7 4 -20 11.5t-19 10.5t-15.5 7t-17.5 5.5t-16 1.5q-43 0 -49 -88h-143z" />
<glyph unicode="&#x1eef;" horiz-adv-x="1193" d="M121 412v589h311v-538q0 -234 158 -234q59 0 99 33t56 76q13 29 13 68v595h188q109 0 109 86q0 61 -45 136l219 34q45 -88 45 -186q0 -90 -53 -145t-136 -66h-16v-538q0 -154 8 -322h-270l-14 141h-7q-17 -27 -41 -52t-61.5 -52t-92 -43.5t-118.5 -16.5q-162 0 -257 107 t-95 328zM311 1141q-4 128 42 199t126 71q55 0 131 -41q9 -5 24.5 -13.5t24 -13t19.5 -8.5t20 -4q26 0 38 19t16 71h143q8 -262 -168 -262q-10 0 -21 1t-18.5 2.5t-19 5t-16.5 5t-17.5 7t-15.5 7l-16 8l-15 7.5q-8 4 -19.5 11t-17 9.5t-14 6t-15 5t-14.5 1.5q-43 0 -49 -94 h-148z" />
<glyph unicode="&#x1ef0;" horiz-adv-x="1490" d="M135 610v770h311v-792q0 -178 65 -269.5t185 -91.5q254 0 254 361v792h238q60 0 83 19t23 61q0 62 -43 137l219 35q46 -90 46 -192q0 -95 -55 -153t-165 -68l-34 -5v-608q0 -314 -150 -471.5t-426 -157.5q-267 0 -409 155.5t-142 477.5zM602 -309q0 63 42 104t104 41 q60 0 99.5 -41t39.5 -104q0 -59 -40.5 -101.5t-101.5 -42.5t-102 42.5t-41 101.5z" />
<glyph unicode="&#x1ef1;" horiz-adv-x="1193" d="M121 412v589h311v-538q0 -234 158 -234q59 0 99 33t56 76q13 29 13 68v595h188q109 0 109 84q0 61 -45 136l219 36q45 -88 45 -186q0 -90 -53 -145t-136 -66h-16v-538q0 -154 8 -322h-270l-14 141h-7q-17 -27 -41 -52t-61.5 -52t-92 -43.5t-118.5 -16.5q-162 0 -257 107 t-95 328zM453 -309q0 63 41.5 104t103.5 41q60 0 99.5 -41t39.5 -104q0 -60 -40 -102t-101 -42t-102 42.5t-41 101.5z" />
<glyph unicode="&#x1ef2;" horiz-adv-x="1234" d="M18 1380h359l139 -331q67 -155 107 -265h4q43 119 104 265l139 331h351l-455 -805v-575h-311v565zM285 1702h327l172 -250h-249z" />
<glyph unicode="&#x1ef3;" horiz-adv-x="1071" d="M12 1001h346l150 -493q36 -127 49 -186h8q18 84 43 188l125 491h332l-234 -659q-103 -287 -183 -432.5t-169 -224.5q-137 -121 -299 -138l-67 263q66 14 135 53q35 19 71 53.5t58 71.5q16 26 16 45q0 21 -12 51zM238 1438h286l176 -312h-213z" />
<glyph unicode="&#x1ef4;" horiz-adv-x="1234" d="M18 1380h359l139 -331q67 -155 107 -265h4q43 119 104 265l139 331h351l-455 -805v-575h-311v565zM477 -305q0 60 42 100.5t102 40.5q58 0 97.5 -40.5t39.5 -100.5q0 -56 -40.5 -97.5t-99.5 -41.5t-100 41.5t-41 97.5z" />
<glyph unicode="&#x1ef5;" horiz-adv-x="1071" d="M12 1001h346l150 -491q40 -146 49 -186h8q24 104 43 186l125 491h332l-234 -659q-103 -287 -183 -432.5t-169 -224.5q-138 -119 -299 -136l-67 263q65 10 135 53q36 19 72 53.5t57 71.5q16 22 16 43t-14 53zM684 -309q0 63 41.5 104t103.5 41q60 0 100 -41t40 -104 q0 -59 -40.5 -101.5t-101.5 -42.5t-102 42.5t-41 101.5z" />
<glyph unicode="&#x1ef6;" horiz-adv-x="1234" d="M18 1380h359l139 -331q67 -155 107 -265h4q43 119 104 265l139 331h351l-455 -805v-575h-311v565zM395 1704q84 162 250 162q83 0 141 -51.5t58 -122.5q0 -42 -17 -75.5t-39 -54t-51.5 -52.5t-46.5 -64l-143 31q13 38 38.5 69t43.5 54.5t18 52.5q0 27 -17 44t-44 17 q-46 0 -92 -72z" />
<glyph unicode="&#x1ef7;" horiz-adv-x="1071" d="M12 1001h346l150 -493q36 -127 49 -186h8q18 84 43 188l125 491h332l-234 -659q-103 -287 -183 -432.5t-169 -224.5q-137 -121 -299 -138l-67 263q66 14 135 53q35 19 71 53.5t58 71.5q16 26 16 45q0 21 -12 51zM324 1372q78 162 247 162q87 0 146 -50.5t59 -127.5 q0 -46 -20 -86.5t-45 -65.5t-55 -59.5t-44 -65.5l-147 33q8 32 27.5 61t37 47t31.5 42.5t14 50.5q0 30 -17.5 47.5t-43.5 17.5q-48 0 -90 -69z" />
<glyph unicode="&#x1ef8;" horiz-adv-x="1234" d="M18 1380h359l139 -331q67 -155 107 -265h4q43 119 104 265l139 331h351l-455 -805v-575h-311v565zM330 1464q-3 126 39.5 193t117.5 67q65 0 131 -41q66 -38 91 -38q26 0 37.5 18t17.5 70h139q3 -134 -37.5 -195t-122.5 -61q-61 0 -133 39q-7 4 -20 11.5t-19 10.5 t-15.5 7t-17.5 5.5t-16 1.5q-43 0 -49 -88h-143z" />
<glyph unicode="&#x1ef9;" horiz-adv-x="1071" d="M12 1001h346l150 -493q36 -127 49 -186h8q18 84 43 188l125 491h332l-234 -659q-103 -287 -183 -432.5t-169 -224.5q-137 -121 -299 -138l-67 263q66 14 135 53q35 19 71 53.5t58 71.5q16 26 16 45q0 21 -12 51zM264 1141q-4 128 42 199t126 71q53 0 133 -41 q9 -5 24.5 -13.5t24 -13t19.5 -8.5t20 -4q26 0 38 19t16 71h143q8 -262 -168 -262q-12 0 -23 1t-22.5 4t-19.5 5.5t-20.5 7.5t-18 7.5t-19.5 9t-18 8.5q-8 4 -19.5 11t-17 9.5t-14 6t-15 5t-14.5 1.5q-43 0 -49 -94h-148z" />
<glyph unicode="&#x2000;" horiz-adv-x="1012" />
<glyph unicode="&#x2001;" horiz-adv-x="2025" />
<glyph unicode="&#x2002;" horiz-adv-x="1012" />
<glyph unicode="&#x2003;" horiz-adv-x="2025" />
<glyph unicode="&#x2004;" horiz-adv-x="675" />
<glyph unicode="&#x2005;" horiz-adv-x="506" />
<glyph unicode="&#x2006;" horiz-adv-x="337" />
<glyph unicode="&#x2007;" horiz-adv-x="337" />
<glyph unicode="&#x2008;" horiz-adv-x="253" />
<glyph unicode="&#x2009;" horiz-adv-x="405" />
<glyph unicode="&#x200a;" horiz-adv-x="112" />
<glyph unicode="&#x2010;" horiz-adv-x="659" d="M61 434v207h537v-207h-537z" />
<glyph unicode="&#x2011;" horiz-adv-x="659" d="M61 434v207h537v-207h-537z" />
<glyph unicode="&#x2012;" horiz-adv-x="659" d="M61 434v207h537v-207h-537z" />
<glyph unicode="&#x2013;" horiz-adv-x="1024" d="M61 424v192h902v-192h-902z" />
<glyph unicode="&#x2014;" horiz-adv-x="2048" d="M61 424v192h1926v-192h-1926z" />
<glyph unicode="&#x2018;" horiz-adv-x="532" d="M55 846q96 306 246 555l188 16q-100 -285 -143 -553z" />
<glyph unicode="&#x2019;" horiz-adv-x="532" d="M53 846q103 296 144 553l290 18q-100 -315 -245 -553z" />
<glyph unicode="&#x201a;" horiz-adv-x="532" d="M33 -213q100 285 143 553l291 18q-98 -312 -246 -555z" />
<glyph unicode="&#x201c;" horiz-adv-x="929" d="M51 846q92 294 246 555l188 16q-100 -285 -143 -553zM453 846q97 309 245 555l189 16q-99 -273 -144 -553z" />
<glyph unicode="&#x201d;" horiz-adv-x="929" d="M49 846q100 279 144 553l290 18q-100 -315 -245 -553zM451 846q101 291 143 553l291 18q-95 -300 -246 -553z" />
<glyph unicode="&#x201e;" horiz-adv-x="940" d="M31 -213q97 268 143 553l291 18q-98 -312 -246 -555zM432 -213q100 285 143 553l291 18q-96 -305 -245 -555z" />
<glyph unicode="&#x2020;" horiz-adv-x="1073" d="M72 754v239l352 -24l-29 411h283l-29 -411l352 24v-239l-352 24l29 -880h-283l29 880z" />
<glyph unicode="&#x2021;" horiz-adv-x="1073" d="M70 268v242l348 -25v324l-348 -25v240l348 -25l-21 381h279l-21 -381l349 25v-240l-349 25v-324l349 25v-242l-349 25l21 -395h-279l21 395z" />
<glyph unicode="&#x2022;" horiz-adv-x="692" d="M80 532q-1 113 77 191t189 78t188.5 -78t77.5 -191t-77 -189.5t-191 -76.5q-110 0 -187 76.5t-77 189.5z" />
<glyph unicode="&#x2026;" horiz-adv-x="2048" d="M158 166q0 85 51 137.5t133 52.5q80 0 130.5 -52t51.5 -138q0 -83 -51 -136t-135 -53q-78 0 -129 53.5t-51 135.5zM842 166q0 85 51 137.5t133 52.5q80 0 130.5 -52t51.5 -138q0 -83 -51 -136t-135 -53q-78 0 -129 53.5t-51 135.5zM1526 166q0 85 51 137.5t133 52.5 q80 0 130.5 -52t51.5 -138q0 -83 -51 -136t-135 -53q-78 0 -129 53.5t-51 135.5z" />
<glyph unicode="&#x202f;" horiz-adv-x="405" />
<glyph unicode="&#x2030;" horiz-adv-x="2631" d="M55 936q0 182 103 300t272 118q166 0 261 -110.5t95 -285.5q0 -101 -30 -183.5t-81.5 -134.5t-117.5 -80t-139 -28q-157 0 -260 110t-103 294zM287 942q-2 -107 34.5 -173.5t102.5 -66.5q65 0 98 63t33 179q0 109 -32.5 174.5t-102.5 65.5q-66 0 -99.5 -67.5 t-33.5 -174.5zM432 -23l766 1375h166l-764 -1375h-168zM1016 383q0 181 102.5 299.5t270.5 118.5q166 0 261 -110t95 -285q0 -100 -30.5 -182t-82 -134t-117.5 -80t-139 -28q-155 0 -257.5 109t-102.5 292zM1247 391q-2 -107 33.5 -173t101.5 -66q65 0 98 62.5t33 176.5 q0 109 -32.5 174.5t-100.5 65.5q-66 0 -99.5 -67t-33.5 -173zM1841 383q0 182 103 300t272 118q166 0 261 -110t95 -285q0 -198 -107.5 -311t-260.5 -113q-156 0 -259.5 109t-103.5 292zM2073 391q-2 -107 34.5 -173t102.5 -66q65 0 98 62.5t33 176.5q0 109 -32.5 174.5 t-102.5 65.5q-66 0 -99.5 -67t-33.5 -173z" />
<glyph unicode="&#x2039;" horiz-adv-x="552" d="M55 516l236 391h217l-244 -391l244 -389h-215z" />
<glyph unicode="&#x203a;" horiz-adv-x="552" d="M47 127l244 389l-244 391h213l240 -391l-240 -389h-213z" />
<glyph unicode="&#x2044;" horiz-adv-x="256" d="M-334 -23l756 1377h170l-756 -1377h-170z" />
<glyph unicode="&#x205f;" horiz-adv-x="506" />
<glyph unicode="&#x2070;" horiz-adv-x="774" d="M43 1307q0 86 20.5 158.5t61 129.5t107 89t153.5 32q169 0 256.5 -114.5t87.5 -296.5q0 -66 -12 -124.5t-38.5 -111.5t-66 -91t-98.5 -60.5t-131 -22.5q-167 0 -253.5 115t-86.5 297zM270 1305q0 -125 31 -187.5t86 -62.5q54 0 84.5 63t30.5 187q0 126 -31 188.5 t-86 62.5q-54 0 -84.5 -63.5t-30.5 -187.5z" />
<glyph unicode="&#x2074;" horiz-adv-x="804" d="M41 1092v129l340 489h274v-467h105v-151h-105v-187h-221v187h-393zM256 1245l4 -2h174v150q0 29 3.5 81.5t4.5 69.5h-4q-64 -121 -73 -135z" />
<glyph unicode="&#x2075;" horiz-adv-x="712" d="M45 940l37 160q32 -16 86 -28.5t106 -12.5q60 0 108 26.5t48 79.5q0 57 -53.5 87t-177.5 30q-22 0 -115 -6l53 428h475v-174h-329l-15 -100q14 2 56 2q147 0 229 -58q45 -31 71.5 -81.5t26.5 -114.5q0 -123 -98.5 -203t-265.5 -80q-66 0 -134.5 13.5t-107.5 31.5z" />
<glyph unicode="&#x2076;" horiz-adv-x="743" d="M45 1247q0 106 36.5 196t104.5 152q126 111 336 117q53 3 80 0l2 -162q-45 4 -78 2q-214 -11 -262 -163h2q73 55 174 55q116 0 187 -69t71 -187q0 -131 -93 -212t-220 -81q-86 0 -153 29.5t-107 80t-60 112t-20 130.5zM256 1190q0 -54 34 -94.5t93 -40.5q42 0 70 35 t28 86q0 54 -28 89t-86 35q-35 0 -63.5 -20t-41.5 -49q-6 -15 -6 -41z" />
<glyph unicode="&#x2077;" horiz-adv-x="681" d="M47 1530v174h604v-131l-338 -666h-231l340 621v2h-375z" />
<glyph unicode="&#x2078;" horiz-adv-x="739" d="M47 1116q0 130 150 193v4q-58 28 -90.5 74t-32.5 100q0 103 85.5 166t215.5 63q137 0 209.5 -62t72.5 -147q0 -56 -31.5 -100.5t-88.5 -69.5v-4q64 -24 108.5 -71.5t44.5 -120.5q0 -108 -89 -177t-241 -69q-81 0 -144 20.5t-98.5 54t-53 71t-17.5 75.5zM262 1139 q0 -38 30.5 -67.5t78.5 -29.5q43 0 71.5 24.5t28.5 63.5q0 84 -117 113q-92 -31 -92 -104zM274 1493q0 -67 109 -100q32 9 54 34.5t22 57.5q0 36 -24.5 62t-69.5 26q-41 0 -66 -23t-25 -57z" />
<glyph unicode="&#x2079;" horiz-adv-x="733" d="M43 1427q0 123 91 206t226 83q83 0 147.5 -29t103 -79t58 -110.5t19.5 -127.5q0 -235 -139 -358q-123 -109 -352 -115q-37 -3 -80 2v162q50 -4 80 -2q100 3 165 41q88 48 107 129l-4 2q-57 -53 -160 -53q-109 0 -185.5 66.5t-76.5 182.5zM258 1438q0 -47 28.5 -82 t80.5 -35q69 0 98 49q8 11 8 45q0 61 -27.5 102.5t-85.5 41.5q-42 0 -72 -34t-30 -87z" />
<glyph unicode="&#x207d;" horiz-adv-x="417" d="M84 1288q0 280 141 490h156q-121 -221 -121 -490q0 -263 121 -487h-156q-141 208 -141 487z" />
<glyph unicode="&#x207e;" horiz-adv-x="417" d="M37 801q121 232 121 487q0 273 -121 490h156q141 -208 141 -490q0 -270 -141 -487h-156z" />
<glyph unicode="&#x2080;" horiz-adv-x="774" d="M43 98q0 116 35 206t113.5 147t193.5 57q114 0 193 -56t115 -146.5t36 -207.5q0 -66 -12 -124.5t-38.5 -111t-66 -91t-98.5 -60.5t-131 -22q-167 0 -253.5 114.5t-86.5 294.5zM270 98q0 -125 31 -187.5t86 -62.5q54 0 84.5 62.5t30.5 187.5t-31 187.5t-86 62.5 q-54 0 -84.5 -63t-30.5 -187z" />
<glyph unicode="&#x2081;" d="M45 399l227 99h209v-799h-239v604h-2l-164 -72z" />
<glyph unicode="&#x2082;" horiz-adv-x="720" d="M31 -186l127 114q140 124 176 165q61 70 61 130q0 44 -32 71.5t-89 27.5q-92 0 -176 -58l-61 156q122 88 299 88q147 0 229 -70t82 -178q0 -42 -13.5 -82t-32.5 -70.5t-54.5 -67t-62 -59.5t-72.5 -61l-50 -39v-4h300v-178h-631v115z" />
<glyph unicode="&#x2083;" horiz-adv-x="710" d="M18 -254l48 160q36 -20 92.5 -36.5t107.5 -16.5q63 0 104.5 26.5t41.5 67.5q0 48 -52 74t-127 26h-61v139h59q61 0 109.5 20.5t48.5 63.5q0 34 -26.5 54t-81.5 20q-99 0 -185 -51l-45 149q47 28 124.5 47t162.5 19q142 0 218.5 -57t76.5 -146q0 -64 -46 -110.5 t-122 -69.5v-4q87 -9 143 -61t56 -128q0 -108 -101 -175.5t-268 -67.5q-82 0 -157 16t-120 41z" />
<glyph unicode="&#x2084;" horiz-adv-x="804" d="M41 12l340 492h274v-469h105v-152h-105v-184h-221v184h-393v129zM256 39l4 -2h174v149q0 29 3.5 83t4.5 69h-4q-64 -121 -73 -135z" />
<glyph unicode="&#x2085;" horiz-adv-x="712" d="M45 -266l37 160q32 -16 86 -28.5t106 -12.5q60 0 108 26.5t48 79.5q0 57 -53.5 87t-177.5 30q-53 0 -115 -8l53 430h475v-174h-329l-15 -101q14 2 56 2q148 0 229 -57q98 -70 98 -199q0 -122 -99 -201t-265 -79q-66 0 -134.5 13.5t-107.5 31.5z" />
</font>
</defs>
</svg>
